<svg width="12" height="22" viewBox="0 0 12 22" fill="none" xmlns="http://www.w3.org/2000/svg">
<path d="M12 21.1905C11.999 21.0858 11.9767 20.9819 11.9345 20.8849C11.8923 20.7878 11.8302 20.6988 11.7519 20.6241L11.7402 20.6124L1.98337 10.9776L11.7275 1.35556C11.8764 1.20338 11.9568 1.00229 11.955 0.79599C11.9532 0.589581 11.8695 0.389154 11.7177 0.239349C11.5656 0.0891495 11.3571 0.00198364 11.1367 9.15527e-05C10.9164 -0.00178909 10.7066 0.0819931 10.5517 0.229584L0.237275 10.4151C0.0839577 10.5666 1.62125e-05 10.769 -2.95639e-05 10.9776C-2.95639e-05 11.1864 0.0838852 11.3896 0.237275 11.5411L10.5634 21.7384L10.5703 21.7442L10.5761 21.7501L10.6357 21.8058C10.6979 21.8578 10.7686 21.9004 10.8447 21.9327C10.9462 21.9757 11.0557 21.9991 11.167 22.0001C11.2783 22.001 11.3888 21.9799 11.4912 21.9386C11.5935 21.8972 11.6858 21.8367 11.7627 21.7608C11.8396 21.6849 11.8999 21.5949 11.9404 21.4972C11.9808 21.3995 12.0009 21.2952 12 21.1905Z" fill="#6D48F2"/>
</svg>
