<svg width="344" height="496" viewBox="0 0 344 496" fill="none" xmlns="http://www.w3.org/2000/svg">
<g clip-path="url(#clip0_935_15771)">
<rect width="344" height="496" fill="#B19CFA"/>
<path d="M216.936 210.447C216.618 209.767 220.234 213.343 220.672 213.865C223.188 216.857 226.113 218.94 229.45 220.913C231.407 222.071 233.142 223.481 234.885 224.939C237.126 226.814 240.065 228.011 242.608 229.447C263.134 241.043 286.787 237.701 308.291 230.252C310.7 229.418 312.816 228.116 315.138 227.104C317.181 226.212 316.442 227.648 315.799 228.982C314.226 232.246 313.218 235.685 311.616 238.929C310.93 240.318 310.708 241.959 309.614 243.116C309.116 243.641 308.352 244.286 308.076 244.976C307.544 246.307 308.828 246.129 310.078 245.728C312.179 245.053 314.202 244.292 316.371 243.778C319.398 243.06 322.49 243.291 325.543 242.794C332.058 241.732 338.364 239.938 344.833 238.643C346.222 238.365 348.492 237.581 346.799 239.824C345.517 241.522 344.04 243.037 342.508 244.511C339.912 247.01 337.911 250.003 335.679 252.794C333.926 254.988 336.552 254.279 338.683 254.244C341.269 254.201 343.95 252.845 346.477 252.311C350.443 251.474 354.322 250.323 358.312 249.556C361.438 248.956 364.512 248.187 367.68 247.803C368.95 247.649 372.616 246.882 371.506 247.517C367.035 250.073 363.922 255.052 359.993 258.269C358.543 259.456 356.433 260.555 355.237 261.901C354.811 262.38 357.611 263.224 357.704 263.26C359.845 264.102 362.043 264.661 363.282 266.803C363.768 267.642 366.658 268.447 367.537 269.075C370.057 270.876 372.694 272.222 375.403 273.709C379.156 275.768 383.556 277.219 386.952 279.863C394.823 285.988 403.483 291.656 410.176 299.31C413.585 303.209 418.176 305.772 421.528 309.812L421.668 309.98L421.669 309.982C425.488 314.585 429.31 319.193 432.791 324.053C435.421 327.726 438.803 331.129 440.746 335.234C443.253 340.531 446.675 345.805 449.56 350.96C456.485 363.335 460.23 376.814 462.468 390.749C465.131 407.33 462.79 424.633 462.79 441.29V450.146C462.79 450.663 463.092 449.122 463.433 448.732C464.052 448.025 464.565 447.16 464.971 446.317C466.677 442.769 467.704 438.418 468.975 434.688C474.738 417.773 478.42 399.59 480.471 381.803C481.295 374.65 479.789 367.556 480.238 360.371C480.587 354.79 481.557 349.273 482.562 343.786C483.294 339.793 483.489 335.862 484.976 332.05C486.287 328.687 487.519 325.441 489.106 322.192C489.644 321.089 490.573 316.395 492.073 316.395C498.581 316.395 500.881 320.248 503.98 325.555C508.355 333.05 509.537 341.154 509.754 349.744L509.756 349.826C510.064 361.971 510.384 374.652 508.664 386.705C508.128 390.457 508.458 394.163 507.52 397.869C506.559 401.661 505.71 405.366 504.623 409.14C502.383 416.925 500.336 424.721 497.472 432.326C493.478 442.934 487.671 451.633 478.164 458.089C472.679 461.814 468.062 465.823 461.824 468.251C445.763 474.501 427.94 473.718 411.248 477.894C399.246 480.896 385.749 482.885 373.33 482.885C368.034 482.885 362.994 483.322 357.74 482.492C351.86 481.563 346.135 479.122 340.828 476.516C334.686 473.501 328.723 469.758 334.97 463.506C332.353 462.058 327.556 461.033 325.79 461.033C322.367 461.033 305.891 454.715 305.578 456.069C305.577 456.075 305.576 456.081 305.575 456.086C304.98 459.459 304.787 463.24 303.338 465.979C300.382 471.566 298.57 480.384 291.289 482.205C286.593 483.38 281.887 481.953 279.937 477.16C277.3 470.684 276.389 463.317 276.041 456.086C275.908 453.315 275.858 450.564 275.825 447.891C275.667 435.091 273.558 423.044 270.676 410.607C269.836 406.981 269.114 400.712 266.242 397.941C264.41 396.173 261.937 396.683 259.735 396.903C256.337 397.243 253.965 402.525 252.78 405.169C248.53 414.658 243.924 424.073 238.818 433.132C236.943 436.457 235.575 440.214 233.49 443.383C231.242 446.799 229.236 449.904 227.519 453.652C224.928 459.309 222.366 468.111 217.257 472.061C214.686 474.05 210.056 473.748 207.586 471.739C205.105 469.722 205.673 466.22 205.673 463.402C205.673 452.432 208.202 441.122 210.643 430.466C213.981 415.886 216.642 400.838 217.829 385.918C218.543 376.949 219.188 368.121 219.188 359.118C219.188 354.169 218.605 348.355 216.542 343.768C211.79 333.2 205.365 322.134 197.556 313.497C193.606 309.128 189.725 304.38 185.292 300.509C182.929 298.445 180.506 296.27 178.32 294.014C176.056 291.678 164.569 283.196 164.433 279.772L216.936 210.447Z" fill="#AFED3A"/>
<path d="M334.97 463.506C328.723 469.758 334.686 473.501 340.828 476.516C346.135 479.122 351.86 481.563 357.74 482.492C362.994 483.322 368.034 482.885 373.33 482.885C385.749 482.885 399.246 480.896 411.248 477.894C427.94 473.718 445.763 474.501 461.824 468.251C468.062 465.823 472.679 461.814 478.164 458.089C487.671 451.633 493.478 442.934 497.472 432.326C500.336 424.721 502.383 416.925 504.623 409.14C505.709 405.366 506.559 401.661 507.52 397.869C508.458 394.163 508.128 390.457 508.664 386.705C510.384 374.652 510.064 361.971 509.756 349.826L509.754 349.744C509.537 341.154 508.355 333.05 503.98 325.555C500.881 320.248 498.581 316.395 492.073 316.395C490.573 316.395 489.644 321.089 489.106 322.192C487.519 325.441 486.287 328.687 484.976 332.05C483.489 335.862 483.294 339.793 482.562 343.786C481.557 349.273 480.587 354.79 480.238 360.371C479.789 367.556 481.295 374.65 480.471 381.803C478.42 399.59 474.738 417.773 468.975 434.688C467.704 438.418 466.677 442.769 464.971 446.317C464.565 447.16 464.052 448.025 463.433 448.732C463.092 449.122 462.79 450.663 462.79 450.146V441.29C462.79 424.633 465.131 407.33 462.468 390.749C460.23 376.814 456.485 363.335 449.56 350.96C446.675 345.805 443.253 340.531 440.746 335.234C438.803 331.129 435.421 327.726 432.791 324.053C429.31 319.192 425.487 314.584 421.668 309.981L421.528 309.812C418.176 305.772 413.585 303.209 410.176 299.31C403.483 291.656 394.823 285.988 386.952 279.863C383.556 277.219 379.156 275.768 375.403 273.709C372.694 272.222 370.057 270.876 367.537 269.075C366.658 268.447 363.768 267.642 363.282 266.803C362.043 264.661 359.845 264.102 357.705 263.26C357.611 263.224 354.811 262.38 355.237 261.901C356.433 260.555 358.543 259.456 359.993 258.269C363.922 255.052 367.035 250.073 371.506 247.517C372.616 246.882 368.95 247.649 367.68 247.803C364.512 248.187 361.438 248.956 358.312 249.556C354.322 250.323 350.443 251.474 346.477 252.311C343.95 252.845 341.269 254.201 338.683 254.244C336.552 254.279 333.926 254.988 335.679 252.794C337.911 250.003 339.912 247.01 342.508 244.511C344.04 243.037 345.517 241.522 346.799 239.824C348.492 237.581 346.222 238.365 344.833 238.643C338.364 239.938 332.058 241.732 325.543 242.794C322.49 243.291 319.398 243.06 316.371 243.778C314.202 244.292 312.179 245.053 310.078 245.728C308.828 246.129 307.544 246.307 308.076 244.976C308.352 244.286 309.116 243.641 309.614 243.116C310.708 241.959 310.93 240.318 311.616 238.929C313.218 235.685 314.226 232.246 315.799 228.982C316.442 227.648 317.181 226.212 315.138 227.104C312.816 228.116 310.7 229.418 308.291 230.252C286.787 237.701 263.134 241.043 242.608 229.447C240.065 228.011 237.126 226.814 234.885 224.939C233.142 223.481 231.407 222.071 229.45 220.913C226.113 218.94 223.188 216.857 220.672 213.865C220.234 213.343 216.618 209.767 216.936 210.447L164.433 279.772C164.569 283.196 176.056 291.678 178.32 294.014C180.506 296.27 182.929 298.445 185.292 300.509C189.725 304.38 193.606 309.128 197.556 313.497C205.365 322.134 211.79 333.2 216.542 343.768C218.605 348.355 219.188 354.169 219.188 359.118C219.188 368.121 218.543 376.948 217.829 385.918C216.642 400.838 213.981 415.886 210.643 430.466C208.202 441.122 205.673 452.432 205.673 463.402C205.673 466.22 205.105 469.722 207.586 471.739C210.056 473.748 214.686 474.05 217.257 472.061C222.366 468.111 224.928 459.309 227.519 453.652C229.236 449.904 231.242 446.799 233.49 443.383C235.575 440.214 236.943 436.457 238.818 433.132C243.924 424.073 248.53 414.658 252.78 405.169C253.965 402.525 256.337 397.243 259.735 396.903C261.937 396.683 264.41 396.173 266.242 397.941C269.114 400.712 269.836 406.981 270.676 410.607C273.558 423.044 275.667 435.091 275.825 447.891C275.944 457.538 276.29 468.202 279.937 477.16C281.887 481.953 286.593 483.38 291.289 482.205C298.57 480.384 300.382 471.566 303.338 465.979C305.207 462.447 304.986 457.182 306.235 453.294C308.681 445.677 307.951 437.629 308.666 429.643C309.279 422.789 310.254 415.905 311.383 409.122C312.157 404.479 313.796 400.025 314.619 395.436C315.029 393.151 316.409 391.794 317.587 389.89C318.444 388.505 319.352 388.757 320.537 387.868C321.558 387.102 326.725 384.722 327.634 385.632M334.97 463.506C337.858 460.617 343.691 457.445 347.443 457.445M334.97 463.506C332.353 462.058 327.556 461.033 325.79 461.033C322.353 461.033 305.753 454.662 305.575 456.086M347.443 457.445C353.911 457.445 360.336 457.982 366.751 458.089C371.566 458.169 376.36 458.751 381.142 459.332L381.518 459.377C384.018 459.68 386.703 459.781 389.151 460.325C391.904 460.937 383.394 459.134 381.249 457.302C366.002 444.277 362.234 420.082 367.537 401.734C370.079 392.939 375.296 385.805 383.752 382.09C386.847 380.73 390.13 380.528 393.353 379.496C396.565 378.467 400.12 377.259 403.525 377.259C408.52 377.259 412.172 380.275 416.522 382.161C417.681 382.664 422.329 384.301 420.312 385.31M347.443 457.445C342.428 456.316 327.75 453.927 322.915 452.149C320.038 451.092 317.188 449.481 314.619 447.784C313.037 446.738 309.386 444.309 308.014 443.013M275.592 441.6C272.211 441.44 271.769 441.246 269.297 442.66C267.248 444.729 265.767 445.133 263.648 448.666C262.468 450.384 262.972 452.965 265.134 454.547C266.228 455.347 271.416 457.146 276.041 456.086" stroke="#6D48F2" stroke-width="5" stroke-linecap="round"/>
<path d="M155.934 326.935C149.081 320.078 142.638 312.442 136.769 304.767C137.287 304.168 154.745 282.548 155.534 282.322C156.002 282.189 157.398 283.957 157.846 284.294C159.045 285.193 159.996 286.702 161.072 287.779C163.86 290.568 166.144 293.957 168.627 297.016C170.056 298.775 171.743 300.329 173.043 302.196C174.477 304.258 175.832 306.377 177.287 308.424C178.784 310.53 180.161 312.724 181.645 314.842C183.247 317.128 185.065 319.025 186.212 321.622C188.063 325.811 191.177 331.52 189.219 336.191C188.538 337.817 187.953 339.149 186.155 339.772C184.526 340.336 182.991 340.616 181.264 340.591C176.278 340.517 171.21 337.947 166.896 335.734C162.706 333.586 159.232 330.236 155.934 326.935Z" fill="#EF9169"/>
<path d="M145.013 294.667C146.73 298.034 149.516 301.072 151.766 304.139C153.372 306.328 155.023 308.555 156.761 310.642C159.69 314.159 162.05 317.709 165.773 320.441C167.363 321.608 168.779 323.325 170.645 324.098C171.117 324.293 173.327 325.354 172.567 325.164M136.769 304.767C142.638 312.442 149.081 320.078 155.934 326.935C159.232 330.236 162.706 333.586 166.896 335.734C171.21 337.947 176.278 340.517 181.264 340.591C182.991 340.616 184.526 340.336 186.155 339.772C187.953 339.149 188.538 337.817 189.219 336.191C191.177 331.52 188.063 325.811 186.212 321.622C185.065 319.025 183.247 317.128 181.645 314.842C180.161 312.724 178.784 310.53 177.287 308.424C175.832 306.377 174.477 304.258 173.043 302.196C171.743 300.329 170.056 298.775 168.627 297.016C166.144 293.957 163.86 290.568 161.072 287.779C159.996 286.702 159.045 285.193 157.846 284.294C157.398 283.957 156.002 282.189 155.534 282.322C154.745 282.548 137.287 304.168 136.769 304.767Z" stroke="#6D48F2" stroke-width="5" stroke-linecap="round"/>
<path fill-rule="evenodd" clip-rule="evenodd" d="M124.338 319.029V319.029L124.183 319.107L124.181 319.108L124.183 319.107C124.235 319.081 124.286 319.055 124.338 319.029Z" fill="#AFED3A"/>
<path fill-rule="evenodd" clip-rule="evenodd" d="M124.338 319.029V319.029L124.183 319.107L124.181 319.108L124.183 319.107C124.235 319.081 124.286 319.055 124.338 319.029Z" fill="#6D48F2"/>
<path d="M98.3593 242.463C95.1369 250.57 91.2353 259.005 89.6569 267.64C89.1021 270.675 88.4155 273.765 87.714 276.887C87.6673 277.095 87.6204 277.304 87.5736 277.512C87.063 279.783 86.5488 282.07 86.0758 284.365C92.3932 284.18 98.1489 286.364 103.261 290.032C105.919 291.939 108.361 293.961 110.47 296.471C110.828 296.898 111.174 297.334 111.518 297.772C111.541 297.801 111.564 297.83 111.586 297.859L111.587 297.86C111.618 297.899 111.649 297.938 111.68 297.978C112.142 298.565 112.606 299.15 113.1 299.709C115.852 302.818 117.732 306.293 119.545 309.976C119.769 310.43 120.237 311.211 120.794 312.138C122.204 314.489 124.181 317.782 124.181 319.108L124.183 319.107L124.338 319.029C128.344 317.006 131.472 315.076 135.127 312.986C140.244 310.059 142.416 309.174 147.131 305.566L147.726 305.111L147.726 305.11L147.727 305.11C151.198 302.454 153.549 300.656 157.119 297.655C160.063 295.181 162.382 292.714 165.04 289.951C168.959 285.879 173.464 281.577 176.79 276.945C180.75 271.432 184.651 266.625 188.377 260.923C196.033 249.204 202.347 236.419 208.701 223.929C210.578 220.239 213.235 216.4 214.651 212.504C215.622 209.833 217.371 206.368 219.17 204.167C223.753 198.562 226.888 191.028 230.122 184.554C234.716 175.36 239.094 166.036 243.25 156.624C244.061 154.787 244.686 152.879 245.481 151.06C245.858 150.197 246.86 149.157 247.062 148.25C247.113 148.019 245.815 148.369 245.593 148.399C244.354 148.564 243.117 148.927 241.874 149.124C239.061 149.571 235.716 150.444 233.19 151.748C229.546 153.63 225.489 154.121 221.717 155.563C212.697 159.011 203.459 161.556 194.587 165.462C189.807 167.567 184.917 169.404 180.102 171.417C177.67 172.434 173.843 173.13 172.664 175.827C172.155 176.992 172.478 173.381 172.478 172.701V167.174C172.478 161.752 172.23 156.346 172.143 150.948C172.032 144.013 172.478 137.121 172.478 130.2C172.478 129.099 173.167 124.863 172.404 124.003C172.335 123.926 170.813 125.191 170.637 125.269C168.741 126.112 166.747 128.362 165.319 129.791C161.868 133.245 158.904 137.838 155.929 141.718C148.751 151.08 141.106 160.108 135.437 170.524C126.637 186.694 116.707 202.17 108.754 218.812C105.007 226.651 101.567 234.393 98.3593 242.463Z" fill="#AFED3A"/>
<path fill-rule="evenodd" clip-rule="evenodd" d="M111.518 297.772C111.541 297.801 111.564 297.83 111.586 297.859L111.587 297.86C111.564 297.831 111.541 297.801 111.518 297.772Z" fill="#AFED3A"/>
<path d="M84.1901 305.582C84.6937 311.07 86.934 316.002 90.1776 320.45C94.5224 323.939 99.1059 323.939 99.8186 323.939C100.566 323.939 101.91 323.864 103.311 323.783L103.592 323.766C105.139 323.677 106.71 323.586 107.586 323.586C110.198 323.586 113.027 322.836 115.724 322.121C117.188 321.732 118.613 321.354 119.944 321.112C121.482 320.428 122.878 319.763 124.181 319.108C124.181 317.782 122.204 314.489 120.794 312.138C120.237 311.211 119.769 310.43 119.545 309.976C117.732 306.293 115.852 302.818 113.1 299.709C112.606 299.15 112.142 298.565 111.68 297.978L111.587 297.86L111.586 297.859L111.518 297.772C111.174 297.334 110.828 296.898 110.47 296.471C108.361 293.961 105.919 291.939 103.261 290.032C98.1489 286.364 92.3932 284.18 86.0758 284.365L86.0459 284.511C84.6021 291.543 83.5537 298.648 84.1901 305.582Z" fill="#6D48F2"/>
<path d="M119.944 321.112C121.482 320.428 122.878 319.763 124.181 319.108M119.944 321.112C118.613 321.354 117.188 321.732 115.724 322.121C113.027 322.836 110.198 323.586 107.586 323.586C106.71 323.586 105.139 323.677 103.592 323.766M119.944 321.112C121.483 320.428 122.88 319.762 124.183 319.107M86.0758 284.365C92.3932 284.18 98.1489 286.364 103.261 290.032C105.919 291.939 108.361 293.961 110.47 296.471C110.828 296.898 111.174 297.334 111.518 297.772M86.0758 284.365C86.0658 284.414 86.0558 284.462 86.0459 284.511M86.0758 284.365C86.5488 282.07 87.063 279.783 87.5736 277.512M86.0758 284.365L86.0459 284.511M124.181 319.108C124.181 317.782 122.204 314.489 120.794 312.138C120.237 311.211 119.769 310.43 119.545 309.976C117.732 306.293 115.852 302.818 113.1 299.709C112.606 299.15 112.142 298.565 111.68 297.978M124.181 319.108L124.183 319.107M124.181 319.108L124.183 319.107M111.587 297.86V297.86ZM111.587 297.86L111.586 297.859M111.587 297.86C111.564 297.831 111.541 297.801 111.518 297.772M111.587 297.86C111.618 297.899 111.649 297.938 111.68 297.978M111.587 297.86L111.68 297.978M103.592 323.766C103.498 323.772 103.404 323.777 103.311 323.783M103.592 323.766L103.311 323.783M103.311 323.783C101.91 323.864 100.566 323.939 99.8186 323.939C99.1059 323.939 94.5224 323.939 90.1776 320.45C86.934 316.002 84.6937 311.07 84.1901 305.582C83.5537 298.648 84.6021 291.543 86.0459 284.511M86.0459 284.511C86.5271 282.167 87.0523 279.831 87.5736 277.512M124.338 319.029V319.029ZM124.338 319.029C128.344 317.006 131.472 315.076 135.127 312.986C140.244 310.059 142.416 309.174 147.131 305.566L147.726 305.111L147.726 305.11L147.727 305.11C151.198 302.454 153.549 300.656 157.119 297.655C160.063 295.181 162.382 292.714 165.04 289.951C168.959 285.879 173.464 281.577 176.79 276.945C180.75 271.432 184.651 266.625 188.377 260.923C196.033 249.204 202.347 236.419 208.701 223.929C210.578 220.239 213.235 216.4 214.651 212.504C215.622 209.833 217.371 206.368 219.17 204.167C223.753 198.562 226.888 191.028 230.122 184.554C234.716 175.36 239.094 166.036 243.25 156.624C244.061 154.787 244.686 152.879 245.481 151.06C245.858 150.197 246.86 149.157 247.062 148.25C247.113 148.019 245.815 148.369 245.593 148.399C244.354 148.564 243.117 148.927 241.874 149.124C239.061 149.571 235.716 150.444 233.19 151.748C229.546 153.63 225.489 154.121 221.717 155.563C212.697 159.011 203.459 161.556 194.587 165.462C189.807 167.567 184.917 169.404 180.102 171.417C177.67 172.434 173.843 173.13 172.664 175.827C172.155 176.992 172.478 173.381 172.478 172.701V167.174C172.478 161.752 172.23 156.346 172.143 150.948C172.032 144.013 172.478 137.121 172.478 130.2C172.478 129.099 173.167 124.863 172.404 124.003C172.335 123.926 170.813 125.191 170.637 125.269C168.741 126.112 166.747 128.362 165.319 129.791C161.868 133.245 158.904 137.838 155.929 141.718C148.751 151.08 141.106 160.108 135.437 170.524C126.637 186.694 116.707 202.17 108.754 218.812C105.007 226.651 101.567 234.393 98.3593 242.463C95.1369 250.57 91.2353 259.005 89.6569 267.64C89.1021 270.675 88.4155 273.765 87.714 276.887C87.6673 277.095 87.6204 277.304 87.5736 277.512M124.338 319.029L124.183 319.107M124.338 319.029C124.286 319.055 124.235 319.081 124.183 319.107M111.518 297.772C111.541 297.801 111.564 297.83 111.586 297.859M111.518 297.772L111.586 297.859" stroke="#6D48F2" stroke-width="5" stroke-linecap="round"/>
<path fill-rule="evenodd" clip-rule="evenodd" d="M152.079 250.414C150.309 256.805 156.771 262.77 161.607 265.992C163.584 267.308 167.083 269.44 170.639 270.899C170.131 270.632 170.126 269.731 170.123 269.018C170.121 268.76 170.12 268.527 170.095 268.356C169.689 265.574 169.948 262.972 170.751 260.281C171.813 256.719 173.465 253.512 175.462 250.407C176.219 249.23 177.032 248.085 177.844 246.943C177.975 246.759 178.106 246.574 178.237 246.39C178.323 246.269 180.591 243.394 180.847 243.369C177.439 241.753 173.349 240.892 170.112 240.892C169.422 240.892 168.82 240.878 168.262 240.865C166.116 240.815 164.617 240.781 161.254 241.612C160.911 241.795 160.454 241.872 159.917 241.962C157.851 242.31 154.597 242.857 152.079 250.414Z" fill="white"/>
<path d="M173.298 271.844C176.95 272.919 180.965 273.258 184.761 272.933C187.701 272.68 192.249 271.629 193.098 268.353C193.711 265.987 193.579 262.966 193.369 260.555C192.932 255.517 188.641 249.693 185.214 246.303C184.053 245.154 182.543 244.175 180.867 243.379C180.861 243.375 180.854 243.372 180.847 243.369C180.591 243.394 178.323 246.269 178.237 246.39C178.106 246.574 177.975 246.759 177.844 246.943C177.032 248.085 176.219 249.23 175.462 250.407C173.465 253.512 171.813 256.719 170.751 260.281C169.948 262.972 169.689 265.574 170.095 268.356C170.12 268.527 170.121 268.76 170.123 269.018C170.126 269.731 170.131 270.632 170.639 270.899C171.53 271.264 172.424 271.587 173.298 271.844Z" fill="#6D48F2"/>
<path fill-rule="evenodd" clip-rule="evenodd" d="M129.824 218.292C124.836 214.303 120.422 211.784 113.099 211.784C109.285 211.784 105.201 213.118 102.12 215.32C97.2958 218.768 100.009 225.623 101.893 229.829C104.224 235.032 108.575 238.798 113.326 241.769C114.627 242.582 116.17 243.391 117.825 244.055C117.479 243.7 117.302 242.73 117.173 242.026C117.14 241.846 117.11 241.684 117.082 241.554C116.629 239.483 116.251 237.318 116.651 235.209C117.283 231.87 119.071 228.508 120.926 225.699C122.306 223.609 124.201 221.392 126.436 220.149C126.54 220.091 126.753 219.959 127.024 219.791C127.914 219.237 129.435 218.292 129.824 218.292Z" fill="white"/>
<path d="M134.409 222.121C132.775 220.738 131.275 219.452 129.824 218.292C129.435 218.292 127.914 219.237 127.024 219.791C126.753 219.959 126.54 220.091 126.436 220.149C124.201 221.392 122.306 223.609 120.926 225.699C119.071 228.508 117.283 231.87 116.651 235.209C116.251 237.318 116.629 239.483 117.082 241.554C117.11 241.684 117.14 241.846 117.173 242.026C117.302 242.73 117.479 243.7 117.825 244.055C121.533 245.543 125.8 246.311 129.153 244.807C133.76 242.74 138.299 238.918 139.091 233.638C139.584 230.347 139.698 228.061 137.598 225.358C136.778 224.303 135.728 223.238 134.409 222.121Z" fill="#6D48F2"/>
<path d="M134.409 222.121C127.159 215.983 122.553 211.784 113.099 211.784M134.409 222.121C135.728 223.238 136.778 224.303 137.598 225.358C139.698 228.061 139.584 230.347 139.091 233.638C138.299 238.918 133.76 242.74 129.153 244.807M134.409 222.121C132.775 220.738 131.275 219.452 129.824 218.292M113.099 211.784C109.285 211.784 105.201 213.118 102.12 215.32C97.2958 218.768 100.009 225.623 101.893 229.829C104.224 235.032 108.575 238.798 113.326 241.769M113.099 211.784C120.422 211.784 124.836 214.303 129.824 218.292M113.326 241.769C117.54 244.405 124.303 246.983 129.153 244.807M113.326 241.769C114.627 242.582 116.17 243.391 117.825 244.055M129.153 244.807C125.8 246.311 121.533 245.543 117.825 244.055M185.214 246.303C188.641 249.693 192.932 255.517 193.369 260.555C193.579 262.966 193.711 265.987 193.098 268.353C192.249 271.629 187.701 272.68 184.761 272.933C180.965 273.258 176.95 272.919 173.298 271.844C172.424 271.587 171.53 271.264 170.639 270.899M185.214 246.303C184.048 245.149 182.531 244.167 180.847 243.369M185.214 246.303C184.053 245.154 182.543 244.175 180.867 243.379M117.825 244.055C117.479 243.7 117.302 242.73 117.173 242.026C117.14 241.846 117.11 241.684 117.082 241.554C116.629 239.483 116.251 237.318 116.651 235.209C117.283 231.87 119.071 228.508 120.926 225.699C122.306 223.609 124.201 221.392 126.436 220.149C126.54 220.091 126.753 219.959 127.024 219.791C127.914 219.237 129.435 218.292 129.824 218.292M170.751 270.944C170.711 270.932 170.674 270.917 170.639 270.899M180.867 243.379C180.864 243.371 180.857 243.368 180.847 243.369M180.867 243.379C180.861 243.375 180.854 243.372 180.847 243.369M170.639 270.899C167.083 269.44 163.584 267.308 161.607 265.992C156.771 262.77 150.309 256.805 152.079 250.414C154.597 242.857 157.851 242.31 159.917 241.962C160.454 241.872 160.911 241.795 161.254 241.612C164.617 240.781 166.116 240.815 168.262 240.865C168.82 240.878 169.422 240.892 170.112 240.892C173.349 240.892 177.439 241.753 180.847 243.369M170.639 270.899C170.131 270.632 170.126 269.731 170.123 269.018C170.121 268.76 170.12 268.527 170.095 268.356C169.689 265.574 169.948 262.972 170.751 260.281C171.813 256.719 173.465 253.512 175.462 250.407C176.219 249.23 177.032 248.085 177.844 246.943C177.975 246.759 178.106 246.574 178.237 246.39C178.323 246.269 180.591 243.394 180.847 243.369" stroke="#6D48F2" stroke-width="5" stroke-linecap="round"/>
<path d="M267.706 262.935C270.58 263.913 285.37 266.469 285.37 262.213M271.311 281.333C274.204 285.178 277.252 288.936 280.443 292.537C281.098 293.276 281.044 293.153 281.044 292.517M360.354 292.517C362.264 293.154 364.07 293.591 366.082 293.92C367.113 294.088 376.099 295.275 375.855 295.764M362.156 308.751C366.536 314.595 377.317 333.683 374.053 327.15M438.942 410.124C439.53 415.526 439.922 420.945 440.384 426.358M424.162 415.896C423.621 419.383 421.819 423.291 419.295 425.817C418.778 426.334 418.033 427.813 418.033 426.719M322.501 318.491C323.926 322.394 325.009 326.342 325.746 330.397M132.159 197.998C136.621 196.407 143.901 197.805 147.42 201.165C148.028 201.746 148.6 202.83 148.021 203.41M175.058 219.283C178.623 218.299 180.658 220.053 183.73 222.109C186.033 223.65 189.53 225.447 190.279 228.382C190.448 229.044 191.28 230.45 191.28 229.023" stroke="#6D48F2" stroke-width="5" stroke-linecap="round"/>
</g>
<defs>
<clipPath id="clip0_935_15771">
<rect width="344" height="496" fill="white"/>
</clipPath>
</defs>
</svg>
