<svg width="24" height="32" viewBox="0 0 24 32" fill="none" xmlns="http://www.w3.org/2000/svg">
<path d="M4 0H15V2H4C3.46957 2 2.96086 2.21071 2.58579 2.58579C2.21071 2.96086 2 3.46957 2 4V28C2 28.5304 2.21071 29.0391 2.58579 29.4142C2.96086 29.7893 3.46957 30 4 30H20C20.5304 30 21.0391 29.7893 21.4142 29.4142C21.7893 29.0391 22 28.5304 22 28V9H24V28C24 29.0609 23.5786 30.0783 22.8284 30.8284C22.0783 31.5786 21.0609 32 20 32H4C2.93913 32 1.92172 31.5786 1.17157 30.8284C0.421427 30.0783 0 29.0609 0 28V4C0 2.93913 0.421427 1.92172 1.17157 1.17157C1.92172 0.421427 2.93913 0 4 0Z" fill="#A29DB5"/>
<path d="M15 6V0L24 9H18C17.2044 9 16.4413 8.68393 15.8787 8.12132C15.3161 7.55871 15 6.79565 15 6Z" fill="#A29DB5"/>
<path fill-rule="evenodd" clip-rule="evenodd" d="M6 23C6 22.7348 6.10536 22.4804 6.29289 22.2929C6.48043 22.1054 6.73478 22 7 22H11C11.2652 22 11.5196 22.1054 11.7071 22.2929C11.8946 22.4804 12 22.7348 12 23C12 23.2652 11.8946 23.5196 11.7071 23.7071C11.5196 23.8946 11.2652 24 11 24H7C6.73478 24 6.48043 23.8946 6.29289 23.7071C6.10536 23.5196 6 23.2652 6 23ZM6 19C6 18.7348 6.10536 18.4804 6.29289 18.2929C6.48043 18.1054 6.73478 18 7 18H17C17.2652 18 17.5196 18.1054 17.7071 18.2929C17.8946 18.4804 18 18.7348 18 19C18 19.2652 17.8946 19.5196 17.7071 19.7071C17.5196 19.8946 17.2652 20 17 20H7C6.73478 20 6.48043 19.8946 6.29289 19.7071C6.10536 19.5196 6 19.2652 6 19ZM6 15C6 14.7348 6.10536 14.4804 6.29289 14.2929C6.48043 14.1054 6.73478 14 7 14H17C17.2652 14 17.5196 14.1054 17.7071 14.2929C17.8946 14.4804 18 14.7348 18 15C18 15.2652 17.8946 15.5196 17.7071 15.7071C17.5196 15.8946 17.2652 16 17 16H7C6.73478 16 6.48043 15.8946 6.29289 15.7071C6.10536 15.5196 6 15.2652 6 15Z" fill="#A29DB5"/>
</svg>
