<svg width="813" height="304" viewBox="0 0 813 304" fill="none" xmlns="http://www.w3.org/2000/svg">
<path d="M235.09 182.938C440.751 235.707 548.939 246.728 730.997 238.19" stroke="#6D48F1" stroke-width="4"/>
<path d="M115.033 36.277C106.119 40.8742 96.8308 33.2466 96.6173 35.595C96.0372 41.9758 126.039 66.6088 145.518 69.2217C134.134 48.5553 152.552 43.7802 160.055 42.4161C167.558 41.0521 170.023 27.8776 173.697 28.7735C177.372 29.6695 188.336 30.0529 190.749 21.0819C187.589 14.4258 180.519 6.2633 177.108 4.89905C177.016 4.84742 171.742 2.90335 171.65 2.85253C164.829 1.4884 160.736 2.17058 155.279 2.17052C138.226 4.21697 127.259 23.5957 124.216 27.8899C121.172 32.1842 119.793 33.8225 115.033 36.277Z" fill="#341A8F"/>
<path d="M158.689 71.7477C154.035 71.7477 149.59 70.8513 145.518 69.2217C145.518 69.2217 135.497 73.7941 134.815 79.9332C134.133 86.0723 97.2978 77.2047 85.0195 99.7149C74.9212 118.228 89.7393 133.973 95.3197 138.981L97.2986 140.643C97.2986 140.643 96.5244 140.062 95.3197 138.981C94.0635 146.264 95.0087 153.263 99.3449 159.168C102.748 163.802 108.241 167.762 116.398 170.656C116.398 170.656 128.201 173.875 143.001 172.285C166.531 141.496 155.28 87.4366 155.28 86.0723C155.28 84.7081 162.376 77.2515 163.465 71.4288C161.903 71.6391 160.309 71.7477 158.689 71.7477Z" fill="#8464F5"/>
<path d="M183.928 126.318C183.246 103.126 166.193 87.4366 167.557 83.3438C168.922 79.2511 170.841 75.1298 170.286 69.8086C168.101 70.564 165.82 71.1119 163.465 71.4288C162.376 77.2515 155.28 84.7081 155.28 86.0723C155.28 87.4366 166.531 141.496 143.001 172.285C148.64 171.678 154.714 170.374 160.736 167.928C169.769 164.258 175.414 160.471 178.881 155.649C183.79 148.82 184.328 139.912 183.928 126.318Z" fill="#8464F5"/>
<path d="M167.557 83.3438C166.193 87.4366 183.246 103.126 183.928 126.318C184.328 139.912 183.79 148.82 178.881 155.649C178.881 155.649 190.75 176.795 196.207 180.206C201.664 183.617 203.71 180.206 205.757 180.206C207.803 180.206 211.213 186.345 213.26 187.027C213.75 187.191 214.746 186.846 215.989 186.2C219.942 184.145 226.383 179.035 226.903 177.478C227.585 175.431 222.81 172.021 223.492 170.656C224.174 169.292 224.856 167.246 224.856 163.153C224.857 159.06 167.557 83.3438 167.557 83.3438Z" fill="#8464F5"/>
<path d="M161.419 178.16C164.147 176.113 160.736 167.928 160.736 167.928C154.714 170.374 148.64 171.678 143.001 172.285C128.201 173.875 116.398 170.656 116.398 170.656C108.241 167.762 102.748 163.802 99.3449 159.168C99.3449 159.168 91.1594 166.564 95.2522 171.338C96.0214 172.236 97.2727 173.158 98.8474 174.067C105.65 177.996 118.491 181.699 124.584 182.252C125.895 182.372 129.838 182.32 132.087 182.252C139.387 182.034 148.368 181.015 155.28 179.809C158.423 179.261 160.715 178.688 161.419 178.16Z" fill="#8464F5"/>
<path d="M132.087 182.252C129.838 182.32 125.895 182.372 124.584 182.252C118.491 181.699 105.65 177.996 98.8474 174.067C98.8474 174.067 76.8345 218.405 73.424 220.452C70.0136 222.498 44.0925 204.081 38.6355 207.491C37.6064 208.134 36.4075 209.602 35.1532 211.584C30.9666 218.198 26.1624 230.535 24.9929 237.028C24.6547 238.906 24.6205 240.295 24.9929 240.916C27.0393 244.326 74.7868 256.605 85.0195 251.83C92.4005 248.385 115.287 214.253 125.948 195.213C130.067 187.857 132.087 182.252 132.087 182.252Z" fill="#341A8F"/>
<path d="M155.28 179.809C148.368 181.015 139.387 182.034 132.087 182.252C132.087 182.252 130.067 187.857 125.948 195.213C125.948 195.213 169.604 296.168 175.061 296.168C176.344 296.168 178.853 295.033 181.883 293.28C187.487 290.037 194.874 284.68 199.581 280.479C203.157 277.288 205.185 274.763 203.711 274.34C199.246 273.058 145.004 182.241 155.28 179.809Z" fill="#341A8F"/>
<path d="M228.268 280.479C228.95 276.386 199.581 280.479 199.581 280.479C194.874 284.68 187.487 290.037 181.883 293.28C181.883 293.28 183.247 301.625 186.658 301.625C190.068 301.625 227.585 284.572 228.268 280.479Z" fill="#8464F5"/>
<path d="M35.1532 211.584C35.1532 211.584 28.4028 204.763 24.9929 205.445C21.583 206.127 -1.61027 255.24 2.4825 255.24C6.57527 255.24 24.9929 237.028 24.9929 237.028C26.1624 230.535 30.9666 218.198 35.1532 211.584Z" fill="#8464F5"/>
<path d="M226.903 177.478C226.383 179.035 219.942 184.145 215.989 186.2C215.989 186.2 221.445 196.577 224.856 199.988C228.268 203.398 237.135 198.624 237.135 198.624C237.135 198.624 239.864 194.531 237.817 192.484C235.771 190.438 229.632 189.756 228.268 189.074C226.903 188.392 231.142 176.795 231.142 176.795C228.65 177.16 226.903 177.478 226.903 177.478Z" fill="#F9E4DB"/>
<path d="M237.817 192.484C239.864 194.531 237.135 198.624 237.135 198.624C237.135 198.624 240.546 201.352 246.685 201.352C252.824 201.352 256.235 196.577 256.235 193.167C256.235 189.756 251.46 177.478 246.685 176.113C239.175 182.686 239.321 186.178 237.817 192.484Z" fill="#F9E4DB"/>
<path d="M228.268 189.074C229.632 189.756 235.771 190.438 237.817 192.484C239.321 186.178 239.175 182.686 246.685 176.113C243.54 175.215 235.954 176.092 231.142 176.795C231.142 176.795 226.903 188.392 228.268 189.074Z" fill="#6D48F2"/>
<path d="M145.518 69.2217C149.59 70.8513 154.035 71.7477 158.689 71.7477C160.309 71.7477 161.903 71.6391 163.465 71.4288C165.82 71.1119 168.101 70.564 170.286 69.8086C171.61 69.3507 172.898 68.8167 174.146 68.2116C177.801 66.4392 181.106 64.0577 183.929 61.199C183.929 61.199 194.276 58.1242 194.16 58.6167C194.043 59.1092 190.028 49.1985 191.977 48.5553C193.389 44.7294 194.16 40.5932 194.16 36.277C194.16 30.8394 192.936 25.6876 190.749 21.0819C188.336 30.0529 177.372 29.6695 173.697 28.7735C170.023 27.8776 167.558 41.0521 160.055 42.4161C152.552 43.7802 134.134 48.5553 145.518 69.2217Z" fill="#F9E4DB"/>
<path d="M171.65 2.85253C164.829 1.4884 160.736 2.17058 155.279 2.17052C138.226 4.21697 127.259 23.5957 124.216 27.8899C121.172 32.1842 119.793 33.8225 115.033 36.277C106.119 40.8742 96.8308 33.2466 96.6173 35.595C96.0372 41.9759 126.039 66.6088 145.518 69.2217M171.65 2.85253C171.742 2.90335 177.016 4.84742 177.108 4.89905M171.65 2.85253C171.748 2.88391 177.021 4.82827 177.108 4.89905M177.108 4.89905C180.519 6.2633 187.589 14.4258 190.749 21.0819M145.518 69.2217C149.59 70.8513 154.035 71.7477 158.689 71.7477C160.309 71.7477 161.903 71.6391 163.465 71.4288M145.518 69.2217C134.134 48.5553 152.552 43.7802 160.055 42.4161C167.558 41.0521 170.023 27.8776 173.697 28.7735C177.372 29.6695 188.336 30.0529 190.749 21.0819M145.518 69.2217C145.518 69.2217 135.497 73.7941 134.815 79.9332C134.133 86.0723 97.2978 77.2047 85.0195 99.7149C74.9212 118.228 89.7393 133.973 95.3197 138.981M190.749 21.0819C192.936 25.6876 194.16 30.8394 194.16 36.277C194.16 40.5932 193.389 44.7294 191.977 48.5553C190.028 49.1985 194.043 59.1092 194.16 58.6167C194.276 58.1242 183.929 61.199 183.929 61.199M97.2986 140.643C97.2986 140.643 103.437 146.782 107.53 150.192C111.623 153.603 122.537 154.285 130.04 144.053C137.544 133.821 132.769 125.636 130.04 122.225C127.312 118.815 108.895 113.357 109.495 109.947C110.096 106.536 117.08 103.126 123.219 100.397M97.2986 140.643C97.2986 140.643 96.5244 140.062 95.3197 138.981M97.2986 140.643L95.3197 138.981M160.736 167.928C169.769 164.258 175.414 160.471 178.881 155.649M160.736 167.928C160.736 167.928 164.147 176.113 161.419 178.16C160.715 178.688 158.423 179.261 155.28 179.809M160.736 167.928C154.714 170.374 148.64 171.678 143.001 172.285M167.557 83.3438C166.193 87.4366 183.246 103.126 183.928 126.318C184.328 139.912 183.79 148.82 178.881 155.649M167.557 83.3438C168.922 79.2511 170.841 75.1298 170.286 69.8086M167.557 83.3438C167.557 83.3438 224.857 159.06 224.856 163.153C224.856 167.246 224.174 169.292 223.492 170.656C222.81 172.021 227.585 175.431 226.903 177.478M170.286 69.8086C168.101 70.564 165.82 71.1119 163.465 71.4288M170.286 69.8086C175.489 68.0094 180.143 65.0335 183.929 61.199M170.286 69.8086C171.61 69.3507 172.898 68.8167 174.146 68.2116M226.903 177.478C226.383 179.035 219.942 184.145 215.989 186.2M226.903 177.478C226.903 177.478 228.65 177.16 231.142 176.795M178.881 155.649C178.881 155.649 190.75 176.795 196.207 180.206C201.664 183.617 203.71 180.206 205.757 180.206C207.803 180.206 211.213 186.345 213.26 187.027C213.75 187.191 214.746 186.846 215.989 186.2M95.3197 138.981C94.0635 146.264 95.0087 153.263 99.3449 159.168M99.3449 159.168C102.748 163.802 108.241 167.762 116.398 170.656C116.398 170.656 128.201 173.875 143.001 172.285M99.3449 159.168C99.3449 159.168 91.1594 166.564 95.2522 171.338C96.0214 172.236 97.2727 173.157 98.8474 174.067M132.087 182.252C129.838 182.32 125.895 182.372 124.584 182.252C118.491 181.699 105.65 177.996 98.8474 174.067M132.087 182.252C139.387 182.034 148.368 181.015 155.28 179.809M132.087 182.252C132.087 182.252 130.067 187.857 125.948 195.213M98.8474 174.067C98.8474 174.067 76.8345 218.405 73.4241 220.452C70.0136 222.498 44.0925 204.081 38.6355 207.491C37.6064 208.134 36.4075 209.602 35.1532 211.584M35.1532 211.584C35.1532 211.584 28.4028 204.763 24.9929 205.445C21.583 206.127 -1.61027 255.24 2.4825 255.24C6.57527 255.24 24.9929 237.028 24.9929 237.028M35.1532 211.584C30.9666 218.198 26.1624 230.535 24.9929 237.028M24.9929 237.028C24.6547 238.906 24.6205 240.295 24.9929 240.916C27.0393 244.326 74.7868 256.605 85.0195 251.83C92.4005 248.385 115.287 214.253 125.948 195.213M155.28 179.809C145.004 182.241 199.246 273.058 203.711 274.34C205.185 274.763 203.157 277.288 199.581 280.479M125.948 195.213C125.948 195.213 169.604 296.168 175.061 296.168C176.344 296.168 178.853 295.033 181.883 293.28M199.581 280.479C199.581 280.479 228.95 276.386 228.268 280.479C227.585 284.572 190.068 301.625 186.658 301.625C183.247 301.625 181.883 293.28 181.883 293.28M199.581 280.479C194.874 284.68 187.487 290.037 181.883 293.28M215.989 186.2C215.989 186.2 221.445 196.577 224.856 199.988C228.268 203.398 237.135 198.624 237.135 198.624M237.135 198.624C237.135 198.624 239.864 194.531 237.817 192.484M237.135 198.624C237.135 198.624 240.546 201.352 246.685 201.352C252.824 201.352 256.235 196.577 256.235 193.167C256.235 189.756 251.46 177.478 246.685 176.113M237.817 192.484C235.771 190.438 229.632 189.756 228.268 189.074C226.903 188.392 231.142 176.795 231.142 176.795M237.817 192.484C239.321 186.178 239.175 182.686 246.685 176.113M246.685 176.113C243.54 175.215 235.954 176.092 231.142 176.795M143.001 172.285C166.531 141.496 155.28 87.4366 155.28 86.0724C155.28 84.7081 162.376 77.2515 163.465 71.4288M174.146 68.2116C174.146 68.2116 171.651 66.9727 170.287 65.6085C168.922 64.2442 167.558 60.8336 167.558 60.8336M174.146 68.2116C177.801 66.4392 181.106 64.0577 183.929 61.199" stroke="#6D48F1" stroke-width="4" stroke-linecap="round"/>
<path d="M731.682 236.823C731.682 236.823 692.118 221.816 688.708 224.545C685.297 227.273 699.517 236.891 696.893 236.141C692.118 234.777 673.019 223.863 667.562 223.18C662.105 222.498 675.747 236.141 670.29 235.459C663.469 231.366 653.237 226.591 643.005 226.591C632.773 226.591 657.33 236.823 653.919 236.823C649.144 237.505 626.634 239.552 623.223 236.823C619.813 234.095 587.753 192.485 585.706 202.035C583.66 211.584 619.131 253.194 623.223 260.698C627.316 268.201 608.217 288.665 608.217 298.897C608.217 309.129 651.191 267.519 653.919 265.473C656.648 263.426 718.721 262.744 724.178 265.473C729.635 268.201 777.384 309.811 771.927 296.168C766.47 282.526 756.921 270.93 757.603 268.201C758.285 265.473 797.848 293.44 797.848 286.619C797.848 279.797 752.146 249.101 752.146 249.101L749.753 247.005C743.627 244.086 737.477 240.664 731.682 236.823Z" fill="#AFED3A"/>
<path d="M715.993 180.889C713.947 182.253 734.41 213.631 731.682 212.949C728.953 212.267 695.529 199.306 694.165 202.035C692.801 204.763 731.682 236.823 731.682 236.823C737.477 240.664 743.627 244.086 749.753 247.005C761.242 252.48 772.648 256.19 781.477 257.589C778.783 248.603 779.931 244.726 789.089 240.916C788.614 240.415 788.122 239.906 787.616 239.388C786.591 238.338 785.505 237.254 784.367 236.141C783.226 235.026 782.033 233.882 780.795 232.716C757.212 210.488 717.412 179.943 715.993 180.889Z" fill="#AFED3A"/>
<path d="M781.477 257.589C790.637 259.041 797.022 258.006 797.848 253.876C798.29 251.667 794.821 246.947 789.089 240.916C779.931 244.726 778.783 248.603 781.477 257.589Z" fill="#6D48F1"/>
<path d="M790.345 227.955C786.934 229.32 780.795 232.716 780.795 232.716C782.033 233.882 783.226 235.026 784.367 236.141C785.505 237.254 786.591 238.338 787.616 239.388C787.616 239.388 788.981 238.187 791.027 238.187C793.073 238.187 801.941 238.187 804.67 237.505C807.398 236.823 808.762 235.459 810.127 232.716C811.491 229.972 809.445 227.955 806.716 226.591C803.988 225.227 793.756 226.591 790.345 227.955Z" fill="#EF9169"/>
<path d="M731.682 236.823C731.682 236.823 692.801 204.763 694.165 202.035C695.529 199.306 728.953 212.267 731.682 212.949C734.41 213.631 713.947 182.253 715.993 180.889C717.412 179.943 757.212 210.488 780.795 232.716M731.682 236.823C731.682 236.823 692.118 221.816 688.708 224.545C685.297 227.273 699.517 236.891 696.893 236.141C692.118 234.777 673.019 223.863 667.562 223.18C662.105 222.498 675.747 236.141 670.29 235.459C663.469 231.366 653.237 226.591 643.005 226.591C632.773 226.591 657.33 236.823 653.919 236.823C649.144 237.505 626.634 239.552 623.223 236.823C619.813 234.095 587.753 192.485 585.706 202.035C583.66 211.584 619.131 253.194 623.223 260.698C627.316 268.201 608.217 288.665 608.217 298.897C608.217 309.129 651.191 267.519 653.919 265.473C656.648 263.426 718.721 262.744 724.178 265.473C729.635 268.201 777.384 309.811 771.927 296.168C766.47 282.526 756.921 270.93 757.603 268.201C758.285 265.473 797.848 293.44 797.848 286.619C797.848 279.797 752.146 249.101 752.146 249.101L749.753 247.005M731.682 236.823C737.477 240.664 743.627 244.086 749.753 247.005M749.753 247.005C761.242 252.48 772.648 256.19 781.477 257.589M781.477 257.589C790.637 259.041 797.022 258.006 797.848 253.876C798.29 251.667 794.821 246.947 789.089 240.916M781.477 257.589C778.783 248.603 779.931 244.726 789.089 240.916M789.089 240.916C788.614 240.415 788.122 239.906 787.616 239.388M780.795 232.716C780.795 232.716 786.934 229.32 790.345 227.955C793.756 226.591 803.988 225.227 806.716 226.591C809.445 227.955 811.491 229.972 810.127 232.716C808.762 235.459 807.398 236.823 804.67 237.505C801.941 238.187 793.073 238.187 791.027 238.187C788.981 238.187 787.616 239.388 787.616 239.388M780.795 232.716C782.033 233.882 783.226 235.026 784.367 236.141M787.616 239.388C786.591 238.338 785.505 237.254 784.367 236.141M784.367 236.141C784.367 236.141 790.345 233.412 791.709 232.716C793.073 232.019 796.484 232.048 796.484 232.048" stroke="#6D48F1" stroke-width="4" stroke-linecap="round"/>
<path d="M752.321 238.646C753.552 236.387 755.033 233.54 754.414 230.841C754.101 229.473 752.268 228.789 751.065 228.397C746.507 227.461 742.259 231.119 739.922 233.412C744.697 235.729 746.694 237.701 748.512 242.962C750.05 241.775 751.396 240.345 752.321 238.646Z" fill="white"/>
<path d="M738.759 234.579C736.699 236.64 734.808 238.885 734.049 241.749C733.467 243.949 733.235 246.133 735.522 247.326C738.369 248.811 743.162 246.139 745.593 244.837C746.602 244.296 747.591 243.673 748.512 242.962C746.694 237.701 744.697 235.729 739.922 233.412C739.453 233.872 739.061 234.277 738.759 234.579Z" fill="#6D48F1"/>
<path d="M760.829 211.381C759.215 213.658 757.241 216.938 757.659 219.866C758.071 222.748 760.801 224.001 763.401 223.664C767.758 223.099 771.346 220.558 774.062 217.19C771.266 212.204 768.781 210.476 763.401 208.475C762.325 209.437 761.429 210.438 760.829 211.381Z" fill="#6D48F1"/>
<path d="M774.062 217.19C776.285 214.432 780.615 208.112 777.276 204.66C774.36 201.644 767.543 204.771 763.401 208.475C768.781 210.476 771.266 212.204 774.062 217.19Z" fill="white"/>
<path d="M774.062 217.19C771.346 220.558 767.758 223.099 763.401 223.664C760.801 224.001 758.071 222.748 757.659 219.866C757.241 216.938 759.215 213.658 760.829 211.381C761.429 210.438 762.325 209.437 763.401 208.475M774.062 217.19C776.285 214.432 780.615 208.112 777.276 204.66C774.36 201.644 767.543 204.771 763.401 208.475M774.062 217.19C771.266 212.204 768.781 210.476 763.401 208.475M739.922 233.412C742.259 231.119 746.507 227.461 751.065 228.397C752.268 228.789 754.101 229.473 754.414 230.841C755.033 233.54 753.552 236.387 752.321 238.646C751.396 240.345 750.05 241.775 748.512 242.962M739.922 233.412C739.453 233.872 739.061 234.277 738.759 234.579C736.699 236.64 734.808 238.885 734.049 241.749C733.467 243.949 733.235 246.133 735.522 247.326C738.369 248.811 743.162 246.139 745.593 244.837C746.602 244.296 747.591 243.673 748.512 242.962M739.922 233.412C744.697 235.729 746.694 237.701 748.512 242.962M733.626 228.73C733.626 225.32 735.427 222.732 738.258 221.033M746.933 210.597C746.972 208.578 748.644 206.186 750.448 205.299C751.203 204.928 752.104 204.965 752.912 204.763C753.247 204.679 753.565 204.596 753.912 204.596M705.388 236.985C706.327 238.511 707.103 240.139 708.406 241.442C708.612 241.648 709.499 242.404 709.375 242.342M689.068 243.962C690.964 244.297 692.46 245.78 694.175 246.606C694.364 246.697 695.505 246.952 695.048 246.952M717.971 251.187C719.856 250.667 721.406 251.81 723.203 251.81M648.578 243.588C650.682 244.069 652.796 244.737 654.752 245.679C654.914 245.757 656.061 246.329 655.43 246.329" stroke="#6D48F1" stroke-width="4" stroke-linecap="round"/>
<path d="M185.197 46.9084C185.494 43.7891 184.659 40.8834 182.908 38.3044C182.028 37.0083 180.732 36.2758 179.436 35.4613C173.223 39.4466 172.044 43.0622 172.927 51.3226C174.486 51.9324 176.015 52.0925 177.682 52.0184C178.922 51.9633 180.54 51.8211 181.602 51.1056C183.021 50.1504 184.61 49.2361 185.197 46.9084Z" fill="#6D48F1"/>
<path d="M179.436 35.4613C178.147 34.6508 176.884 33.9652 175.4 33.5796C174.085 33.2381 172.677 32.9126 171.311 32.9025C169.857 32.8919 168.693 33.305 167.368 33.8303C165.569 34.544 164.591 36.4389 164.394 38.3081C164.294 39.2636 164.308 40.2328 164.323 41.1931L164.323 41.2372C164.344 42.6192 165.041 43.9492 165.625 45.1651C167.044 48.1185 169.942 50.1548 172.927 51.3226C172.044 43.0622 173.223 39.4466 179.436 35.4613Z" fill="white"/>
<path d="M179.436 35.4613C180.732 36.2758 182.028 37.0083 182.908 38.3044C184.659 40.8834 185.494 43.7891 185.197 46.9084C184.61 49.2361 183.021 50.1504 181.602 51.1056C180.54 51.8211 178.922 51.9633 177.682 52.0184C176.015 52.0925 174.486 51.9324 172.927 51.3226M179.436 35.4613C178.147 34.6508 176.884 33.9652 175.4 33.5796C174.085 33.2381 172.677 32.9126 171.311 32.9025C169.857 32.8919 168.693 33.305 167.368 33.8303C165.569 34.544 164.591 36.4389 164.394 38.3081C164.294 39.2636 164.308 40.2328 164.323 41.1931M179.436 35.4613C173.223 39.4466 172.044 43.0622 172.927 51.3226M164.323 41.2372C164.344 42.6192 165.041 43.9492 165.625 45.1651C167.044 48.1185 169.942 50.1548 172.927 51.3226M164.323 41.2372L164.323 41.1931M164.323 41.2372C164.323 41.2225 164.323 41.2078 164.323 41.1931" stroke="#6D48F1" stroke-width="4" stroke-linecap="round"/>
<path d="M165.351 102.356C165.946 102.864 170.205 107.076 170.212 106.394C170.224 105.1 170.187 102.457 170.367 101.177C170.405 100.902 170.43 99.8995 170.882 100.334C172.782 102.164 173.866 105.317 174.36 107.797C175.208 112.062 175.462 116.562 173.877 120.693C173.511 121.648 172.635 124.519 171.136 124.269C170.289 124.128 169.873 122.727 169.663 122.068C168.383 118.053 167.716 113.886 166.521 109.851C166.42 109.51 163.899 101.777 164.418 101.75C164.773 101.731 165.118 102.157 165.351 102.356Z" fill="#AFED3A" stroke="#6D48F1" stroke-width="4" stroke-linecap="round"/>
</svg>
