<svg width="17" height="16" viewBox="0 0 17 16" fill="none" xmlns="http://www.w3.org/2000/svg">
<path fill-rule="evenodd" clip-rule="evenodd" d="M0 14.3438C0 14.12 0.0790178 13.9054 0.21967 13.7471C0.360322 13.5889 0.551088 13.5 0.75 13.5H15.75C15.9489 13.5 16.1397 13.5889 16.2803 13.7471C16.421 13.9054 16.5 14.12 16.5 14.3438C16.5 14.5675 16.421 14.7821 16.2803 14.9404C16.1397 15.0986 15.9489 15.1875 15.75 15.1875H0.75C0.551088 15.1875 0.360322 15.0986 0.21967 14.9404C0.0790178 14.7821 0 14.5675 0 14.3438ZM0 7.59375C0 7.36997 0.0790178 7.15536 0.21967 6.99713C0.360322 6.83889 0.551088 6.75 0.75 6.75H15.75C15.9489 6.75 16.1397 6.83889 16.2803 6.99713C16.421 7.15536 16.5 7.36997 16.5 7.59375C16.5 7.81753 16.421 8.03214 16.2803 8.19037C16.1397 8.34861 15.9489 8.4375 15.75 8.4375H0.75C0.551088 8.4375 0.360322 8.34861 0.21967 8.19037C0.0790178 8.03214 0 7.81753 0 7.59375ZM0 0.84375C0 0.619974 0.0790178 0.405363 0.21967 0.247129C0.360322 0.088895 0.551088 0 0.75 0H15.75C15.9489 0 16.1397 0.088895 16.2803 0.247129C16.421 0.405363 16.5 0.619974 16.5 0.84375C16.5 1.06753 16.421 1.28214 16.2803 1.44037C16.1397 1.59861 15.9489 1.6875 15.75 1.6875H0.75C0.551088 1.6875 0.360322 1.59861 0.21967 1.44037C0.0790178 1.28214 0 1.06753 0 0.84375Z" fill="#212137"/>
</svg>
