<svg width="20" height="20" viewBox="0 0 20 20" fill="none" xmlns="http://www.w3.org/2000/svg">
<path d="M0.160156 1.49219C0.0546875 1.33594 0 1.14844 0 0.960938C0 0.429688 0.429688 0 0.960938 0H5.23047C5.66797 0 6.07813 0.230469 6.30078 0.605469L8.97656 5.0625C7.09375 5.30078 5.41016 6.17969 4.15625 7.48047L0.160156 1.49219ZM19.8359 1.49219L15.8438 7.48047C14.5898 6.17969 12.9063 5.30078 11.0234 5.0625L13.6992 0.605469C13.9258 0.230469 14.332 0 14.7695 0H19.0391C19.5703 0 20 0.429688 20 0.960938C20 1.14844 19.9453 1.33594 19.8398 1.49219H19.8359ZM3.125 13.125C3.125 11.3016 3.84933 9.55295 5.13864 8.26364C6.42795 6.97433 8.17664 6.25 10 6.25C11.8234 6.25 13.572 6.97433 14.8614 8.26364C16.1507 9.55295 16.875 11.3016 16.875 13.125C16.875 14.9484 16.1507 16.697 14.8614 17.9864C13.572 19.2757 11.8234 20 10 20C8.17664 20 6.42795 19.2757 5.13864 17.9864C3.84933 16.697 3.125 14.9484 3.125 13.125ZM10.3281 9.41797C10.1953 9.14453 9.80859 9.14453 9.67188 9.41797L8.79687 11.1914C8.74219 11.3008 8.64062 11.375 8.52344 11.3906L6.5625 11.6758C6.26172 11.7187 6.14453 12.0859 6.35938 12.3008L7.77734 13.6836C7.86328 13.7695 7.90234 13.8867 7.88281 14.0078L7.54687 15.957C7.49609 16.2539 7.80859 16.4844 8.07813 16.3437L9.82813 15.4219C9.93359 15.3672 10.0625 15.3672 10.168 15.4219L11.918 16.3437C12.1875 16.4844 12.5 16.2578 12.4492 15.957L12.1133 14.0078C12.0938 13.8906 12.1328 13.7695 12.2187 13.6836L13.6367 12.3008C13.8555 12.0898 13.7344 11.7227 13.4336 11.6758L11.4766 11.3906C11.3594 11.375 11.2539 11.2969 11.2031 11.1914L10.3281 9.41797Z" fill="black"/>
</svg>
