<svg width="21" height="20" viewBox="0 0 21 20" fill="none" xmlns="http://www.w3.org/2000/svg">
<path d="M1.16667 5.29412C1.77187 5.29412 2.26771 5.75735 2.32604 6.34926L2.33698 6.59191C2.39896 7.18382 2.89479 7.64706 3.5 7.64706H10.0297L15.1667 9.86765V18.8235C15.1667 19.4743 14.6453 20 14 20H12.8333C12.188 20 11.6667 19.4743 11.6667 18.8235V13.9963C10.7917 14.4485 9.8 14.7059 8.75 14.7059C7.7 14.7059 6.70833 14.4485 5.83333 13.9963V18.8235C5.83333 19.4743 5.31198 20 4.66667 20H3.5C2.85469 20 2.33333 19.4743 2.33333 18.8235V9.79412C0.973437 9.30882 0 8.00735 0 6.47059C0 5.81985 0.521354 5.29412 1.16667 5.29412ZM12.9719 0C13.2526 0 13.5151 0.132353 13.6865 0.360294L14.2917 1.17647H16.1911C16.6542 1.17647 17.099 1.36397 17.4271 1.69485L18.0833 2.35294H20.125C20.6099 2.35294 21 2.74632 21 3.23529V4.11765C21 5.74265 19.6948 7.05882 18.0833 7.05882H15.75L15.4948 8.08824L10.9484 6.125L12.1005 0.713235C12.188 0.297794 12.549 0 12.9719 0ZM16.3333 2.79412C15.9323 2.79412 15.6042 3.125 15.6042 3.52941C15.6042 3.93382 15.9323 4.26471 16.3333 4.26471C16.7344 4.26471 17.0625 3.93382 17.0625 3.52941C17.0625 3.125 16.7344 2.79412 16.3333 2.79412Z" fill="black"/>
</svg>
