<svg width="20" height="19" viewBox="0 0 20 19" fill="none" xmlns="http://www.w3.org/2000/svg">
<g clip-path="url(#clip0_575_26284)">
<path d="M1.11111 5.02941C1.6875 5.02941 2.15972 5.46949 2.21528 6.0318L2.22569 6.26232C2.28472 6.82463 2.75694 7.26471 3.33333 7.26471H9.55208L14.4444 9.37426V17.8824C14.4444 18.5006 13.9479 19 13.3333 19H12.2222C11.6076 19 11.1111 18.5006 11.1111 17.8824V13.2965C10.2778 13.7261 9.33333 13.9706 8.33333 13.9706C7.33333 13.9706 6.38889 13.7261 5.55556 13.2965V17.8824C5.55556 18.5006 5.05903 19 4.44444 19H3.33333C2.71875 19 2.22222 18.5006 2.22222 17.8824V9.30441C0.927083 8.84338 0 7.60699 0 6.14706C0 5.52886 0.496528 5.02941 1.11111 5.02941ZM12.3542 0C12.6215 0 12.8715 0.125735 13.0347 0.342279L13.6111 1.11765H15.4201C15.8611 1.11765 16.2847 1.29577 16.5972 1.61011L17.2222 2.23529H19.1667C19.6285 2.23529 20 2.60901 20 3.07353V3.91176C20 5.45551 18.7569 6.70588 17.2222 6.70588H15L14.7569 7.68382L10.4271 5.81875L11.5243 0.677574C11.6076 0.282904 11.9514 0 12.3542 0ZM15.5556 2.65441C15.1736 2.65441 14.8611 2.96875 14.8611 3.35294C14.8611 3.73713 15.1736 4.05147 15.5556 4.05147C15.9375 4.05147 16.25 3.73713 16.25 3.35294C16.25 2.96875 15.9375 2.65441 15.5556 2.65441Z" fill="#6D48F2"/>
</g>
<defs>
<clipPath id="clip0_575_26284">
<rect width="20" height="19" fill="white"/>
</clipPath>
</defs>
</svg>
