<svg width="15" height="18" viewBox="0 0 15 18" fill="none" xmlns="http://www.w3.org/2000/svg">
<path d="M14.0973 12.0267C14.0351 11.949 13.974 11.8712 13.9141 11.7962C13.0898 10.7615 12.591 10.1371 12.591 7.20804C12.591 5.69162 12.2415 4.44738 11.5524 3.5142C11.0444 2.82481 10.3576 2.30184 9.45232 1.91535C9.44067 1.90863 9.43027 1.89981 9.42159 1.8893C9.09599 0.75782 8.205 0 7.20009 0C6.19519 0 5.30457 0.75782 4.97897 1.88813C4.97029 1.89827 4.96003 1.90681 4.94862 1.91341C2.83615 2.81587 1.80951 4.54731 1.80951 7.20687C1.80951 10.1371 1.31156 10.7615 0.486506 11.795C0.426557 11.87 0.365483 11.9463 0.303286 12.0256C0.142621 12.2266 0.0408273 12.4713 0.00995052 12.7305C-0.0209263 12.9897 0.0204065 13.2527 0.129057 13.4883C0.360237 13.9938 0.852947 14.3076 1.41535 14.3076H12.989C13.5487 14.3076 14.0381 13.9942 14.27 13.4911C14.3791 13.2554 14.4208 12.9922 14.3902 12.7327C14.3596 12.4731 14.258 12.2281 14.0973 12.0267ZM7.20009 17.4194C7.74152 17.4189 8.27274 17.2664 8.73741 16.978C9.20207 16.6896 9.58285 16.276 9.83937 15.7812C9.85145 15.7575 9.85742 15.731 9.85669 15.7042C9.85597 15.6773 9.84857 15.6512 9.83522 15.6282C9.82187 15.6052 9.80302 15.5862 9.78051 15.5731C9.75799 15.5599 9.73258 15.553 9.70673 15.553H4.69421C4.66833 15.5529 4.64286 15.5598 4.6203 15.5729C4.59773 15.5861 4.57883 15.6051 4.56544 15.628C4.55204 15.651 4.54461 15.6772 4.54387 15.7041C4.54313 15.7309 4.54909 15.7575 4.56119 15.7812C4.81768 16.276 5.1984 16.6895 5.66299 16.9779C6.12758 17.2663 6.65873 17.4188 7.20009 17.4194Z" fill="black"/>
</svg>
