<svg width="19" height="20" viewBox="0 0 19 20" fill="none" xmlns="http://www.w3.org/2000/svg">
<path d="M17.228 15C18.206 15 19 15.794 19 16.773V16.875C19 18.431 17.714 20 14.5 20C11.286 20 10 18.437 10 16.875V16.773C10 15.793 10.793 15 11.773 15H17.228ZM14.75 0C15.612 0 16.4386 0.34241 17.0481 0.951903C17.6576 1.5614 18 2.38805 18 3.25V11.5C17.9998 10.6153 17.6646 9.7634 17.0617 9.11584C16.4589 8.46827 15.6331 8.07305 14.7506 8.00969C13.8682 7.94633 12.9944 8.21953 12.3053 8.77433C11.6161 9.32913 11.1626 10.1244 11.036 11H10.25C10.0511 11 9.86032 11.079 9.71967 11.2197C9.57902 11.3603 9.5 11.5511 9.5 11.75C9.5 11.9489 9.57902 12.1397 9.71967 12.2803C9.86032 12.421 10.0511 12.5 10.25 12.5H11.146C11.317 13.076 11.633 13.59 12.051 14H11.773C11.0376 14 10.3322 14.2922 9.81219 14.8122C9.29215 15.3322 9 16.0376 9 16.773V16.875C9 17.255 9.057 17.633 9.173 18H3.25C2.38805 18 1.5614 17.6576 0.951903 17.0481C0.34241 16.4386 0 15.612 0 14.75V3.25C0 2.38805 0.34241 1.5614 0.951903 0.951903C1.5614 0.34241 2.38805 0 3.25 0H14.75ZM7.78 10.22C7.63937 10.0795 7.44875 10.0007 7.25 10.0007C7.05125 10.0007 6.86063 10.0795 6.72 10.22L5.25 11.69L4.78 11.22C4.71134 11.1463 4.62854 11.0872 4.53654 11.0462C4.44454 11.0052 4.34523 10.9832 4.24452 10.9814C4.14382 10.9796 4.04379 10.9982 3.9504 11.0359C3.85701 11.0736 3.77218 11.1297 3.70096 11.201C3.62974 11.2722 3.5736 11.357 3.53588 11.4504C3.49816 11.5438 3.47963 11.6438 3.48141 11.7445C3.48319 11.8452 3.50523 11.9445 3.54622 12.0365C3.58721 12.1285 3.64631 12.2113 3.72 12.28L4.72 13.28C4.86063 13.4205 5.05125 13.4993 5.25 13.4993C5.44875 13.4993 5.63937 13.4205 5.78 13.28L7.78 11.28C7.92045 11.1394 7.99934 10.9488 7.99934 10.75C7.99934 10.5512 7.92045 10.3606 7.78 10.22ZM7.78 4.72C7.63937 4.57955 7.44875 4.50066 7.25 4.50066C7.05125 4.50066 6.86063 4.57955 6.72 4.72L5.25 6.19L4.78 5.72C4.71134 5.64631 4.62854 5.58721 4.53654 5.54622C4.44454 5.50523 4.34523 5.48318 4.24452 5.48141C4.14382 5.47963 4.04379 5.49816 3.9504 5.53588C3.85701 5.5736 3.77218 5.62974 3.70096 5.70096C3.62974 5.77218 3.5736 5.85701 3.53588 5.9504C3.49816 6.04379 3.47963 6.14382 3.48141 6.24452C3.48319 6.34522 3.50523 6.44454 3.54622 6.53654C3.58721 6.62854 3.64631 6.71134 3.72 6.78L4.72 7.78C4.86063 7.92045 5.05125 7.99934 5.25 7.99934C5.44875 7.99934 5.63937 7.92045 5.78 7.78L7.78 5.78C7.92045 5.63937 7.99934 5.44875 7.99934 5.25C7.99934 5.05125 7.92045 4.86063 7.78 4.72ZM10.25 5.5C10.0511 5.5 9.86032 5.57902 9.71967 5.71967C9.57902 5.86032 9.5 6.05109 9.5 6.25C9.5 6.44891 9.57902 6.63968 9.71967 6.78033C9.86032 6.92098 10.0511 7 10.25 7H13.75C13.9489 7 14.1397 6.92098 14.2803 6.78033C14.421 6.63968 14.5 6.44891 14.5 6.25C14.5 6.05109 14.421 5.86032 14.2803 5.71967C14.1397 5.57902 13.9489 5.5 13.75 5.5H10.25ZM14.5 9C15.163 9 15.7989 9.26339 16.2678 9.73223C16.7366 10.2011 17 10.837 17 11.5C17 12.163 16.7366 12.7989 16.2678 13.2678C15.7989 13.7366 15.163 14 14.5 14C13.837 14 13.2011 13.7366 12.7322 13.2678C12.2634 12.7989 12 12.163 12 11.5C12 10.837 12.2634 10.2011 12.7322 9.73223C13.2011 9.26339 13.837 9 14.5 9Z" fill="black"/>
</svg>
