<svg width="42" height="47" viewBox="0 0 42 47" fill="none" xmlns="http://www.w3.org/2000/svg">
<path d="M30.9972 5.93274C31.4636 4.53776 32.0496 2.54591 31.623 1.14569C31.2356 0.197632 33.6232 4.16179 34.115 4.82052C34.802 5.74093 35.5183 6.7401 36.4645 7.40167C37.3392 8.0133 38.2303 8.49337 39.2579 8.88759C39.7087 9.06053 40.4469 9.17874 40.9186 9.29747C41.3023 9.39405 40.1954 9.62742 40.067 9.6678L40.0631 9.66906C38.9658 10.0143 37.8726 10.3583 37.0147 11.1381C36.0996 11.9699 35.508 12.8928 35.0331 14.0218C34.6673 14.8915 34.4538 16.051 34.465 17.1189C34.5165 17.3039 34.5647 17.4929 34.6164 17.6857C34.6802 17.924 34.66 18.171 34.66 18.4162C34.66 18.7517 34.6911 18.78 34.597 18.3592C34.512 17.9787 34.4696 17.5564 34.465 17.1189C34.3105 16.5634 34.127 16.0433 33.7346 15.5609C33.4072 15.1584 33.1625 14.7102 32.8141 14.3183C32.4484 13.907 31.9101 13.5213 31.455 13.2108C30.1198 12.2998 28.5617 11.9238 27.0752 11.3326C26.5021 11.1047 25.9581 10.9042 25.4182 10.6069C24.974 10.3623 24.9737 10.3941 25.4933 10.2962C26.4674 10.1129 27.4354 10.0653 28.3228 9.57532C29.0578 9.16938 29.6283 8.40043 30.0597 7.70423C30.4097 7.13936 30.786 6.56455 30.9972 5.93274Z" fill="#EF9169" stroke="#6D48F1" stroke-width="2" stroke-linecap="round"/>
<path d="M29.9561 22.6497C29.1484 20.7086 27.2374 18.2601 25.5379 17.7906C23.6621 17.2723 19.7943 19.1145 14.7171 20.5574C11.5434 21.4592 8.81513 22.8347 7.04303 23.7033C5.6744 24.3742 4.40331 25.0036 2.95765 25.908C1.29075 27.1009 0.796426 28.8224 1.07168 29.7795C1.41313 30.9667 1.70671 32.1305 1.97589 33.2517C1.97589 33.2517 7.86537 30.601 9.63262 29.7795C11.3999 28.958 13.1671 28.8338 15.818 27.9503C18.4689 27.0667 18.9107 27.0667 21.5616 26.6249C24.2125 26.1831 29.9561 22.6497 29.9561 22.6497Z" fill="#B19CFA"/>
<path d="M4.28619 41.4861C4.9432 42.9157 5.55074 44.0899 6.27194 44.7405C7.47301 45.8242 10.7412 45.1786 14.2171 44.3523C17.9864 43.4562 18.8917 43.2983 23.3288 42.0883C28.1888 40.7629 30.4187 38.75 32.0107 37.9161C32.8012 37.5021 33.1712 36.579 33.4965 35.6431C34.7817 31.9463 32.0107 27.5093 31.4403 25.8104C31.2425 25.2214 30.9173 24.5781 30.6056 23.9742C30.6056 23.9742 23.7707 27.9503 22.0034 28.392C20.2362 28.8338 17.8026 29.3998 16.2598 29.7795C14.7171 30.1592 11.8417 30.601 10.0744 31.4845C8.30718 32.3681 2.39225 35.0188 2.39225 35.0188C2.98538 37.5596 3.51192 39.8014 4.28619 41.4861Z" fill="#B19CFA"/>
<path d="M9.63262 29.7795C7.86537 30.601 1.97589 33.2517 1.97589 33.2517C2.11502 33.8312 2.24763 34.3993 2.37696 34.9533L2.39225 35.0188C2.39225 35.0188 8.30718 32.3681 10.0744 31.4845C11.8417 30.601 14.7171 30.1592 16.2598 29.7795C17.8026 29.3998 20.2362 28.8338 22.0034 28.392C23.7707 27.9503 30.6056 23.9742 30.6056 23.9742C30.3565 23.4916 30.116 23.0341 29.9561 22.6497C29.9561 22.6497 24.2125 26.1831 21.5616 26.6249C18.9107 27.0667 18.4689 27.0667 15.818 27.9503C13.1671 28.8338 11.3999 28.958 9.63262 29.7795Z" fill="#6D48F2"/>
<path d="M29.9561 22.6497C29.1484 20.7086 27.2374 18.2601 25.5379 17.7906C23.6621 17.2723 19.7943 19.1145 14.7171 20.5574C11.5434 21.4592 8.81513 22.8347 7.04303 23.7033C5.6744 24.3742 4.40331 25.0036 2.95765 25.908C1.29075 27.1009 0.796426 28.8224 1.07168 29.7795C1.41313 30.9667 1.70671 32.1305 1.97589 33.2517M29.9561 22.6497C29.9561 22.6497 24.2125 26.1831 21.5616 26.6249C18.9107 27.0667 18.4689 27.0667 15.818 27.9503C13.1671 28.8338 11.3999 28.958 9.63262 29.7795C7.86537 30.601 1.97589 33.2517 1.97589 33.2517M29.9561 22.6497C30.116 23.0341 30.3565 23.4916 30.6056 23.9742M1.97589 33.2517C2.11502 33.8312 2.24763 34.3993 2.37696 34.9533M2.39225 35.0188C2.98538 37.5596 3.51192 39.8014 4.28619 41.4861C4.9432 42.9157 5.55074 44.0899 6.27194 44.7405C7.47301 45.8242 10.7412 45.1786 14.2171 44.3523C17.9864 43.4562 18.8917 43.2983 23.3288 42.0883C28.1888 40.7629 30.4187 38.75 32.0107 37.9161C32.8012 37.5021 33.1712 36.579 33.4965 35.6431C34.7817 31.9463 32.0107 27.5093 31.4403 25.8104C31.2425 25.2214 30.9173 24.5781 30.6056 23.9742M2.39225 35.0188C2.39225 35.0188 8.30718 32.3681 10.0744 31.4845C11.8417 30.601 14.7171 30.1592 16.2598 29.7795C17.8026 29.3998 20.2362 28.8338 22.0034 28.392C23.7707 27.9503 30.6056 23.9742 30.6056 23.9742M2.39225 35.0188L2.37696 34.9533M2.39225 35.0188C2.38716 34.997 2.38206 34.9752 2.37696 34.9533" stroke="#6D48F1" stroke-width="2" stroke-linecap="round"/>
</svg>
