<svg width="24" height="24" viewBox="0 0 24 24" fill="none" xmlns="http://www.w3.org/2000/svg">
<path d="M1.21354 9.56568C4.01214 15.6625 8.9839 20.4947 15.1557 23.1167L16.1468 23.5586C17.2443 24.0476 18.4791 24.1333 19.6336 23.8006C20.7881 23.468 21.7882 22.7382 22.4577 21.74L23.7534 19.8092C23.9561 19.5064 24.0382 19.1385 23.9834 18.7782C23.9287 18.4178 23.741 18.0911 23.4575 17.8623L19.0676 14.3185C18.9147 14.1951 18.7385 14.104 18.5495 14.0505C18.3605 13.997 18.1627 13.9823 17.9679 14.0072C17.7731 14.0321 17.5854 14.0962 17.4159 14.1955C17.2465 14.2949 17.0989 14.4275 16.9819 14.5853L15.6236 16.4185C12.1367 14.6954 9.31435 11.8708 7.5929 8.3815L9.42348 7.02231C9.58125 6.90529 9.71375 6.75758 9.81304 6.58804C9.91233 6.4185 9.97635 6.23064 10.0013 6.03572C10.0262 5.84081 10.0115 5.64287 9.958 5.45378C9.90455 5.2647 9.81346 5.08838 9.6902 4.9354L6.14854 0.542839C5.91986 0.259121 5.59329 0.0713724 5.23316 0.0165777C4.87303 -0.038217 4.50544 0.0439142 4.20282 0.246793L2.26 1.55056C1.25639 2.224 0.524286 3.23206 0.194113 4.39518C-0.13606 5.55829 -0.0428595 6.80092 0.457111 7.9017L1.21354 9.56568Z" fill="#B9B4C9"/>
</svg>
