<svg width="20" height="20" viewBox="0 0 20 20" fill="none" xmlns="http://www.w3.org/2000/svg">
<path d="M7.39687 14.7937C5.32954 14.7937 3.58009 14.0776 2.14851 12.6452C0.716928 11.2129 0.000759255 9.46344 6.02106e-07 7.39687C-0.000758051 5.3303 0.715411 3.58084 2.14851 2.14851C3.5816 0.716169 5.33106 0 7.39687 0C9.46268 0 11.2125 0.716169 12.6464 2.14851C14.0802 3.58084 14.796 5.3303 14.7937 7.39687C14.7937 8.23139 14.661 9.01849 14.3954 9.75818C14.1299 10.4979 13.7696 11.1522 13.3144 11.7212L19.6871 18.0939C19.8957 18.3025 20 18.568 20 18.8905C20 19.2129 19.8957 19.4784 19.6871 19.6871C19.4784 19.8957 19.2129 20 18.8905 20C18.568 20 18.3025 19.8957 18.0939 19.6871L11.7212 13.3144C11.1522 13.7696 10.4979 14.1299 9.75818 14.3954C9.01849 14.661 8.23139 14.7937 7.39687 14.7937ZM7.39687 12.5178C8.81935 12.5178 10.0286 12.0201 11.0248 11.0247C12.0209 10.0294 12.5185 8.8201 12.5178 7.39687C12.517 5.97364 12.0193 4.76472 11.0248 3.77013C10.0302 2.77553 8.82086 2.27748 7.39687 2.27596C5.97288 2.27444 4.76396 2.7725 3.77013 3.77013C2.77629 4.76776 2.27824 5.97667 2.27596 7.39687C2.27368 8.81707 2.77174 10.0264 3.77013 11.0247C4.76852 12.0231 5.97743 12.5208 7.39687 12.5178Z" fill="#B9B4C9"/>
</svg>
