<svg width="48" height="34" viewBox="0 0 48 34" fill="none" xmlns="http://www.w3.org/2000/svg">
<path d="M6.10727 3.41312C4.38273 3.90795 3.11702 5.45834 2.47724 7.11048L11.2809 6.7488L23.8454 6.23263L36.1635 5.72658L44.2935 5.39258C43.8038 4.79154 42.9136 3.52867 42.4949 3.09977C42.0762 2.67087 41.5835 2.17604 40.1037 1.94919C38.9939 1.94919 37.7661 1.70419 36.6562 1.70419H33.2097C31.4084 1.70419 29.6 1.54086 27.793 1.54086C26.2201 1.54086 24.6631 1.45069 23.0856 1.53632C22.0575 1.59214 21.0117 1.54086 19.982 1.54086C18.9077 1.54086 17.8603 1.68231 16.7925 1.70419C14.9571 1.74181 13.0884 1.86307 11.2809 2.17604C10.2421 2.3559 9.10872 2.7004 8.07817 2.91829C7.58808 3.0219 6.84636 3.20105 6.10727 3.41312Z" fill="#6D48F1"/>
<path d="M2.47724 7.11048C1.7221 9.06053 1.36503 10.7981 1.5466 12.8951C1.63961 13.9693 1.6317 15.0478 1.6238 16.1251L1.6233 16.1935C4.96864 16.0675 8.02984 15.9682 10.913 15.8939C10.9705 13.1347 11.0924 10.2035 11.2809 6.7488L2.47724 7.11048Z" fill="#8464F5" fill-opacity="0.43"/>
<path d="M24.3545 24.3173L24.1126 15.7249C19.8795 15.7181 15.635 15.7723 10.913 15.8939C10.8533 18.7573 10.863 21.4353 10.9396 24.3209C15.7488 24.4584 20.0556 24.4549 24.3545 24.3173Z" fill="#8464F5" fill-opacity="0.43"/>
<path d="M25.391 32.4995C28.3594 32.4995 31.3323 32.4179 34.3089 32.4179C35.0888 32.4179 35.8766 32.3768 36.6562 32.3529C36.8715 29.062 37.0105 26.2283 37.0655 23.5625C32.5494 23.9324 28.4555 24.1859 24.3545 24.3173L24.5845 32.4836C24.853 32.4938 25.1218 32.4995 25.391 32.4995Z" fill="#8464F5" fill-opacity="0.43"/>
<path d="M46.353 21.7378C46.353 19.9016 46.3136 18.0194 46.1271 16.1935C42.8392 16.0811 39.8243 15.9874 36.9761 15.9142C37.0923 18.4844 37.1195 20.9423 37.0655 23.5625C39.9538 23.326 43.0148 23.0418 46.3608 22.7115C46.356 22.3871 46.353 22.0626 46.353 21.7378Z" fill="#8464F5" fill-opacity="0.43"/>
<path d="M36.1635 5.72658L23.8454 6.23263L24.1126 15.7249C28.2647 15.7314 32.4059 15.7966 36.9761 15.9142C36.837 12.8365 36.5705 9.59786 36.1635 5.72658Z" fill="#8464F5" fill-opacity="0.43"/>
<path d="M3.59763 31.0295C4.17672 31.6111 5.08769 31.9207 5.85647 32.1729C6.3968 32.3095 9.50744 32.4384 11.2809 32.4157C11.1193 29.4027 11.005 26.7861 10.9396 24.3209C8.20582 24.2427 5.3097 24.119 2.16039 23.9486C2.18283 25.2251 2.18987 26.5024 2.48628 27.7357C2.69659 28.6107 2.76675 29.3516 3.17297 30.1675C3.31822 30.4592 3.35753 30.7884 3.59763 31.0295Z" fill="#8464F5" fill-opacity="0.43"/>
<path d="M14.9641 32.073C15.966 31.8494 16.9273 32.0095 17.9368 32.0095C20.1646 32.0095 22.3648 32.3995 24.5845 32.4836L24.3545 24.3173C20.0556 24.4549 15.7488 24.4584 10.9396 24.3209C11.005 26.7861 11.1193 29.4027 11.2809 32.4157C11.9478 32.4071 12.4256 32.3771 12.5065 32.318C13.0054 32.1729 13.3331 32.1729 13.5817 32.1729C14.0022 32.1729 14.5532 32.1648 14.9641 32.073Z" fill="#8464F5" fill-opacity="0.43"/>
<path d="M24.1126 15.7249L24.3545 24.3173C28.4555 24.1859 32.5494 23.9324 37.0655 23.5625C37.1195 20.9423 37.0923 18.4844 36.9761 15.9142C32.4059 15.7966 28.2647 15.7314 24.1126 15.7249Z" fill="#8464F5" fill-opacity="0.43"/>
<path d="M46.3937 27.7221C46.6022 27.3452 46.4409 26.4793 46.4343 26.0661C46.4167 24.9491 46.3775 23.8314 46.3608 22.7115C43.0148 23.0418 39.9538 23.326 37.0655 23.5625C37.0105 26.2283 36.8715 29.062 36.6562 32.3529C36.9763 32.3431 37.295 32.3362 37.6113 32.3362C38.7567 32.3362 40.1622 32.2771 41.2255 31.8099C42.6313 31.1922 44.352 30.4845 45.2778 29.2329C45.6435 28.7385 46.1112 28.2327 46.3937 27.7221Z" fill="#8464F5" fill-opacity="0.43"/>
<path d="M45.4179 9.18388C45.0173 7.79814 45.246 6.5617 44.2935 5.39258L36.1635 5.72658C36.5705 9.59786 36.837 12.8365 36.9761 15.9142C39.8243 15.9874 42.8392 16.0811 46.1271 16.1935C45.8865 13.8376 46.0863 11.4962 45.4179 9.18388Z" fill="#8464F5" fill-opacity="0.43"/>
<path d="M23.8454 6.23263L11.2809 6.7488C11.0924 10.2035 10.9705 13.1347 10.913 15.8939C15.635 15.7723 19.8795 15.7181 24.1126 15.7249L23.8454 6.23263Z" fill="#8464F5" fill-opacity="0.43"/>
<path d="M1.6233 16.1935C1.61189 17.7593 1.605 19.3225 1.91253 20.8667C2.11384 21.8775 2.14219 22.9128 2.16039 23.9486C5.3097 24.119 8.20582 24.2427 10.9396 24.3209C10.863 21.4353 10.8533 18.7573 10.913 15.8939C8.02984 15.9682 4.96864 16.0675 1.6233 16.1935Z" fill="#8464F5" fill-opacity="0.43"/>
<path d="M2.47724 7.11048C1.7221 9.06053 1.36503 10.7981 1.5466 12.8951C1.63961 13.9693 1.6317 15.0478 1.6238 16.1251M2.47724 7.11048C3.11702 5.45834 4.38273 3.90795 6.10727 3.41312C6.84636 3.20105 7.58808 3.0219 8.07817 2.91829C9.10872 2.7004 10.2421 2.3559 11.2809 2.17604C13.0884 1.86307 14.9571 1.74181 16.7925 1.70419C17.8603 1.68231 18.9077 1.54086 19.982 1.54086C21.0117 1.54086 22.0575 1.59214 23.0856 1.53632C24.6631 1.45069 26.2201 1.54086 27.793 1.54086C29.6 1.54086 31.4084 1.70419 33.2097 1.70419M2.47724 7.11048L11.2809 6.7488M33.2097 1.70419C34.4092 1.70419 35.4606 1.70419 36.6562 1.70419M33.2097 1.70419H36.6562M36.6562 1.70419C37.7661 1.70419 38.9939 1.94919 40.1037 1.94919C41.5835 2.17604 42.0762 2.67087 42.4949 3.09977C42.9136 3.52867 43.8038 4.79154 44.2935 5.39258M44.2935 5.39258C45.246 6.5617 45.0173 7.79814 45.4179 9.18388C46.0863 11.4962 45.8865 13.8376 46.1271 16.1935M44.2935 5.39258L36.1635 5.72658M46.1271 16.1935C46.3136 18.0194 46.353 19.9016 46.353 21.7378C46.353 22.0626 46.356 22.3871 46.3608 22.7115M46.1271 16.1935C42.8392 16.0811 39.8243 15.9874 36.9761 15.9142M11.2809 32.4157C11.9478 32.4071 12.4256 32.3771 12.5065 32.318C13.0054 32.1729 13.3331 32.1729 13.5817 32.1729C14.0022 32.1729 14.5532 32.1648 14.9641 32.073C15.966 31.8494 16.9273 32.0095 17.9368 32.0095C20.1646 32.0095 22.3648 32.3995 24.5845 32.4836M11.2809 32.4157C9.50744 32.4384 6.3968 32.3095 5.85647 32.1729C5.08769 31.9207 4.17672 31.6111 3.59763 31.0295C3.35753 30.7884 3.31822 30.4592 3.17297 30.1675C2.76675 29.3516 2.69659 28.6107 2.48628 27.7357C2.18987 26.5024 2.18283 25.2251 2.16039 23.9486M11.2809 32.4157C11.1193 29.4027 11.005 26.7861 10.9396 24.3209M11.2809 6.7488L23.8454 6.23263M11.2809 6.7488C11.0924 10.2035 10.9705 13.1347 10.913 15.8939M24.5845 32.4836C24.853 32.4938 25.1218 32.4995 25.391 32.4995C28.3594 32.4995 31.3323 32.4179 34.3089 32.4179C35.0888 32.4179 35.8766 32.3768 36.6562 32.3529M24.5845 32.4836L24.3545 24.3173M23.8454 6.23263L36.1635 5.72658M23.8454 6.23263L24.1126 15.7249M36.6562 32.3529C36.9763 32.3431 37.295 32.3362 37.6113 32.3362C38.7567 32.3362 40.1622 32.2771 41.2255 31.8099C42.6313 31.1922 44.352 30.4845 45.2778 29.2329C45.6435 28.7385 46.1112 28.2327 46.3937 27.7221C46.6022 27.3452 46.4409 26.4793 46.4343 26.0661C46.4167 24.9491 46.3775 23.8314 46.3608 22.7115M36.6562 32.3529C36.8715 29.062 37.0105 26.2283 37.0655 23.5625M36.1635 5.72658C36.5705 9.59786 36.837 12.8365 36.9761 15.9142M1.6233 16.1935C1.61189 17.7593 1.605 19.3225 1.91253 20.8667C2.11384 21.8775 2.14219 22.9128 2.16039 23.9486M1.6233 16.1935L1.6238 16.1251M1.6233 16.1935C4.96864 16.0675 8.02984 15.9682 10.913 15.8939M1.6233 16.1935C1.62347 16.1707 1.62363 16.1479 1.6238 16.1251M2.16039 23.9486C5.3097 24.119 8.20582 24.2427 10.9396 24.3209M46.3608 22.7115C43.0148 23.0418 39.9538 23.326 37.0655 23.5625M10.913 15.8939C15.635 15.7723 19.8795 15.7181 24.1126 15.7249M10.913 15.8939C10.8533 18.7573 10.863 21.4353 10.9396 24.3209M24.3545 24.3173L24.1126 15.7249M24.3545 24.3173C20.0556 24.4549 15.7488 24.4584 10.9396 24.3209M24.3545 24.3173C28.4555 24.1859 32.5494 23.9324 37.0655 23.5625M24.1126 15.7249C28.2647 15.7314 32.4059 15.7966 36.9761 15.9142M37.0655 23.5625C37.1195 20.9423 37.0923 18.4844 36.9761 15.9142" stroke="#6D48F1" stroke-width="3" stroke-linecap="round"/>
</svg>
