<svg width="32" height="40" viewBox="0 0 32 40" fill="none" xmlns="http://www.w3.org/2000/svg">
<path d="M13.2617 9.15264C10.1498 9.57754 8.23648 10.532 6.11917 12.1019C4.83545 13.0537 3.74287 14.2119 2.78956 15.4806C1.62031 17.0366 1.32618 18.7608 1.14393 20.622C0.938821 22.7165 0.896222 24.7246 1.40094 26.7804C1.85741 28.6397 2.35847 30.5679 3.67566 32.0499C5.14608 33.7043 6.76985 35.1878 8.5435 36.5209C10.1813 37.7519 12.3147 38.447 14.3627 38.7093C16.2021 38.9449 18.1011 39.1729 19.944 38.811C24.8435 37.8488 29.2412 34.3586 30.5504 29.5188C31.2429 26.9589 31.0414 24.4568 30.5773 21.8914C30.4018 20.9214 30.318 19.9343 30.0095 18.9911C29.6505 17.8931 29.0293 16.9537 28.5327 15.9175C27.8134 14.4166 26.6048 12.8556 25.1455 11.9701C24.4646 11.5568 23.8026 10.9928 23.0511 10.712C22.4912 10.5029 21.9011 10.3579 21.3479 10.1357C19.9358 9.56847 15.7684 8.81038 13.2617 9.15264Z" fill="#AFED3A"/>
<path d="M11.4429 1.61014C10.9574 1.63818 10.4668 3.27739 10.4668 3.63919C10.4668 3.94873 10.6538 4.21513 10.8664 4.42391C11.1718 4.72374 11.5443 4.9525 11.9824 5.0657C12.585 5.22143 13.1684 5.40326 13.809 5.34035C14.4301 5.27937 15.1254 4.91492 15.6557 4.61449C16.0963 4.36489 16.3327 4.07963 16.5405 3.61677C17.28 1.96907 15.6432 1.27103 14.2686 1.03001C13.6416 0.920068 13.1857 1.14311 12.5989 1.20376C12.1871 1.24633 11.8194 1.61014 11.4429 1.61014Z" fill="#8464F5"/>
<path d="M14.731 26.4801C14.731 24.1149 14.745 21.7223 14.5369 19.3616C14.4633 18.5261 14.203 17.7001 14.1659 16.8617C14.15 16.5026 14.1145 16.149 14.1145 15.7855C14.1145 15.6754 14.0973 15.0626 14.0631 15.1297M14.6796 26.6819C17.0331 26.6819 19.3796 26.9341 21.7294 26.9341C22.1568 26.9341 22.5481 26.8048 22.9738 26.8809C23.071 26.8982 23.5174 26.9341 23.362 26.9341M13.9604 8.21858C13.9604 8.81309 14.1316 6.03258 13.7035 6.45296M13.2617 9.15264C10.1498 9.57754 8.23648 10.532 6.11917 12.1019C4.83545 13.0537 3.74287 14.2119 2.78956 15.4806C1.62031 17.0366 1.32618 18.7608 1.14393 20.622C0.938821 22.7165 0.896222 24.7246 1.40094 26.7804C1.85741 28.6397 2.35847 30.5679 3.67566 32.0499C5.14608 33.7043 6.76985 35.1878 8.5435 36.5209C10.1813 37.7519 12.3147 38.447 14.3627 38.7093C16.2021 38.9449 18.1011 39.1729 19.944 38.811C24.8435 37.8488 29.2412 34.3586 30.5504 29.5188C31.2429 26.9589 31.0414 24.4568 30.5773 21.8914C30.4018 20.9214 30.318 19.9343 30.0095 18.9911C29.6505 17.8931 29.0293 16.9537 28.5327 15.9175C27.8134 14.4166 26.6048 12.8556 25.1455 11.9701C24.4646 11.5568 23.8026 10.9928 23.0511 10.712C22.4912 10.5029 21.9011 10.3579 21.3479 10.1357C19.9358 9.56847 15.7684 8.81038 13.2617 9.15264ZM11.4429 1.61014C10.9574 1.63818 10.4668 3.27739 10.4668 3.63919C10.4668 3.94873 10.6538 4.21513 10.8664 4.42391C11.1718 4.72374 11.5443 4.9525 11.9824 5.0657C12.585 5.22143 13.1684 5.40326 13.809 5.34035C14.4301 5.27937 15.1254 4.91492 15.6557 4.61449C16.0963 4.36489 16.3327 4.07963 16.5405 3.61677C17.28 1.96907 15.6432 1.27103 14.2686 1.03001C13.6416 0.920068 13.1857 1.14311 12.5989 1.20376C12.1871 1.24633 11.8194 1.61014 11.4429 1.61014Z" stroke="#6D48F1" stroke-width="2" stroke-linecap="round"/>
</svg>
