<svg width="24" height="22" viewBox="0 0 24 22" fill="none" xmlns="http://www.w3.org/2000/svg">
<path d="M11.8777 0C9.30637 0 7.30771 9.7434e-08 5.75184 0.163467C4.17821 0.330204 2.93196 0.675664 1.93763 1.45595C0.916654 2.25803 0.439461 3.30095 0.214182 4.61631C-4.96097e-08 5.87174 0 7.46936 0 9.46148V9.66091C0 11.6029 4.96097e-08 12.9466 0.22195 13.9481C0.341803 14.4875 0.530461 14.9562 0.826765 15.3899C1.11974 15.8171 1.49262 16.1767 1.93763 16.5254C2.63788 17.0758 3.46353 17.4082 4.439 17.6152V20.4334C4.43913 20.5766 4.47757 20.7172 4.55047 20.8413C4.62337 20.9653 4.72817 21.0683 4.85437 21.1401C4.98058 21.2118 5.12376 21.2497 5.26958 21.25C5.4154 21.2503 5.55875 21.213 5.68526 21.1418C6.33557 20.7767 6.91153 20.3789 7.43866 20.004L7.77603 19.7632C8.1514 19.4872 8.53479 19.2219 8.92573 18.9676C9.86236 18.3704 10.7568 17.9814 11.9298 17.9814H11.982C14.5533 17.9814 16.5519 17.9814 18.1078 17.8179C19.6814 17.6512 20.9277 17.3057 21.922 16.5254C22.3659 16.1767 22.7399 15.8171 23.0318 15.3899C23.3292 14.9562 23.5178 14.4875 23.6377 13.9481C23.8596 12.9466 23.8596 11.6029 23.8596 9.66091V9.46148C23.8596 7.46936 23.8596 5.87174 23.6455 4.6174C23.4202 3.30095 22.943 2.25803 21.922 1.45595C20.9277 0.674574 19.6814 0.330204 18.1078 0.164557C16.5519 3.2478e-08 14.5533 0 11.982 0H11.8777Z" fill="#B9B4C9"/>
</svg>
