<svg width="461" height="425" viewBox="0 0 461 425" fill="none" xmlns="http://www.w3.org/2000/svg">
<path d="M323.416 382.318C326.482 379.677 332.334 375.171 333.364 371.168C335.731 371.168 338.737 372.149 341.385 373.756C344.849 375.858 347.699 379.033 347.699 382.485C347.699 385.359 347.283 388.923 346.19 391.595C341.829 402.255 332.887 412.554 321.907 416.563C315.553 418.882 308.289 421.169 301.508 421.69C296.818 422.051 290.388 422.013 285.971 420.07C280.129 417.499 273.788 411.439 277.727 404.924C282.779 396.569 291.201 392.434 300.739 390.799C306.811 389.758 312.272 386.833 318.064 384.902C319.833 384.313 321.986 383.549 323.416 382.318Z" fill="#EF9169"/>
<path d="M341.385 373.756C344.849 375.858 347.699 379.033 347.699 382.485C347.699 385.359 347.283 388.923 346.19 391.595C341.829 402.255 332.887 412.554 321.907 416.563C315.553 418.882 308.289 421.169 301.508 421.69C296.818 422.051 290.388 422.013 285.971 420.07C280.129 417.499 273.788 411.439 277.727 404.924C282.779 396.569 291.201 392.434 300.739 390.799C306.811 389.758 312.272 386.833 318.064 384.902C319.833 384.313 321.986 383.549 323.416 382.318C326.482 379.677 332.334 375.171 333.364 371.168C335.731 371.168 338.737 372.149 341.385 373.756ZM341.385 373.756C341.385 373.756 334.885 389.587 327.885 395.587C320.885 401.587 307.385 403.087 307.385 403.087" stroke="#6D48F1" stroke-width="5" stroke-linecap="round"/>
<path d="M297.885 64.0872C296.885 61.5872 284.385 59.5872 282.385 64.0872C281.749 65.5164 282.728 92.4143 284.456 128.587C284.944 138.803 285.491 149.758 286.079 161.087C289.964 235.963 295.606 327.216 297.385 329.587C300.385 333.587 311.885 332.587 313.385 329.587C314.884 326.587 298.885 66.5872 297.885 64.0872Z" fill="#6D48F1"/>
<path d="M284.456 128.587C202.473 166.747 156.127 182.53 72.3843 195.087L76.3843 230.587C160.2 208.83 206.203 193.887 286.079 161.087C285.491 149.758 284.944 138.803 284.456 128.587Z" fill="#EF9169"/>
<path d="M284.456 128.587C282.728 92.4143 281.749 65.5164 282.385 64.0872C284.385 59.5872 296.885 61.5872 297.885 64.0872C298.885 66.5872 314.884 326.587 313.385 329.587C311.885 332.587 300.385 333.587 297.385 329.587C295.606 327.216 289.964 235.963 286.079 161.087M284.456 128.587C202.473 166.747 156.127 182.53 72.3843 195.087L76.3843 230.587C160.2 208.83 206.203 193.887 286.079 161.087M284.456 128.587C284.944 138.803 285.491 149.758 286.079 161.087" stroke="#6D48F1" stroke-width="5" stroke-linecap="round"/>
<path d="M298.237 245.721C299.184 257.077 305.036 268.535 310.768 278.188C311.95 278.258 320.823 282.386 322.017 282.727C327.059 284.167 332.595 286.598 337.221 289.104C344.991 293.313 354.633 293.402 362.559 297.207C368.97 300.284 376.379 301.828 382.441 305.532C395.63 313.593 409.655 321.701 424.821 325.692C433.233 327.906 441.447 331.003 449.798 333.544C455.954 335.418 461.282 341.691 455.868 347.105C452.495 350.478 445.016 349.36 440.581 349.36C433.992 349.36 428.298 348.847 422.259 346.102C411.57 341.243 400.543 340.417 388.957 339.837C383.367 339.558 377.905 337.944 372.444 336.579C363.921 334.449 356.327 336.144 347.885 337.832C339.282 339.553 330.171 338.835 321.405 338.835C311.725 338.835 300.865 341.939 291.833 345.351C288.254 346.703 285.115 349.3 281.698 350.975C276.034 353.752 270.682 356.16 265.659 360.136C261.613 363.339 258.47 367.407 254.187 370.16C251.766 371.716 248.773 373.992 247.114 376.314C245.094 379.143 240.177 382.238 237.09 383.944C232.374 386.55 227.587 388.331 222.75 390.515C210.792 395.916 199.902 402.446 187.47 406.749C179.807 409.401 161.688 415.995 156.395 405.997C155.109 403.569 151.737 401.27 152.413 398.228C153.004 395.567 155.151 393.466 157.286 391.963C164.67 386.767 174.182 381.47 180.23 374.616C186.847 367.117 192.818 358.997 200.056 352.061C207.412 345.011 217.326 337.02 218.434 326.36C219.151 319.459 219.178 310.976 216.067 304.753C211.604 295.828 208.098 286.364 203.62 277.409C199.352 268.873 194.067 261.115 189.475 252.849C186.794 248.024 182.706 243.699 178.56 240.096C173.982 236.119 170.36 230.837 165.389 227.316C155.642 220.411 147.302 211.857 137.767 204.705C130.877 199.538 123.916 195.789 116.298 191.98C111.679 189.671 106.609 189.013 102.153 186.467C98.2346 184.228 93.2094 182.958 88.7315 182.958C84.9608 182.958 80.1927 189.014 76.424 190.727C70.2004 193.556 63.4662 197.647 56.654 198.886C47.3707 200.574 39.8636 199.978 33.5426 192.955C27.8733 186.656 20.6061 180.481 16.5572 172.962C10.2227 161.198 2.00585 148.909 2.52327 135.455C2.70521 130.724 8.73565 130.671 12.0463 130.303C15.0033 129.975 18.8569 129.111 21.8477 129.941C24.4991 130.678 26.7349 134.774 28.3634 136.847C30.7826 140.974 41.6057 148.876 46.1286 148.876C54.1893 148.876 60.8422 148.093 68.6273 146.147C73.8812 144.834 78.4316 138.4 83.1068 135.343L83.2941 135.221C85.7921 133.588 88.5737 131.77 90.6249 129.719C92.0098 128.334 92.7893 126.381 94.1334 124.929C95.2236 123.752 98.167 121.381 98.7557 120.056C99.3706 118.673 101.345 117.216 101.262 115.796C101.152 113.938 99.5341 111.283 98.7557 109.531C96.204 103.79 95.381 97.2566 92.9639 91.3482C88.9978 81.6531 88.6743 69.958 90.6249 59.772C93.0051 47.3428 95.7262 33.9694 100.983 22.4039C104.519 14.6264 109.575 7.09236 117.3 3.41363C124.354 0.0548055 125.821 6.6339 125.821 12.2405C125.821 18.7079 124.31 25.0801 123.092 31.4257C121.199 41.2901 120.308 49.9384 120.308 60.0226C120.308 70.7853 121.56 81.2735 125.543 91.3482C128.684 99.2941 133.884 101.924 141.693 103.377C147.438 104.446 152.705 107.062 158.4 108.278C166.958 110.105 175.698 112.457 184.073 114.989C193.036 117.698 201.945 118.624 210.331 123.064C217.273 126.739 225.092 130.016 229.572 136.736C231.202 139.181 229.825 126.65 229.683 125.152C229.544 123.682 227.709 115.127 229.85 114.348C231.951 113.584 233.54 118.073 234.166 119.221C236.524 123.544 239.226 127.347 242.074 131.334C247.84 139.406 251.623 148.487 255.133 157.675C255.211 157.877 256.731 162.626 257.027 162.297C258.245 160.943 258.513 157.578 258.659 155.746L258.67 155.615C259.027 151.144 260.147 145.295 261.538 140.968C262.451 138.128 266.314 147.331 266.438 147.651C269.374 155.199 272.564 163.827 273.901 171.848L273.94 172.084C274.456 175.179 275.005 178.47 275.154 181.594C275.242 183.434 274.312 187.535 275.293 189.251C276.606 191.549 276.331 184.06 276.797 181.455C277.179 179.314 277.936 177.064 278.467 174.939C278.953 172.998 280.806 166.084 284.176 169.454C286.176 171.454 286.415 176.68 286.988 179.339C288.023 184.139 289.133 188.824 290.497 193.539C294.046 205.812 296.398 218.563 297.235 231.325C297.55 236.132 297.838 240.924 298.237 245.721Z" fill="#AFED3A" stroke="#6D48F1" stroke-width="5" stroke-linecap="round"/>
<path d="M51.3842 99.0875C49.3842 102.087 75.3842 394.087 74.8842 399.087C74.3842 404.087 90.3842 400.587 93.3842 399.087C96.3842 397.587 70.8843 102.088 68.3842 99.0875C65.8841 96.0873 53.3842 96.0875 51.3842 99.0875Z" fill="#6D48F1" stroke="#6D48F1" stroke-width="5" stroke-linecap="round"/>
<path d="M381.197 396.577C388.7 397.006 398.947 394.535 403.397 387.86C405.554 384.625 407.44 380.996 408.34 377.194C409.637 371.718 407.201 365.582 404.815 360.77C403.833 358.79 402.857 356.808 401.884 354.824C381.297 363.395 376.981 373.312 376.384 396.025C377.997 396.286 379.606 396.487 381.197 396.577Z" fill="#6D48F1"/>
<path d="M305.206 297.731C300.884 300.087 292.911 292.638 288.286 289.315C284.53 286.617 280.619 284.161 276.858 281.466C270.81 277.132 264.83 272.72 258.804 268.373C252.583 263.886 246.566 257.805 241.387 252.161C241.047 251.79 236.639 245.419 236.639 248.795C236.639 252.896 238.161 256.551 239.438 260.382C240.745 264.303 242.452 268.074 244.169 271.828C246.257 276.394 247.806 281.184 249.927 285.718C255.85 298.38 263.435 310.254 271.808 321.419C276.38 327.515 281.921 332.489 287.276 337.844C293.358 343.925 298.986 350.475 305.064 356.553C315.959 367.448 328.702 375.364 341.084 384.317C347.958 389.287 357.219 392.42 365.517 393.902C369.067 394.536 372.738 395.434 376.384 396.025C376.981 373.312 381.297 363.395 401.884 354.824C394.637 340.047 387.543 325.198 379.23 310.984C366.38 289.01 354.577 266.459 342.2 244.224C340.314 240.834 337.652 237.925 335.875 234.497C333.091 229.122 330.386 223.931 326.822 219.029C323.58 214.573 320.732 209.867 317.644 205.316C316.636 203.83 315.057 211.185 314.756 212.013C311.953 219.722 310.925 227.916 308.856 235.826C305.84 247.356 302.974 259.27 302.974 271.261C302.974 277.088 302.615 282.993 303.682 288.73C303.988 290.373 306.139 296.798 305.206 297.731Z" fill="#AFED3A"/>
<path d="M376.384 396.025C372.738 395.434 369.067 394.536 365.517 393.902C357.219 392.42 347.958 389.287 341.084 384.317C328.702 375.364 315.959 367.448 305.064 356.553C298.986 350.475 293.358 343.925 287.276 337.844C281.921 332.489 276.38 327.515 271.808 321.419C263.435 310.254 255.85 298.38 249.927 285.718C247.806 281.184 246.257 276.394 244.169 271.828C242.452 268.074 240.745 264.303 239.438 260.382C238.161 256.551 236.639 252.896 236.639 248.795C236.639 245.419 241.047 251.79 241.387 252.161C246.566 257.805 252.583 263.886 258.804 268.373C264.83 272.72 270.81 277.132 276.858 281.466C280.619 284.161 284.53 286.617 288.286 289.315C292.911 292.638 300.884 300.087 305.206 297.731C306.139 296.798 303.988 290.373 303.682 288.73C302.615 282.993 302.974 277.088 302.974 271.261C302.974 259.27 305.84 247.356 308.856 235.826C310.925 227.916 311.953 219.722 314.756 212.013C315.057 211.185 316.636 203.83 317.644 205.316C320.732 209.867 323.58 214.573 326.822 219.029C330.386 223.931 333.091 229.122 335.875 234.497C337.652 237.925 340.314 240.834 342.2 244.224C354.577 266.459 366.38 289.01 379.23 310.984C387.543 325.198 394.637 340.047 401.884 354.824M376.384 396.025C377.997 396.286 379.606 396.487 381.197 396.577C388.7 397.006 398.947 394.535 403.397 387.86C405.554 384.625 407.44 380.996 408.34 377.194C409.637 371.718 407.201 365.582 404.815 360.77C403.833 358.79 402.857 356.808 401.884 354.824M376.384 396.025C376.981 373.312 381.297 363.395 401.884 354.824" stroke="#6D48F1" stroke-width="5" stroke-linecap="round"/>
<path d="M360.384 277.588C360.384 277.588 374.884 251.588 387.884 266.588C400.884 281.588 368.384 317.087 354.384 310.588C343.999 305.766 352.323 289.939 357.314 282.087C359.051 279.354 360.384 277.588 360.384 277.588Z" fill="white"/>
<path d="M302.364 338.95C302.364 338.95 278.519 356.774 295.113 367.668C311.706 378.561 342.576 341.635 334.275 328.622C328.117 318.969 313.535 329.32 306.416 335.31C303.938 337.394 302.364 338.95 302.364 338.95Z" fill="white"/>
<path d="M360.384 277.588C360.384 277.588 374.884 251.588 387.884 266.588C400.884 281.588 368.384 317.087 354.384 310.588C343.999 305.766 352.323 289.939 357.314 282.087C359.051 279.354 360.384 277.588 360.384 277.588Z" stroke="#6D48F1" stroke-width="5" stroke-linecap="round"/>
<path d="M302.364 338.95C302.364 338.95 278.519 356.774 295.113 367.668C311.706 378.561 342.576 341.635 334.275 328.622C328.117 318.969 313.535 329.32 306.416 335.31C303.938 337.394 302.364 338.95 302.364 338.95Z" stroke="#6D48F1" stroke-width="5" stroke-linecap="round"/>
<path d="M309.384 343.087C309.384 343.087 319.884 333.587 321.884 339.587C323.884 345.587 309.884 361.587 305.884 355.587C301.884 349.587 309.384 343.087 309.384 343.087Z" fill="#6D48F1" stroke="#6D48F1" stroke-width="5" stroke-linecap="round"/>
<path d="M363.907 286.732C363.907 286.732 357.501 299.359 363.816 299.712C370.131 300.064 381.888 282.351 375.047 280.068C368.207 277.786 363.907 286.732 363.907 286.732Z" fill="#6D48F1" stroke="#6D48F1" stroke-width="5" stroke-linecap="round"/>
<path d="M353.943 214.023C358.824 213.535 362.438 212.519 367.092 210.326C372.179 207.929 379.706 203.803 384.483 200.79L384.51 200.773C386.727 199.375 390.156 197.212 391.834 194.783C393.384 192.541 393.993 188.422 391.54 186.634C391.334 186.483 391.126 186.341 390.915 186.206M390.915 186.206C384.58 182.14 376.111 184.567 370.053 180.353C369.065 179.666 368.594 178.279 369.801 177.539C374.36 174.745 381.065 178.309 385.239 179.954C389.795 181.75 395.729 184.774 400.835 185.167M390.915 186.206C390.395 186.203 389.869 186.191 389.335 186.171C384.013 185.972 371.949 185.347 369.234 179.408C368.479 177.757 368.28 176.07 368.504 174.392M390.915 186.206C394.452 186.226 397.69 185.858 400.835 185.167M400.835 185.167C403.492 185.372 405.924 184.865 407.822 183.101M400.835 185.167C403.188 184.65 405.488 183.953 407.822 183.101M407.822 183.101C408.971 182.034 409.924 180.507 410.612 178.4C413.938 168.215 411.355 158.76 405.014 151.552M407.822 183.101C409.843 182.365 411.888 181.513 414.014 180.563C423.249 176.441 441.319 169.172 435.859 155.884C432.929 148.754 426.14 143.584 420.358 138.871C417.52 136.557 414.906 134.29 411.557 132.759C410.509 132.279 405.535 131.981 406.495 131.981M405.014 151.552C402.723 148.947 399.941 146.635 396.77 144.689C391.096 141.206 384.43 138.113 377.594 139.543C370.416 141.044 363.823 145.988 359.152 151.515C352.375 159.535 364.771 162.919 374.854 163.84M405.014 151.552C403.793 153.126 402.334 154.617 400.714 155.986M405.014 151.552C405.228 151.276 405.435 150.998 405.634 150.717C407.932 147.475 411.231 141.39 406.999 138.325C398.818 132.398 385.31 133.778 376.25 136.14C367.644 138.384 359.504 145.391 353.817 152.019C350.949 155.363 348.224 159.804 349.659 164.369C351.557 170.409 361.713 172.692 366.798 174.01C367.356 174.155 367.925 174.282 368.504 174.392M374.854 163.84C379.236 164.24 383.18 164.175 384.924 163.823C390.316 162.736 396.152 159.844 400.714 155.986M374.854 163.84C378.81 160.025 383.737 157.018 387.045 155.716C388.981 154.954 400.078 151.626 400.714 155.986M374.854 163.84C371.6 166.977 369.003 170.661 368.504 174.392M400.714 155.986C400.765 156.335 400.749 156.733 400.656 157.186C397.799 171.081 380.926 176.747 368.504 174.392M298.017 320.706C304.787 320.706 313.517 320.659 318.938 316.072C319.462 315.628 321.356 312.91 320.238 312.91M333.102 293.028C332.721 290.026 333.042 288.05 334.272 285.144C335.795 281.546 337.734 275.981 340.813 273.319C340.906 273.239 341.02 273.182 341.134 273.144M341.134 273.144C341.597 272.987 342.061 273.124 341.134 273.144ZM341.134 273.144C341.064 273.145 340.986 273.146 340.899 273.146M277.986 247.811C276.964 241.424 278.578 234.598 279.58 228.281C280.015 225.537 279.931 227.422 279.931 228.362M227.418 214.748C232.691 213.126 237.504 220.474 240.709 223.662C242.122 225.069 243.972 229.202 244.436 226.418M240.06 185.575C242.055 189.447 244.81 192.9 246.867 196.758M109.752 162.722C112.475 164.9 118.35 160.746 120.449 159.805M123.853 142.301C127.675 140.466 133.885 140.885 137.467 143.273" stroke="#6D48F1" stroke-width="5" stroke-linecap="round"/>
</svg>
