<svg width="994" height="335" viewBox="0 0 994 335" fill="none" xmlns="http://www.w3.org/2000/svg">
<path d="M216.297 2.11059C209.413 0.389966 131.966 19.3168 131.966 19.3168C131.966 19.3168 66.3232 29.7299 28.2723 49.8292C36.9961 70.5672 35.0845 81.9964 28.2723 102.276C33.7186 104.544 41.0188 106.601 46.987 108.46C50.9181 109.684 54.9436 110.821 58.978 111.876C63.8388 113.148 68.7126 114.298 73.4498 115.335C95.3488 120.127 115.989 122.479 117.337 122.984C120.779 124.275 138.85 184.066 136.268 187.938C133.687 191.809 15.7953 303.22 38.599 305.8C61.4028 308.381 123.336 232.133 146.14 234.284C165.071 247.189 120.779 329.459 136.268 332.9C151.758 336.341 191.747 249.659 216.297 236.005C244.67 221.81 836.71 218.798 862.096 232.994C887.481 247.189 930.533 326.018 941.289 324.727C952.045 323.437 936.986 289.024 936.986 289.024C936.986 289.024 920.636 236.545 929.672 229.233C938.708 221.92 970.547 278.701 984.315 278.271C998.083 277.84 990.338 246.869 984.315 238.266C978.292 229.663 899.528 146.532 914.182 130.297C928.836 114.062 973.352 35.6059 957.639 28.3501C951.911 27.5555 875.913 121.804 865.562 125.135C855.211 128.466 562.227 127.286 559.646 125.135C557.065 122.984 584.171 99.7559 578.578 99.7559C572.985 99.7559 512.747 125.135 510.596 125.135C508.445 125.135 532.109 99.7559 529.098 99.7559C526.086 99.7559 460.255 125.135 457.244 125.135C454.232 125.135 484.35 99.7559 480.048 99.7559C475.745 99.7559 407.333 122.124 404.322 122.554C401.31 122.984 221.03 125.565 216.297 122.554C211.564 119.543 194.784 101.476 194.784 101.476C194.784 101.476 232.622 92.763 236.064 89.7518C239.507 86.7406 169.804 58.3504 169.399 51.1483C168.993 43.9463 223.181 3.83121 216.297 2.11059Z" fill="#AFED3A"/>
<path d="M46.987 108.46C46.987 108.46 41.4686 119.432 38.5742 129.756C35.6799 140.08 35.5624 145.242 35.9926 148.794C36.4229 152.345 39.5444 158.147 46.987 158.577C54.4297 159.007 62.2386 156.426 65.6807 149.543C69.1228 142.661 66.111 140.08 65.6807 132.767C65.2505 125.455 68.2623 121.153 68.2623 121.153L73.4498 115.335C68.7126 114.298 63.8388 113.148 58.978 111.876C54.9436 110.821 50.9181 109.684 46.987 108.46Z" fill="#EF9169"/>
<path d="M2.88727 73.0863C-1.43897 85.3161 10.5796 94.9086 28.2723 102.276C35.0845 81.9964 36.9961 70.5672 28.2723 49.8292C15.6098 56.5178 6.00277 64.2791 2.88727 73.0863Z" fill="#6D48F1"/>
<path d="M159.072 107.929L194.784 101.476M194.784 101.476C194.784 101.476 232.622 92.763 236.064 89.7518C239.507 86.7406 169.804 58.3504 169.399 51.1483C168.993 43.9463 223.181 3.83121 216.297 2.11059C209.413 0.389966 131.966 19.3168 131.966 19.3168C131.966 19.3168 66.3232 29.7299 28.2723 49.8292M194.784 101.476C194.784 101.476 211.564 119.543 216.297 122.554C221.03 125.565 401.31 122.984 404.322 122.554C407.333 122.124 475.745 99.7559 480.048 99.7559C484.35 99.7559 454.232 125.135 457.244 125.135C460.255 125.135 526.086 99.7559 529.098 99.7559C532.109 99.7559 508.445 125.135 510.596 125.135C512.747 125.135 572.985 99.7559 578.578 99.7559C584.171 99.7559 557.065 122.984 559.646 125.135C562.227 127.286 855.211 128.466 865.562 125.135C875.913 121.804 951.911 27.5555 957.639 28.3501C973.352 35.6059 928.836 114.062 914.182 130.297C899.528 146.532 978.292 229.663 984.315 238.266C990.338 246.869 998.083 277.84 984.315 278.271C970.547 278.701 938.708 221.92 929.672 229.233C920.636 236.545 936.986 289.024 936.986 289.024C936.986 289.024 952.045 323.437 941.289 324.727C930.533 326.018 887.481 247.189 862.096 232.994C836.71 218.798 244.67 221.81 216.297 236.005C191.747 249.659 151.758 336.341 136.268 332.9C120.779 329.459 165.071 247.189 146.14 234.284C123.336 232.133 61.4028 308.381 38.599 305.8C15.7953 303.22 133.687 191.809 136.268 187.938C138.85 184.066 120.779 124.275 117.337 122.984C115.989 122.479 95.3488 120.127 73.4498 115.335M46.987 108.46C46.987 108.46 41.4686 119.432 38.5742 129.756C35.6799 140.08 35.5624 145.242 35.9926 148.794C36.4229 152.345 39.5444 158.147 46.987 158.577C54.4297 159.007 62.2386 156.426 65.6807 149.543C69.1228 142.661 66.111 140.08 65.6807 132.767C65.2505 125.455 68.2623 121.153 68.2623 121.153L73.4498 115.335M46.987 108.46C50.9181 109.684 54.9436 110.821 58.978 111.876M46.987 108.46C41.0188 106.601 33.7186 104.544 28.2723 102.276M73.4498 115.335C68.7126 114.298 63.8388 113.148 58.978 111.876M58.978 111.876C58.978 111.876 51.0518 125.885 49.761 132.767C48.4702 139.65 51.0518 149.543 51.0518 149.543M28.2723 102.276C10.5796 94.9086 -1.43897 85.3161 2.88727 73.0863C6.00277 64.2791 15.6098 56.5178 28.2723 49.8292M28.2723 102.276C35.0845 81.9964 36.9961 70.5672 28.2723 49.8292" stroke="#6D48F1" stroke-width="4" stroke-linecap="round"/>
<path d="M89.3685 4.69024C73.3397 0.85839 63.5514 55.0186 79.0422 55.0185C79.7872 55.0184 80.5037 55.0184 81.1948 54.9996C79.0422 19.7456 93.6724 17.5948 96.3082 35.2312C96.7164 33.6417 97.1275 31.9245 97.5434 30.0694C103.137 5.1204 89.3685 4.69024 89.3685 4.69024Z" fill="white"/>
<path d="M81.1948 54.9996C87.524 54.8266 91.7275 53.0705 96.3082 35.2312C93.6724 17.5948 79.0422 19.7456 81.1948 54.9996Z" fill="#6D48F1"/>
<path d="M90.2303 76.096C82.4856 81.2579 89.4342 112.802 100.987 124.704C101.899 125.643 103.109 126.406 104.429 126.979C91.5211 97.1736 107.441 90.2911 115.779 103.196C115.344 100.679 114.731 97.9549 113.893 95.0229C113.497 93.6361 113.047 92.3479 112.551 91.1515C105.515 74.1643 97.975 70.9341 90.2303 76.096Z" fill="white"/>
<path d="M115.779 124.704C115.779 124.704 118.469 118.773 115.779 103.196C107.441 90.2911 91.5211 97.1736 104.429 126.979C108.521 128.753 114.755 127.715 115.779 124.704Z" fill="#6D48F1"/>
<path d="M81.1948 54.9996C80.5037 55.0184 79.7872 55.0184 79.0422 55.0185C63.5514 55.0186 73.3397 0.85839 89.3685 4.69024C89.3685 4.69024 103.137 5.1204 97.5434 30.0694C97.1275 31.9245 96.7164 33.6417 96.3082 35.2312M81.1948 54.9996C87.524 54.8266 91.7275 53.0705 96.3082 35.2312M81.1948 54.9996C79.0422 19.7456 93.6724 17.5948 96.3082 35.2312M115.779 103.196C118.469 118.773 115.779 124.704 115.779 124.704C114.755 127.715 108.521 128.753 104.429 126.979M115.779 103.196C115.344 100.679 114.731 97.9549 113.893 95.0229C113.497 93.6361 113.047 92.3479 112.551 91.1515C105.515 74.1643 97.975 70.9341 90.2303 76.096C82.4856 81.2579 89.4342 112.802 100.987 124.704C101.899 125.643 103.109 126.406 104.429 126.979M115.779 103.196C107.441 90.2911 91.5211 97.1736 104.429 126.979" stroke="#6D48F1" stroke-width="4"/>
<path d="M123.101 35.9727C124.005 37.58 124.168 34.4963 124.323 33.8073C125.263 29.61 126.34 25.4141 125.1 21.2403C124.407 18.9062 122.768 11.8835 122.768 14.3182M132.764 64.2902C133.398 64.3647 133.562 64.666 133.949 65.1231C137.389 69.1871 139.069 76.3618 140.614 81.3547C140.945 82.4239 141.428 85.7313 141.428 84.6121M198.563 141.309C200.652 145.747 207.495 142.502 211.155 141.856M215.535 182.908C213.237 185.863 224.736 190.32 225.39 190.571M788.246 136.61C793.05 138.484 798.349 138.689 803.495 138.689M834.128 142.231C834.128 141.533 835.074 143.177 835.515 143.617C838.619 146.721 841.582 146.192 845.912 146.389M160.379 166.689C160.379 170.775 160.91 174.959 160.91 178.907" stroke="#6D48F1" stroke-width="4" stroke-linecap="round"/>
</svg>
