<svg width="710" height="516" viewBox="0 0 710 516" fill="none" xmlns="http://www.w3.org/2000/svg">
<path d="M439.7 241.731C440.889 243.996 443.499 249.296 448.304 250.411C456.254 252.257 462.096 250.168 466.266 247.853C466.709 247.607 467.133 247.359 467.539 247.112C467.39 246.448 467.222 244.582 466.992 243.945C466.561 242.754 466.325 241.516 465.827 240.349C465.203 238.89 464.59 237.37 463.791 235.996C461.36 231.815 457.302 228.916 452.807 227.276C450.326 226.37 447.875 225.289 445.222 224.994C444.078 224.867 442.963 224.829 441.813 224.872C440.284 224.93 438.725 224.909 437.209 225.141C436.921 225.186 435.984 225.44 435.772 225.569L435.773 225.574L435.784 225.663C435.85 226.182 435.923 226.701 436.004 227.218C436.774 232.133 437.387 237.328 439.7 241.731Z" fill="#6D48F1"/>
<path d="M496.691 227.601L493.254 225.954L492.346 225.454C491.578 226.387 490.801 227.315 490.014 228.239C488.847 229.609 487.58 231.057 486.275 232.39C483.667 235.057 480.84 237.533 477.887 239.891C488.454 245.25 505.797 251.175 517.475 248.659C521.134 247.87 525.073 246.495 527.158 243.14C527.747 242.192 527.781 240.594 527.571 239.527C527.063 236.936 524.434 235.07 522.472 233.588C519.962 231.694 517.093 231.13 514.014 230.634C511.006 230.15 507.997 229.715 504.959 229.459C503.9 229.369 502.837 229.315 501.779 229.218C499.463 229.007 498.847 228.455 496.691 227.601Z" fill="#EF9169"/>
<path d="M440.972 173.133C438.459 183.578 436.627 194.122 435.824 204.844C435.311 211.687 434.915 218.727 435.772 225.569C435.984 225.44 436.921 225.186 437.209 225.141C438.725 224.909 440.284 224.93 441.813 224.872C442.963 224.829 444.078 224.867 445.222 224.994C447.875 225.289 450.326 226.37 452.807 227.276C457.302 228.916 461.36 231.815 463.791 235.996C464.59 237.37 465.203 238.89 465.827 240.349C466.325 241.516 466.561 242.754 466.992 243.945C467.222 244.582 467.39 246.448 467.539 247.112C468.298 246.651 468.994 246.196 469.628 245.777C469.719 245.717 469.808 245.658 469.896 245.599L469.956 245.56C470.251 245.365 470.532 245.179 470.799 245.006C473.182 243.465 475.566 241.743 477.887 239.891C480.84 237.533 483.667 235.057 486.275 232.39C487.58 231.057 488.847 229.609 490.014 228.239C490.801 227.315 491.578 226.387 492.346 225.454C495.148 222.046 497.817 218.561 500.32 214.905C503.417 210.381 507.127 206.299 510.163 201.748C516.974 191.538 523.332 181.302 529.241 170.536C532.344 164.883 535.18 159.182 537.772 153.278C540.322 147.47 545.113 140.936 547.36 134.977C550.707 126.098 551.942 116.357 553.334 107.096C553.893 103.384 544.139 109.921 541.268 111.662C538.086 113.592 531.152 118.403 527.805 120.104C524.878 121.592 522.347 123.429 519.09 125.792L518.689 126.083L518.668 126.099C517.662 126.828 516.585 127.607 515.405 128.44C510.168 132.138 507.618 134.218 501.676 138.664C499.919 139.562 497.215 140.225 495.291 143.29C495.025 143.715 495.195 141.563 495.231 141.284C495.455 139.578 495.168 137.854 495.271 136.149C495.608 130.522 497.523 124.956 498.185 119.361C498.859 113.675 498.608 107.832 498.951 102.11C499.271 96.7744 499.405 91.4692 499.145 86.1237C499.038 83.9301 499.215 81.7511 498.831 79.5779C498.555 78.0137 496.677 80.4926 496.071 81.0931C491.844 85.2834 487.328 90.0523 483.961 94.9551C467.707 118.627 447.693 145.202 440.972 173.133Z" fill="#AFED3A"/>
<path d="M448.304 250.411C443.499 249.296 440.889 243.996 439.7 241.731C437.387 237.328 436.774 232.133 436.004 227.218C435.923 226.701 435.85 226.182 435.784 225.663L435.773 225.574L435.772 225.569C430.86 237.509 421.746 251.088 415.346 262.345C413.029 266.419 410.462 270.345 408.057 274.367C403.739 281.586 399.103 288.729 394.499 295.77C391.464 300.412 388.995 305.499 386.377 310.397C383.737 315.338 381.592 320.254 379.855 325.56C378.38 330.067 372.577 342.921 379.98 345.038C383.597 346.073 386.966 345.055 389.714 342.545C394.227 338.422 398.356 333.866 402.552 329.424C407.581 324.101 411.907 318.123 416.316 312.292C420.913 306.212 427.175 301.056 432.555 295.667C438.353 289.86 445.344 281.758 454.81 284.832C457.747 285.785 462.45 287.359 464.337 290.02C466.59 293.197 466.856 297.403 467.395 301.1C469.2 313.483 467.514 325.573 466.086 337.847C464.9 348.04 461.397 357.469 459.356 367.442L459.348 367.482C458.285 372.677 456.763 380.117 460.878 384.416C462.702 386.322 465.992 386.407 468.437 386.908C472.586 387.757 475.585 383.1 477.737 380.231C486.329 368.78 492.15 356.035 498.818 343.389C504.965 331.73 511.439 320.225 517.472 308.51C526.199 291.566 537.326 275.981 547.05 259.608C556.911 243.004 567.36 227.003 578.696 211.369C582.633 205.94 586.349 200.368 590.422 195.035C592.156 192.764 593.688 190.34 595.547 188.165C597.684 185.663 600.204 183.528 602.345 181.036C613.802 167.703 627.19 157.291 642.828 149.349C646.165 147.654 649.538 145.996 652.799 144.159C656.12 142.288 659.805 141.294 663.305 139.799C665.878 138.7 668.479 138.063 671.094 137.133C671.843 136.867 675.256 135.802 676.244 131.858C676.695 129.654 675.528 127.296 673.823 125.958C672.203 124.687 670.413 124.037 668.315 123.977C664.774 123.876 661.56 123.909 658.05 124.507C653.503 125.281 648.556 125.959 643.948 125.635C634.878 124.997 626.006 124.932 617.158 122.573C612.258 121.266 607.899 118.767 603.511 116.25L598.947 112.139C599.266 111.809 599.59 111.475 599.918 111.14C604.745 106.209 610.413 100.875 613.682 98.1146C628.418 85.6689 646.965 76.7999 658.172 60.5739C660.727 56.8749 664.626 51.0331 663.44 46.171C662.011 40.3149 645.417 47.9402 642.897 49.206C629.412 55.98 617.126 65.9272 606.962 77.0921C602.164 82.3629 598.138 88.1679 593.566 93.6153C590.388 97.4022 588.131 101.649 585.815 106.006C585.875 105.99 585.191 102.819 585.181 102.471C585.097 99.3945 585.905 96.0954 586.518 93.1002C588.607 82.8871 593.508 73.441 598.903 64.6126C601.501 60.3609 604.96 55.455 605.388 50.3544C605.575 48.1332 605.599 46.0481 604.656 43.9663C603.63 41.7008 601.088 41.8239 599.121 42.8127C597.566 43.5947 596.329 44.7564 594.961 45.8065C592.716 47.5296 590.587 49.352 588.459 51.2172C585.298 53.9871 582.54 57.1089 579.614 60.1141C576.986 62.8141 574.195 65.3521 571.574 68.0567C568.308 71.4265 565.37 75.0885 562.085 78.4432L562.033 78.4956C558.912 81.6829 555.808 84.8529 552.799 88.149C548.2 93.1853 543.431 98.0603 538.77 103.038C532.335 109.91 524.934 119.075 518.668 126.099L518.689 126.083L519.09 125.792C522.347 123.429 524.878 121.592 527.805 120.104C531.152 118.403 538.086 113.592 541.268 111.662C544.139 109.921 553.893 103.384 553.334 107.096C551.942 116.357 550.707 126.098 547.36 134.977C545.113 140.936 540.322 147.47 537.772 153.278C535.18 159.182 532.344 164.883 529.241 170.536C523.332 181.302 516.974 191.538 510.163 201.748C507.127 206.299 503.417 210.381 500.32 214.905C497.817 218.561 495.148 222.046 492.346 225.454L493.254 225.954L496.691 227.601C498.847 228.455 499.463 229.007 501.779 229.218C502.837 229.315 503.9 229.369 504.959 229.459C507.997 229.715 511.006 230.15 514.014 230.634C517.093 231.13 519.962 231.694 522.472 233.588C524.434 235.07 527.063 236.936 527.571 239.527C527.781 240.594 527.747 242.192 527.158 243.14C525.073 246.495 521.134 247.87 517.475 248.659C505.797 251.175 488.454 245.25 477.887 239.891C475.566 241.743 473.182 243.465 470.799 245.006C470.532 245.179 470.251 245.365 469.956 245.56L469.896 245.599L469.628 245.777C468.994 246.196 468.298 246.651 467.539 247.112C467.133 247.359 466.709 247.607 466.266 247.853C462.096 250.168 456.254 252.257 448.304 250.411Z" fill="#AFED3A"/>
<path d="M435.824 204.844C436.627 194.122 438.459 183.578 440.972 173.133C447.693 145.202 467.707 118.627 483.961 94.9551C487.328 90.0523 491.844 85.2834 496.071 81.0931C496.677 80.4926 498.555 78.0137 498.831 79.5779C499.215 81.7511 499.038 83.9301 499.145 86.1237C499.405 91.4692 499.271 96.7744 498.951 102.11C498.608 107.832 498.859 113.675 498.185 119.362C497.523 124.956 495.608 130.522 495.271 136.149C495.168 137.854 495.455 139.578 495.231 141.284C495.195 141.563 495.025 143.715 495.291 143.29C497.215 140.225 499.919 139.562 501.676 138.664C507.618 134.218 510.168 132.138 515.405 128.44M435.824 204.844C435.311 211.687 434.915 218.727 435.772 225.569M435.824 204.844C435.311 211.689 434.915 218.73 435.773 225.574M515.405 128.44C516.585 127.607 517.662 126.828 518.668 126.099M515.405 128.44C516.593 127.601 517.677 126.817 518.689 126.083M435.772 225.569C435.984 225.44 436.921 225.186 437.209 225.141C438.725 224.909 440.284 224.93 441.813 224.872C442.963 224.829 444.078 224.867 445.222 224.994C447.875 225.289 450.326 226.37 452.807 227.276C457.302 228.916 461.36 231.815 463.791 235.996C464.59 237.37 465.203 238.89 465.827 240.349C466.325 241.516 466.561 242.754 466.992 243.944C467.222 244.582 467.39 246.448 467.539 247.112M435.772 225.569C430.86 237.509 421.746 251.088 415.346 262.345C413.029 266.419 410.462 270.345 408.057 274.367C403.739 281.586 399.103 288.729 394.499 295.77C391.464 300.412 388.995 305.499 386.377 310.397C383.737 315.337 381.592 320.254 379.855 325.56C378.38 330.067 372.577 342.921 379.98 345.038C383.597 346.073 386.966 345.055 389.714 342.545C394.227 338.422 398.356 333.866 402.552 329.424C407.581 324.101 411.907 318.123 416.316 312.292C420.913 306.212 427.175 301.056 432.555 295.667C438.353 289.86 445.344 281.758 454.81 284.832C457.747 285.785 462.45 287.359 464.337 290.02C466.59 293.197 466.856 297.403 467.395 301.1C469.2 313.483 467.514 325.573 466.086 337.847C464.9 348.04 461.397 357.469 459.356 367.442L459.348 367.482C458.285 372.677 456.763 380.117 460.878 384.416C462.702 386.322 465.992 386.407 468.437 386.908C472.586 387.757 475.585 383.1 477.737 380.231C486.329 368.78 492.15 356.035 498.818 343.389C504.965 331.73 511.439 320.225 517.472 308.51C526.199 291.565 537.326 275.981 547.05 259.608C556.911 243.004 567.36 227.003 578.696 211.369C582.633 205.94 586.349 200.368 590.422 195.035C592.156 192.764 593.688 190.34 595.547 188.165C597.684 185.663 600.204 183.528 602.345 181.036C613.802 167.703 627.19 157.291 642.828 149.349C646.165 147.654 649.538 145.996 652.799 144.159C656.12 142.288 659.805 141.294 663.305 139.799C665.878 138.7 668.479 138.063 671.094 137.133C671.843 136.867 675.256 135.802 676.244 131.858C676.695 129.654 675.528 127.296 673.823 125.958C672.203 124.687 670.413 124.037 668.315 123.977C664.774 123.876 661.56 123.909 658.05 124.507C653.503 125.281 648.556 125.959 643.948 125.635C634.878 124.997 626.006 124.932 617.158 122.573C612.258 121.266 607.899 118.767 603.511 116.25L598.947 112.139C599.266 111.809 599.59 111.475 599.918 111.14M435.772 225.569L435.773 225.574M435.772 225.569C435.772 225.571 435.773 225.572 435.773 225.574M467.539 247.112C467.133 247.359 466.709 247.607 466.266 247.853M467.539 247.112C468.298 246.651 468.994 246.196 469.628 245.777M477.887 239.891C488.454 245.25 505.797 251.175 517.475 248.659C521.134 247.87 525.073 246.495 527.158 243.14C527.747 242.192 527.781 240.594 527.571 239.527C527.063 236.936 524.434 235.07 522.472 233.588C519.962 231.694 517.093 231.13 514.014 230.634C511.006 230.15 507.997 229.715 504.959 229.459C503.9 229.369 502.837 229.315 501.779 229.218C499.463 229.007 498.847 228.455 496.691 227.601L493.254 225.954L492.346 225.454M477.887 239.891C475.566 241.743 473.182 243.465 470.799 245.006C470.532 245.179 470.251 245.365 469.956 245.56M477.887 239.891C480.84 237.533 483.667 235.057 486.275 232.39M486.275 232.39C487.872 232.717 494.687 236.942 497.795 237.578C503.076 238.658 500.869 239.465 509.483 238.871M486.275 232.39C487.58 231.057 488.847 229.609 490.014 228.239C490.801 227.315 491.578 226.387 492.346 225.454M518.668 126.099C524.934 119.075 532.335 109.91 538.77 103.038C543.431 98.0603 548.2 93.1853 552.799 88.149C555.808 84.8529 558.912 81.6829 562.033 78.4956L562.085 78.4432C565.37 75.0885 568.308 71.4265 571.574 68.0567C574.195 65.3521 576.986 62.8141 579.614 60.1141C582.54 57.1089 585.298 53.9871 588.459 51.2172C590.587 49.352 592.716 47.5296 594.961 45.8065C596.329 44.7564 597.566 43.5947 599.121 42.8127C601.088 41.8239 603.63 41.7008 604.656 43.9663C605.599 46.0481 605.575 48.1332 605.388 50.3544C604.96 55.455 601.501 60.3609 598.903 64.6126C593.508 73.441 588.607 82.8871 586.518 93.1002C585.905 96.0954 585.097 99.3945 585.181 102.471C585.191 102.819 585.875 105.99 585.815 106.006M518.668 126.099L518.689 126.083M518.668 126.099C518.675 126.093 518.682 126.088 518.689 126.083M585.815 106.006L582.315 113.642M585.815 106.006C588.131 101.649 590.388 97.4022 593.566 93.6153C598.138 88.1679 602.164 82.3629 606.962 77.0921C617.126 65.9272 629.412 55.98 642.897 49.206C645.417 47.9402 662.011 40.3149 663.44 46.171C664.626 51.0331 660.727 56.8749 658.172 60.5739C646.965 76.7999 628.418 85.6689 613.682 98.1146C610.413 100.875 604.745 106.209 599.918 111.14M592.837 118.941C594.429 116.913 597.022 114.099 599.918 111.14M435.784 225.663C435.85 226.182 435.923 226.701 436.004 227.218C436.774 232.133 437.387 237.328 439.7 241.731C440.889 243.996 443.499 249.296 448.304 250.411C456.254 252.257 462.096 250.168 466.266 247.853M435.784 225.663L435.773 225.574M435.784 225.663C435.78 225.633 435.777 225.604 435.773 225.574M466.266 247.853C467.538 247.147 468.655 246.42 469.628 245.777M469.896 245.599C469.916 245.586 469.936 245.573 469.956 245.56M469.896 245.599C469.808 245.658 469.719 245.717 469.628 245.777M469.896 245.599L469.956 245.56M469.896 245.599L469.628 245.777M519.09 125.792C522.347 123.429 524.878 121.592 527.805 120.104C531.152 118.403 538.086 113.592 541.268 111.662C544.139 109.921 553.893 103.384 553.334 107.096C551.942 116.357 550.707 126.098 547.36 134.977C545.113 140.936 540.322 147.47 537.772 153.278C535.18 159.182 532.344 164.883 529.241 170.536C523.332 181.302 516.974 191.538 510.163 201.748C507.127 206.299 503.417 210.381 500.32 214.905C497.817 218.561 495.148 222.046 492.346 225.454M519.09 125.792L518.689 126.083M519.09 125.792C518.958 125.888 518.824 125.985 518.689 126.083" stroke="#6D48F1" stroke-width="5" stroke-linecap="round"/>
<path d="M509.054 221.278C516.526 220.762 518.72 210.032 517.472 203.969C517.069 202.013 515.911 200.067 514.604 198.575C513.277 197.059 512.194 195.314 510.626 194.011C507.845 191.698 503.349 189.293 499.569 189.542C496.953 189.715 493.248 190.346 491.493 192.581C490.989 193.224 490.246 194.512 489.143 196.174L496.874 199.014C499.445 200.281 502.177 204.821 502.843 206.559C503.61 208.557 503.928 210.579 503.919 212.714C503.913 213.981 503.942 215.2 503.687 216.449C503.594 216.901 503.653 217.436 503.643 217.895C503.426 218.954 503.121 220.335 502.945 220.603C505.034 221.131 507.168 221.408 509.054 221.278Z" fill="white"/>
<path d="M460.586 189.388C462.82 186.871 463.94 184.727 463.775 180.919C462.805 177.356 460.979 170.513 459.049 167.389C457.431 164.769 454.801 162.038 451.926 160.776C447.396 158.788 442.17 157.791 437.995 160.875C435.93 162.401 434.827 164.101 434.32 166.579C433.995 168.168 433.678 169.87 433.504 171.58L438.986 170.684C440.914 170.771 442.755 171.372 444.449 172.264C447.366 173.8 449.918 176.258 451.621 179.112C453.187 181.74 454.369 184.728 454.804 187.764C454.929 188.636 455.09 189.553 455.105 190.434L454.701 194.524C457.423 193.054 459.178 190.976 460.586 189.388Z" fill="white"/>
<path d="M433.605 176.999C434.272 180.727 435.34 184.498 437.055 187.889C438.207 190.166 439.755 193.073 441.849 194.652C443.78 196.109 450.089 196.594 452.288 195.554C453.17 195.268 453.971 194.918 454.701 194.524L455.105 190.434C455.09 189.553 454.929 188.636 454.804 187.764C454.369 184.728 453.187 181.74 451.621 179.112C449.918 176.258 447.366 173.8 444.449 172.264C442.755 171.372 440.914 170.771 438.986 170.684L433.504 171.58C433.317 173.42 433.295 175.269 433.605 176.999Z" fill="#6D48F2"/>
<path d="M487.652 207.192C489.381 212.578 492.076 215.751 496.89 218.302C498.606 219.211 500.697 220.025 502.842 220.577C502.844 220.577 502.847 220.578 502.849 220.579L502.842 220.577C502.866 220.667 502.902 220.669 502.945 220.603C503.121 220.335 503.426 218.954 503.643 217.895C503.653 217.436 503.594 216.901 503.687 216.449C503.942 215.2 503.913 213.981 503.919 212.714C503.928 210.579 503.61 208.557 502.843 206.559C502.177 204.821 499.445 200.281 496.874 199.014L489.143 196.174C487.652 198.994 486.346 202.987 487.652 207.192Z" fill="#6D48F2"/>
<path d="M496.89 218.302C492.076 215.751 489.381 212.578 487.652 207.192C486.346 202.987 487.652 198.994 489.143 196.174M496.89 218.302C498.606 219.211 500.697 220.025 502.842 220.577M496.89 218.302C498.608 219.212 500.702 220.027 502.849 220.579M502.842 220.577C502.866 220.667 502.902 220.669 502.945 220.603M502.842 220.577L502.849 220.579M502.842 220.577C502.844 220.577 502.847 220.578 502.849 220.579M502.945 220.603C503.121 220.335 503.426 218.954 503.643 217.895C503.653 217.436 503.594 216.901 503.687 216.449C503.942 215.2 503.913 213.981 503.919 212.714C503.928 210.579 503.61 208.557 502.843 206.559C502.177 204.821 499.445 200.281 496.874 199.014L489.143 196.174M502.945 220.603C505.034 221.131 507.168 221.408 509.054 221.278C516.526 220.762 518.72 210.032 517.472 203.969C517.069 202.013 515.911 200.067 514.604 198.575C513.277 197.059 512.194 195.314 510.626 194.011C507.845 191.698 503.349 189.293 499.569 189.542C496.953 189.715 493.248 190.346 491.493 192.581C490.989 193.224 490.246 194.512 489.143 196.174M502.945 220.603C502.913 220.595 502.881 220.587 502.849 220.579M502.945 220.603L502.849 220.579M458.433 149.362C460.242 146.11 466.807 147.059 469.715 148.59C470.475 148.989 470.844 148.929 470.663 149.811M500.002 163.258C503.257 161.203 507.212 167.62 508.234 170.076C508.7 171.195 509.054 172.448 509.724 173.462M433.504 171.58C433.678 169.87 433.995 168.168 434.32 166.579C434.827 164.101 435.93 162.401 437.995 160.875C442.17 157.791 447.396 158.788 451.926 160.776C454.801 162.038 457.431 164.769 459.049 167.389C460.979 170.513 462.805 177.356 463.775 180.919C463.94 184.727 462.82 186.871 460.586 189.388C459.178 190.976 457.423 193.054 454.701 194.524M433.504 171.58C433.317 173.42 433.295 175.269 433.605 176.999C434.272 180.727 435.34 184.498 437.055 187.889C438.207 190.166 439.755 193.073 441.849 194.652C443.78 196.109 450.089 196.594 452.288 195.554C453.17 195.268 453.971 194.918 454.701 194.524M433.504 171.58L438.986 170.684C440.914 170.771 442.755 171.372 444.449 172.264C447.366 173.8 449.918 176.258 451.621 179.112C453.187 181.74 454.369 184.728 454.804 187.764C454.929 188.636 455.09 189.553 455.105 190.434L454.701 194.524M594.19 162.412C597.611 162.459 600.995 162.694 604.342 162.376M602.402 151.199C606.483 149.934 618.687 146.148 614.482 146.907M530.545 213.425C534.795 212.913 538.977 212.064 543.186 211.288M539.271 190.016C540.889 184.493 550.606 186.274 552.771 181.755M555.795 147.731C556.886 144.356 562.695 141.245 564.985 139.376" stroke="#6D48F2" stroke-width="5" stroke-linecap="round"/>
<path d="M135.818 367.028C132.665 367.34 130.694 368.552 127.982 369.608C119.267 373.001 115.485 380.526 113.546 384.095C111.666 387.554 112.381 391.477 112.256 399.481C112.15 406.31 117.814 412.784 122.366 417.176C127.856 422.473 136.436 423.974 146.058 424.818C151.827 425.324 158.373 424.211 165.416 421.559C169.571 419.995 175.678 418.403 181.841 410.582C187.747 403.089 187.412 398.346 187.691 389C187.823 384.584 182.612 376.91 181.532 375.446C179.31 372.434 174.279 368.241 169.241 367.364C162.626 366.212 158.358 365.559 152.083 365.121C148.068 365.38 145.306 365.75 141.842 365.907C140.964 365.999 136.777 366.85 135.818 367.028Z" fill="#8F71FD"/>
<path fill-rule="evenodd" clip-rule="evenodd" d="M128.334 350.386C123.345 350.877 120.229 352.801 115.938 354.476C102.153 359.857 96.179 371.817 93.1166 377.487C90.1472 382.985 91.2843 389.222 91.0982 401.949C90.9394 412.805 99.9118 423.106 107.121 430.095C115.816 438.525 129.394 440.924 144.622 442.28C153.75 443.093 164.107 441.333 175.248 437.127C181.82 434.646 191.482 432.123 201.223 419.699C210.556 407.794 210.02 400.253 210.448 385.394C210.65 378.373 202.394 366.164 200.682 363.835C197.162 359.044 189.195 352.37 181.221 350.968C170.753 349.128 163.998 348.083 154.068 347.377C147.716 347.783 143.345 348.368 137.864 348.612C136.475 348.758 129.852 350.104 128.334 350.386ZM127.982 369.608C130.694 368.552 132.665 367.34 135.818 367.028C136.777 366.85 140.964 365.999 141.842 365.907C145.306 365.75 148.068 365.38 152.083 365.121C158.358 365.559 162.626 366.212 169.241 367.364C174.279 368.241 179.31 372.434 181.532 375.446C182.612 376.91 187.823 384.584 187.691 389C187.412 398.346 187.747 403.089 181.841 410.582C175.678 418.403 169.571 419.995 165.416 421.559C158.373 424.211 151.827 425.324 146.058 424.818C136.436 423.974 127.856 422.473 122.366 417.176C117.814 412.784 112.15 406.31 112.256 399.481C112.381 391.477 111.666 387.554 113.546 384.095C115.485 380.526 119.267 373.001 127.982 369.608Z" fill="#8F71FD"/>
<path d="M135.818 367.028C132.665 367.34 130.694 368.552 127.982 369.608C119.267 373.001 115.485 380.526 113.546 384.095C111.666 387.554 112.381 391.477 112.256 399.481C112.15 406.31 117.814 412.784 122.366 417.176C127.856 422.473 136.436 423.974 146.058 424.818C151.827 425.324 158.373 424.211 165.416 421.559C169.571 419.995 175.678 418.403 181.841 410.582C187.747 403.089 187.412 398.346 187.691 389C187.823 384.584 182.612 376.91 181.532 375.446C179.31 372.434 174.279 368.241 169.241 367.364C162.626 366.212 158.358 365.559 152.083 365.121C148.068 365.38 145.306 365.75 141.842 365.907C140.964 365.999 136.777 366.85 135.818 367.028Z" stroke="#6D48F2" stroke-width="5" stroke-linecap="round"/>
<path fill-rule="evenodd" clip-rule="evenodd" d="M128.334 350.386C123.345 350.877 120.229 352.801 115.938 354.476C102.153 359.857 96.179 371.817 93.1166 377.487C90.1472 382.985 91.2843 389.222 91.0982 401.949C90.9394 412.805 99.9118 423.106 107.121 430.095C115.816 438.525 129.394 440.924 144.622 442.28C153.75 443.093 164.107 441.333 175.248 437.127C181.82 434.646 191.482 432.123 201.223 419.699C210.556 407.794 210.02 400.253 210.448 385.394C210.65 378.373 202.394 366.164 200.682 363.835C197.162 359.044 189.195 352.37 181.221 350.968C170.753 349.128 163.998 348.083 154.068 347.377C147.716 347.783 143.345 348.368 137.864 348.612C136.475 348.758 129.852 350.104 128.334 350.386ZM127.982 369.608C130.694 368.552 132.665 367.34 135.818 367.028C136.777 366.85 140.964 365.999 141.842 365.907C145.306 365.75 148.068 365.38 152.083 365.121C158.358 365.559 162.626 366.212 169.241 367.364C174.279 368.241 179.31 372.434 181.532 375.446C182.612 376.91 187.823 384.584 187.691 389C187.412 398.346 187.747 403.089 181.841 410.582C175.678 418.403 169.571 419.995 165.416 421.559C158.373 424.211 151.827 425.324 146.058 424.818C136.436 423.974 127.856 422.473 122.366 417.176C117.814 412.784 112.15 406.31 112.256 399.481C112.381 391.477 111.666 387.554 113.546 384.095C115.485 380.526 119.267 373.001 127.982 369.608Z" stroke="#6D48F2" stroke-width="5" stroke-linecap="round"/>
<path d="M204.526 334.607C209.033 332.514 220.991 326.553 237.193 317.999C251.798 308.257 257.631 304.144 263.918 298.808C265.406 297.473 266.63 296.516 268.407 294.228M232.882 359.236C245.656 353.209 258.43 347.182 269.395 341.539C280.36 335.896 289.13 330.819 293.882 327.924C298.635 325.029 299.105 324.469 300.031 323.917M240.508 397.799C243.831 395.934 246.313 394.283 248.16 392.838C249.238 392.081 250.6 391.278 252.148 390.106C253.696 388.935 255.39 387.418 258.535 384.603" stroke="#6D48F2" stroke-width="5" stroke-linecap="round"/>
</svg>
