<svg width="405" height="342" viewBox="0 0 405 342" fill="none" xmlns="http://www.w3.org/2000/svg">
<path d="M127.151 83.5012C126.853 82.8639 130.243 86.2143 130.654 86.703C133.013 89.5075 135.756 91.459 138.885 93.3079C140.72 94.3924 142.347 95.7137 143.981 97.0797C146.083 98.8367 148.839 99.9583 151.223 101.304C170.47 112.169 192.649 109.038 212.812 102.058C215.071 101.277 217.055 100.057 219.233 99.1081C221.149 98.2729 220.456 99.6181 219.853 100.868C218.378 103.927 217.433 107.149 215.93 110.189C215.287 111.49 215.079 113.028 214.053 114.111C213.586 114.604 212.87 115.208 212.611 115.855C212.112 117.102 213.316 116.935 214.489 116.559C216.459 115.927 218.356 115.213 220.389 114.732C223.227 114.059 226.127 114.276 228.989 113.81C235.098 112.815 241.012 111.134 247.077 109.921C248.38 109.66 250.509 108.925 248.921 111.027C247.719 112.618 246.334 114.038 244.898 115.419C242.463 117.76 240.587 120.564 238.494 123.18C236.85 125.236 239.312 124.571 241.31 124.538C243.736 124.499 246.25 123.228 248.619 122.728C252.338 121.943 255.975 120.864 259.717 120.146C262.648 119.584 265.53 118.864 268.501 118.503C269.691 118.359 273.129 117.64 272.088 118.235C267.896 120.631 264.976 125.296 261.292 128.31C259.933 129.423 257.954 130.452 256.833 131.713C256.434 132.162 259.059 132.953 259.147 132.987C261.154 133.776 263.215 134.3 264.377 136.306C264.832 137.092 267.542 137.847 268.367 138.435C270.73 140.123 273.202 141.384 275.743 142.777C279.262 144.707 283.387 146.066 286.572 148.544C293.951 154.283 302.072 159.594 308.348 166.766C311.544 170.419 315.85 172.82 318.992 176.606L319.124 176.764L319.124 176.764C322.705 181.078 326.29 185.396 329.554 189.95C332.02 193.391 335.191 196.581 337.013 200.427C339.364 205.39 342.573 210.331 345.278 215.162C351.771 226.757 355.283 239.388 357.381 252.444C359.878 267.981 357.683 284.194 357.683 299.801V308.099C357.683 308.584 357.967 307.14 358.286 306.775C358.866 306.112 359.348 305.302 359.728 304.512C361.328 301.187 362.291 297.111 363.483 293.615C368.886 277.765 372.339 260.728 374.262 244.062C375.035 237.359 373.623 230.713 374.044 223.98C374.371 218.751 375.28 213.582 376.223 208.44C376.909 204.699 377.092 201.015 378.486 197.443C379.716 194.292 380.871 191.251 382.359 188.206C382.864 187.173 383.734 182.775 385.141 182.775C391.244 182.775 393.4 186.385 396.306 191.358C400.409 198.38 401.517 205.974 401.72 214.022L401.722 214.1C402.01 225.479 402.311 237.362 400.698 248.656C400.196 252.17 400.505 255.644 399.625 259.116C398.724 262.668 397.928 266.141 396.909 269.677C394.808 276.972 392.889 284.276 390.204 291.403C386.459 301.342 381.014 309.493 372.099 315.542C366.956 319.032 362.627 322.789 356.777 325.064C341.718 330.92 325.005 330.186 309.353 334.099C298.1 336.913 285.444 338.776 273.798 338.776C268.832 338.776 264.106 339.185 259.18 338.407C253.666 337.537 248.298 335.25 243.322 332.808C237.563 329.983 231.972 326.476 237.829 320.618C235.375 319.261 230.877 318.301 229.221 318.301C226.011 318.301 210.562 312.38 210.269 313.649C210.268 313.655 210.267 313.66 210.266 313.666C209.708 316.826 209.527 320.369 208.169 322.935C205.397 328.17 203.698 336.432 196.87 338.139C192.467 339.24 188.055 337.902 186.225 333.412C183.753 327.344 182.899 320.44 182.573 313.666C178.236 314.659 173.371 312.972 172.345 312.223C170.318 310.741 169.845 308.323 170.952 306.713C172.938 303.402 174.328 303.024 176.249 301.085C178.567 299.76 178.981 299.942 182.151 300.091C181.548 290.251 179.797 280.779 177.542 271.052C176.754 267.654 176.077 261.78 173.384 259.183C171.666 257.526 169.348 258.004 167.283 258.211C164.097 258.529 161.872 263.478 160.761 265.955C156.776 274.847 152.457 283.669 147.669 292.157C145.911 295.273 144.629 298.794 142.674 301.762C140.566 304.963 138.684 307.872 137.075 311.385C134.645 316.685 132.242 324.933 127.452 328.634C125.041 330.497 120.7 330.215 118.383 328.333C116.057 326.442 116.59 323.161 116.59 320.521C116.59 310.241 118.962 299.644 121.25 289.659C124.381 275.998 126.875 261.898 127.989 247.918C128.658 239.513 129.263 231.242 129.263 222.806C129.263 218.169 128.716 212.721 126.782 208.423C122.326 198.521 116.301 188.152 108.979 180.059C105.275 175.965 101.636 171.517 97.4792 167.889C95.2637 165.955 92.9909 163.917 90.9414 161.804C88.8183 159.614 78.048 151.666 77.9197 148.459L127.151 83.5012Z" fill="#AFED3A"/>
<path d="M237.829 320.618C231.972 326.476 237.563 329.983 243.322 332.808C248.298 335.25 253.666 337.537 259.18 338.407C264.106 339.185 268.832 338.776 273.798 338.776C285.444 338.776 298.1 336.913 309.353 334.099C325.005 330.186 341.718 330.92 356.777 325.064C362.627 322.789 366.956 319.032 372.099 315.542C381.014 309.493 386.459 301.342 390.204 291.403C392.889 284.276 394.808 276.972 396.909 269.677C397.928 266.141 398.724 262.668 399.625 259.116C400.505 255.644 400.196 252.17 400.698 248.656C402.311 237.362 402.011 225.479 401.722 214.099L401.72 214.022C401.517 205.974 400.409 198.38 396.306 191.358C393.4 186.385 391.244 182.775 385.141 182.775C383.734 182.775 382.864 187.173 382.359 188.206C380.871 191.251 379.716 194.292 378.486 197.443C377.092 201.015 376.909 204.699 376.223 208.44C375.28 213.582 374.371 218.751 374.044 223.98C373.623 230.713 375.035 237.359 374.262 244.062C372.339 260.728 368.886 277.765 363.483 293.615C362.291 297.111 361.328 301.187 359.728 304.512C359.347 305.302 358.866 306.112 358.286 306.775C357.967 307.14 357.683 308.584 357.683 308.099V299.801C357.683 284.194 359.878 267.981 357.381 252.444C355.283 239.388 351.771 226.757 345.278 215.162C342.573 210.331 339.364 205.39 337.013 200.427C335.191 196.581 332.02 193.391 329.554 189.95C326.29 185.396 322.705 181.078 319.124 176.764L318.992 176.606C315.85 172.82 311.544 170.419 308.348 166.766C302.072 159.594 293.951 154.283 286.572 148.544C283.387 146.066 279.262 144.707 275.743 142.777C273.202 141.384 270.73 140.123 268.367 138.435C267.542 137.847 264.832 137.092 264.377 136.306C263.215 134.3 261.154 133.776 259.147 132.987C259.059 132.953 256.434 132.162 256.833 131.713C257.954 130.452 259.933 129.423 261.292 128.31C264.976 125.296 267.896 120.631 272.088 118.235C273.129 117.64 269.691 118.359 268.501 118.503C265.53 118.864 262.648 119.584 259.717 120.146C255.975 120.864 252.338 121.943 248.619 122.728C246.25 123.228 243.736 124.499 241.31 124.538C239.312 124.571 236.85 125.236 238.494 123.18C240.587 120.564 242.463 117.76 244.898 115.419C246.334 114.038 247.719 112.618 248.921 111.027C250.509 108.925 248.38 109.66 247.077 109.921C241.012 111.134 235.098 112.815 228.989 113.81C226.127 114.276 223.227 114.059 220.389 114.732C218.356 115.213 216.459 115.927 214.489 116.559C213.316 116.935 212.112 117.102 212.611 115.855C212.87 115.208 213.586 114.604 214.053 114.111C215.079 113.028 215.287 111.49 215.93 110.189C217.433 107.149 218.378 103.927 219.853 100.868C220.456 99.6181 221.149 98.2729 219.233 99.1081C217.055 100.057 215.071 101.277 212.812 102.058C192.649 109.038 170.47 112.169 151.223 101.304C148.839 99.9583 146.083 98.8367 143.981 97.0797C142.347 95.7137 140.72 94.3924 138.885 93.3079C135.756 91.459 133.013 89.5075 130.654 86.703C130.243 86.2143 126.853 82.8639 127.151 83.5012L77.9197 148.459C78.048 151.666 88.8183 159.614 90.9414 161.804C92.9909 163.917 95.2637 165.955 97.4792 167.889C101.636 171.517 105.275 175.965 108.979 180.059C116.301 188.152 122.326 198.521 126.782 208.423C128.716 212.721 129.263 218.169 129.263 222.806C129.263 231.242 128.658 239.513 127.989 247.918C126.875 261.898 124.381 275.998 121.25 289.659C118.962 299.644 116.59 310.241 116.59 320.521C116.59 323.161 116.057 326.442 118.383 328.333C120.7 330.215 125.041 330.497 127.452 328.634C132.242 324.933 134.645 316.685 137.075 311.385C138.684 307.872 140.566 304.963 142.674 301.762C144.629 298.793 145.911 295.273 147.669 292.157C152.457 283.669 156.776 274.847 160.761 265.955C161.872 263.478 164.097 258.529 167.283 258.211C169.348 258.004 171.666 257.526 173.384 259.183C176.077 261.78 176.754 267.654 177.542 271.052C180.244 282.705 182.222 293.993 182.37 305.987C182.481 315.026 182.806 325.018 186.225 333.412C188.055 337.902 192.467 339.24 196.87 338.139C203.698 336.432 205.397 328.17 208.169 322.935C209.921 319.626 209.714 314.692 210.884 311.049C213.179 303.912 212.494 296.371 213.164 288.888C213.739 282.466 214.653 276.015 215.712 269.66C216.437 265.31 217.975 261.136 218.747 256.836C219.131 254.695 220.425 253.424 221.529 251.639C222.333 250.341 223.185 250.578 224.295 249.745C225.253 249.027 230.098 246.797 230.95 247.65M237.829 320.618C240.537 317.911 246.006 314.938 249.524 314.938M237.829 320.618C235.375 319.261 230.877 318.301 229.221 318.301C225.998 318.301 210.433 312.331 210.266 313.666M249.524 314.938C255.59 314.938 261.615 315.442 267.629 315.542C272.145 315.617 276.639 316.162 281.124 316.706L281.476 316.749C283.82 317.033 286.338 317.127 288.634 317.637C291.215 318.211 283.235 316.521 281.224 314.804C266.928 302.6 263.394 279.929 268.367 262.737C270.75 254.497 275.642 247.812 283.571 244.331C286.473 243.057 289.552 242.867 292.573 241.9C295.586 240.936 298.919 239.804 302.112 239.804C306.795 239.804 310.22 242.63 314.299 244.398C315.385 244.868 319.743 246.403 317.853 247.348M249.524 314.938C244.822 313.88 231.059 311.642 226.525 309.977C223.828 308.986 221.155 307.477 218.747 305.886C217.263 304.906 213.839 302.631 212.553 301.416M182.151 300.091C178.981 299.942 178.567 299.76 176.249 301.085C174.328 303.024 172.938 303.402 170.952 306.713C169.845 308.323 170.318 310.741 172.345 312.223C173.371 312.972 178.236 314.659 182.573 313.666" stroke="#6D48F2" stroke-width="5" stroke-linecap="round"/>
<path d="M69.9504 192.651C63.5249 186.226 57.4839 179.071 51.9802 171.879C52.4663 171.318 68.8358 151.06 69.5757 150.849C70.0145 150.723 71.3239 152.381 71.7439 152.696C72.8677 153.538 73.7598 154.952 74.7686 155.961C77.3825 158.575 79.5245 161.75 81.8532 164.616C83.1929 166.265 84.775 167.72 85.9933 169.47C87.3386 171.402 88.6086 173.388 89.9728 175.306C91.3766 177.279 92.6681 179.335 94.0594 181.319C95.5616 183.462 97.2667 185.239 98.3423 187.672C100.077 191.598 102.997 196.947 101.162 201.324C100.523 202.847 99.9747 204.095 98.2887 204.679C96.761 205.208 95.3213 205.47 93.7025 205.446C89.0268 205.377 84.2752 202.969 80.2293 200.896C76.3004 198.882 73.0432 195.744 69.9504 192.651Z" fill="#EF9169"/>
<path d="M59.7108 162.416C61.3203 165.57 63.9331 168.417 66.0423 171.29C67.5484 173.342 69.0967 175.429 70.7267 177.385C73.4725 180.68 75.6852 184.006 79.1764 186.566C80.668 187.66 81.9949 189.268 83.7448 189.992C84.1873 190.175 86.2599 191.17 85.5472 190.992M51.9802 171.879C57.4839 179.071 63.5249 186.226 69.9504 192.651C73.0432 195.744 76.3004 198.882 80.2293 200.896C84.2752 202.969 89.0268 205.377 93.7025 205.446C95.3213 205.47 96.761 205.208 98.2887 204.679C99.9747 204.095 100.523 202.847 101.162 201.324C102.997 196.947 100.077 191.598 98.3423 187.672C97.2667 185.239 95.5616 183.462 94.0594 181.319C92.6681 179.335 91.3766 177.279 89.9728 175.306C88.6086 173.388 87.3386 171.402 85.9933 169.47C84.775 167.72 83.1929 166.265 81.8532 164.616C79.5245 161.75 77.3825 158.575 74.7686 155.961C73.7598 154.952 72.8677 153.538 71.7439 152.696C71.3239 152.381 70.0145 150.723 69.5757 150.849C68.8358 151.06 52.4663 171.318 51.9802 171.879Z" stroke="#6D48F2" stroke-width="5" stroke-linecap="round"/>
<path fill-rule="evenodd" clip-rule="evenodd" d="M40.3237 185.243V185.243L40.1787 185.316L40.1768 185.317L40.1787 185.316C40.2272 185.291 40.2755 185.267 40.3237 185.243Z" fill="#AFED3A"/>
<path fill-rule="evenodd" clip-rule="evenodd" d="M40.3237 185.243V185.243L40.1787 185.316L40.1768 185.317L40.1787 185.316C40.2272 185.291 40.2755 185.267 40.3237 185.243Z" fill="#6D48F2"/>
<path d="M15.9642 113.5C12.9426 121.096 9.28417 129 7.80415 137.091C7.28393 139.935 6.64006 142.83 5.98233 145.756C5.93848 145.951 5.89457 146.146 5.85063 146.341C5.3719 148.469 4.88972 150.612 4.44615 152.763C10.3699 152.589 15.7668 154.635 20.5606 158.072C23.0526 159.859 25.3429 161.754 27.3202 164.106C27.6561 164.505 27.9798 164.915 28.3026 165.325C28.3241 165.352 28.3455 165.379 28.367 165.407L28.3675 165.407C28.3963 165.444 28.4255 165.481 28.4543 165.517C28.8877 166.068 29.3226 166.616 29.7865 167.14C32.3667 170.053 34.1295 173.309 35.8298 176.76C36.0396 177.186 36.4789 177.917 37.0009 178.786C38.3233 180.988 40.1768 184.075 40.1768 185.317L40.1787 185.316L40.3237 185.243C44.0802 183.347 47.0131 181.538 50.4401 179.58C55.2388 176.838 57.2754 176.008 61.6967 172.627L62.254 172.201L62.2546 172.201L62.2552 172.2C65.5103 169.712 67.7144 168.027 71.0617 165.215C73.822 162.897 75.9969 160.585 78.4894 157.997C82.1643 154.181 86.3882 150.15 89.5071 145.81C93.2201 140.644 96.8778 136.14 100.371 130.797C107.551 119.816 113.471 107.837 119.429 96.1341C121.189 92.676 123.681 89.0788 125.008 85.4285C125.919 82.9254 127.559 79.6788 129.245 77.6172C133.543 72.3645 136.482 65.3052 139.515 59.2397C143.823 50.6248 147.928 41.8878 151.825 33.0684C152.585 31.3472 153.171 29.5599 153.917 27.855C154.271 27.0469 155.21 26.0724 155.399 25.2222C155.447 25.0057 154.23 25.334 154.022 25.3617C152.86 25.5166 151.7 25.8567 150.535 26.0417C147.897 26.4604 144.761 27.2777 142.392 28.5001C138.975 30.2637 135.171 30.7235 131.634 32.0745C123.177 35.3055 114.514 37.6902 106.195 41.3504C101.713 43.3225 97.1272 45.0432 92.6125 46.9299C90.3322 47.8829 86.7439 48.5348 85.6382 51.0622C85.1607 52.1536 85.4638 48.7706 85.4638 48.133V42.9545C85.4638 37.8741 85.2315 32.8085 85.1499 27.7504C85.0451 21.2526 85.4638 14.7944 85.4638 8.30934C85.4638 7.2778 86.1096 3.30819 85.394 2.50317C85.3299 2.43097 83.9026 3.61552 83.7376 3.68882C81.9593 4.47917 80.0895 6.58719 78.751 7.92575C75.5145 11.1622 72.7355 15.4661 69.9458 19.1022C63.2154 27.8743 56.047 36.3333 50.7314 46.093C42.4792 61.2446 33.1686 75.7456 25.7108 91.3392C22.198 98.6843 18.9722 105.938 15.9642 113.5Z" fill="#AFED3A"/>
<path fill-rule="evenodd" clip-rule="evenodd" d="M28.3026 165.325C28.3241 165.352 28.3455 165.379 28.367 165.407L28.3675 165.407C28.3459 165.38 28.3241 165.352 28.3026 165.325Z" fill="#AFED3A"/>
<path d="M2.67799 172.643C3.15024 177.785 5.25093 182.406 8.29236 186.574C12.3664 189.843 16.6643 189.843 17.3325 189.843C18.0335 189.843 19.2939 189.773 20.6071 189.697L20.8705 189.682C22.3211 189.598 23.7948 189.512 24.6162 189.512C27.0654 189.512 29.7176 188.81 32.2466 188.14C33.6194 187.776 34.9558 187.422 36.2039 187.195C37.6457 186.554 38.9552 185.931 40.1768 185.317C40.1768 184.075 38.3233 180.988 37.0009 178.786C36.4789 177.917 36.0396 177.186 35.8298 176.76C34.1295 173.309 32.3667 170.053 29.7865 167.14C29.3226 166.616 28.8877 166.068 28.4543 165.517L28.3675 165.407L28.367 165.407L28.3026 165.325C27.9798 164.915 27.6561 164.505 27.3202 164.106C25.3429 161.754 23.0526 159.859 20.5606 158.072C15.7668 154.635 10.3699 152.589 4.44615 152.763L4.41812 152.899C3.06437 159.488 2.08125 166.145 2.67799 172.643Z" fill="#6D48F2"/>
<path d="M36.2039 187.195C37.6457 186.554 38.9552 185.931 40.1768 185.317M36.2039 187.195C34.9558 187.422 33.6194 187.776 32.2466 188.14C29.7176 188.81 27.0654 189.512 24.6162 189.512C23.7948 189.512 22.3211 189.598 20.8705 189.682M36.2039 187.195C37.6465 186.554 38.9566 185.93 40.1787 185.316M4.44615 152.763C10.3699 152.589 15.7668 154.635 20.5606 158.072C23.0526 159.859 25.3429 161.754 27.3202 164.106C27.6561 164.505 27.9798 164.915 28.3026 165.325M4.44615 152.763C4.43679 152.808 4.42745 152.854 4.41812 152.899M4.44615 152.763C4.88972 150.612 5.3719 148.469 5.85063 146.341M4.44615 152.763L4.41812 152.899M40.1768 185.317C40.1768 184.075 38.3233 180.988 37.0009 178.786C36.4789 177.917 36.0396 177.186 35.8298 176.76C34.1295 173.309 32.3667 170.053 29.7865 167.14C29.3226 166.616 28.8877 166.068 28.4543 165.517M40.1768 185.317L40.1787 185.316M40.1768 185.317L40.1787 185.316M28.3675 165.407V165.407ZM28.3675 165.407L28.367 165.407M28.3675 165.407C28.3459 165.38 28.3241 165.352 28.3026 165.325M28.3675 165.407C28.3963 165.444 28.4255 165.481 28.4543 165.517M28.3675 165.407L28.4543 165.517M20.8705 189.682C20.7826 189.687 20.6946 189.692 20.6071 189.697M20.8705 189.682L20.6071 189.697M20.6071 189.697C19.2939 189.773 18.0335 189.843 17.3325 189.843C16.6643 189.843 12.3664 189.843 8.29236 186.574C5.25093 182.406 3.15024 177.785 2.67799 172.643C2.08125 166.145 3.06437 159.488 4.41812 152.899M4.41812 152.899C4.86937 150.703 5.3618 148.514 5.85063 146.341M40.3237 185.243V185.243ZM40.3237 185.243C44.0802 183.347 47.0131 181.538 50.4401 179.58C55.2388 176.838 57.2754 176.008 61.6967 172.627L62.254 172.201L62.2546 172.201L62.2552 172.2C65.5103 169.712 67.7144 168.027 71.0617 165.215C73.822 162.897 75.9969 160.585 78.4894 157.997C82.1643 154.181 86.3882 150.15 89.5071 145.81C93.2201 140.644 96.8778 136.14 100.371 130.797C107.551 119.816 113.471 107.837 119.429 96.1341C121.189 92.676 123.681 89.0788 125.008 85.4285C125.919 82.9254 127.559 79.6788 129.245 77.6172C133.543 72.3645 136.482 65.3052 139.515 59.2397C143.823 50.6248 147.928 41.8878 151.825 33.0684C152.585 31.3472 153.171 29.5599 153.917 27.855C154.271 27.0469 155.21 26.0724 155.399 25.2222C155.447 25.0057 154.23 25.334 154.022 25.3617C152.86 25.5166 151.7 25.8567 150.535 26.0417C147.897 26.4604 144.761 27.2777 142.392 28.5001C138.975 30.2637 135.171 30.7235 131.634 32.0745C123.177 35.3055 114.514 37.6902 106.195 41.3504C101.713 43.3225 97.1272 45.0432 92.6125 46.9299C90.3322 47.8829 86.7439 48.5348 85.6382 51.0622C85.1607 52.1536 85.4638 48.7706 85.4638 48.133V42.9545C85.4638 37.8741 85.2315 32.8085 85.1499 27.7504C85.0451 21.2526 85.4638 14.7944 85.4638 8.30934C85.4638 7.2778 86.1096 3.30819 85.394 2.50317C85.3299 2.43097 83.9026 3.61552 83.7376 3.68882C81.9593 4.47917 80.0895 6.58719 78.751 7.92575C75.5145 11.1622 72.7355 15.4661 69.9458 19.1022C63.2154 27.8743 56.047 36.3333 50.7314 46.093C42.4792 61.2446 33.1686 75.7456 25.7108 91.3392C22.198 98.6843 18.9722 105.938 15.9642 113.5C12.9426 121.096 9.28417 129 7.80415 137.091C7.28393 139.935 6.64006 142.83 5.98233 145.756C5.93848 145.951 5.89457 146.146 5.85063 146.341M40.3237 185.243L40.1787 185.316M40.3237 185.243C40.2755 185.267 40.2272 185.291 40.1787 185.316M28.3026 165.325C28.3241 165.352 28.3455 165.379 28.367 165.407M28.3026 165.325L28.367 165.407" stroke="#6D48F2" stroke-width="5" stroke-linecap="round"/>
<path fill-rule="evenodd" clip-rule="evenodd" d="M66.3362 120.95C64.6764 126.939 70.7355 132.528 75.2708 135.547C77.1242 136.78 80.4055 138.778 83.7396 140.144C83.2632 139.895 83.2588 139.05 83.2553 138.382C83.254 138.14 83.2529 137.922 83.2296 137.762C82.8487 135.155 83.0914 132.717 83.8444 130.195C84.8408 126.858 86.3894 123.853 88.2616 120.944C88.9718 119.841 89.7344 118.768 90.4954 117.698C90.6184 117.525 90.7413 117.352 90.8639 117.179C90.9442 117.066 93.0713 114.373 93.3116 114.349C90.1159 112.835 86.2809 112.028 83.2449 112.028C82.5982 112.028 82.034 112.015 81.5108 112.003C79.4981 111.956 78.093 111.924 74.9397 112.702C74.6181 112.874 74.1895 112.946 73.6857 113.031C71.7481 113.356 68.6975 113.869 66.3362 120.95Z" fill="white"/>
<path d="M86.2329 141.031C89.6567 142.038 93.4219 142.355 96.9814 142.05C99.7382 141.814 104.003 140.829 104.798 137.759C105.373 135.542 105.25 132.712 105.053 130.452C104.643 125.731 100.62 120.274 97.4063 117.098C96.3173 116.021 94.9017 115.104 93.3305 114.358C93.3242 114.355 93.3179 114.352 93.3116 114.349C93.0713 114.373 90.9442 117.066 90.8639 117.179C90.7413 117.352 90.6184 117.525 90.4954 117.698C89.7344 118.768 88.9718 119.841 88.2616 120.944C86.3894 123.853 84.8408 126.858 83.8444 130.195C83.0914 132.717 82.8487 135.155 83.2296 137.762C83.2529 137.922 83.254 138.14 83.2553 138.382C83.2588 139.05 83.2632 139.895 83.7396 140.144C84.5746 140.487 85.4129 140.789 86.2329 141.031Z" fill="#6D48F2"/>
<path fill-rule="evenodd" clip-rule="evenodd" d="M45.4679 90.8515C40.7913 87.114 36.6519 84.7534 29.7857 84.7534C26.2092 84.7534 22.3796 86.0034 19.4904 88.0672C14.9671 91.2981 17.5111 97.7206 19.278 101.662C21.4632 106.537 25.5437 110.066 29.9981 112.85C31.2179 113.612 32.6653 114.369 34.2174 114.992C33.8929 114.659 33.7263 113.75 33.6052 113.09C33.5745 112.922 33.5466 112.771 33.5199 112.648C33.0953 110.708 32.7409 108.68 33.1157 106.703C33.7088 103.574 35.3854 100.424 37.1245 97.7924C38.4191 95.8334 40.1952 93.7565 42.2912 92.5919C42.3889 92.5377 42.5882 92.4138 42.8425 92.2559C43.6772 91.7375 45.1037 90.8515 45.4679 90.8515Z" fill="white"/>
<path d="M49.7674 94.4398C48.2351 93.1433 46.8288 91.9391 45.4679 90.8515C45.1037 90.8515 43.6772 91.7375 42.8425 92.2559C42.5882 92.4138 42.3889 92.5377 42.2912 92.5919C40.1952 93.7565 38.4191 95.8334 37.1245 97.7924C35.3854 100.424 33.7088 103.574 33.1157 106.703C32.7409 108.68 33.0953 110.708 33.5199 112.648C33.5466 112.771 33.5745 112.922 33.6052 113.09C33.7263 113.75 33.8929 114.659 34.2174 114.992C37.6936 116.386 41.6947 117.106 44.8392 115.696C49.1592 113.759 53.4153 110.178 54.1574 105.231C54.6199 102.148 54.7269 100.005 52.7576 97.473C51.9886 96.4843 51.0045 95.4865 49.7674 94.4398Z" fill="#6D48F2"/>
<path d="M49.7674 94.4398C42.9695 88.6878 38.6499 84.7534 29.7857 84.7534M49.7674 94.4398C51.0045 95.4865 51.9886 96.4843 52.7576 97.473C54.7269 100.005 54.6199 102.148 54.1574 105.231C53.4153 110.178 49.1592 113.759 44.8392 115.696M49.7674 94.4398C48.2351 93.1433 46.8288 91.9391 45.4679 90.8515M29.7857 84.7534C26.2092 84.7534 22.3796 86.0034 19.4904 88.0672C14.9671 91.2981 17.5111 97.7206 19.278 101.662C21.4632 106.537 25.5437 110.066 29.9981 112.85M29.7857 84.7534C36.6519 84.7534 40.7913 87.114 45.4679 90.8515M29.9981 112.85C33.9499 115.319 40.2908 117.735 44.8392 115.696M29.9981 112.85C31.2179 113.612 32.6653 114.369 34.2174 114.992M44.8392 115.696C41.6947 117.106 37.6936 116.386 34.2174 114.992M97.4063 117.098C100.62 120.274 104.643 125.731 105.053 130.452C105.25 132.712 105.373 135.542 104.798 137.759C104.003 140.829 99.7382 141.814 96.9814 142.05C93.4219 142.355 89.6567 142.038 86.2329 141.031C85.4129 140.789 84.5746 140.487 83.7396 140.144M97.4063 117.098C96.313 116.017 94.8903 115.097 93.3116 114.349M97.4063 117.098C96.3173 116.021 94.9017 115.104 93.3305 114.358M34.2174 114.992C33.8929 114.659 33.7263 113.75 33.6052 113.09C33.5745 112.922 33.5466 112.771 33.5199 112.648C33.0953 110.708 32.7409 108.68 33.1157 106.703C33.7088 103.574 35.3854 100.424 37.1245 97.7924C38.4191 95.8334 40.1952 93.7565 42.2912 92.5919C42.3889 92.5377 42.5882 92.4138 42.8425 92.2559C43.6772 91.7375 45.1037 90.8515 45.4679 90.8515M83.8444 140.187C83.8071 140.176 83.7723 140.162 83.7396 140.144M93.3305 114.358C93.327 114.351 93.3207 114.348 93.3116 114.349M93.3305 114.358C93.3242 114.355 93.3179 114.352 93.3116 114.349M83.7396 140.144C80.4055 138.778 77.1242 136.78 75.2708 135.547C70.7355 132.528 64.6764 126.939 66.3362 120.95C68.6975 113.869 71.7481 113.356 73.6857 113.031C74.1895 112.946 74.6181 112.874 74.9397 112.702C78.093 111.924 79.4981 111.956 81.5108 112.003C82.034 112.015 82.5982 112.028 83.2449 112.028C86.2809 112.028 90.1159 112.835 93.3116 114.349M83.7396 140.144C83.2632 139.895 83.2588 139.05 83.2553 138.382C83.254 138.14 83.2529 137.922 83.2296 137.762C82.8487 135.155 83.0914 132.717 83.8444 130.195C84.8408 126.858 86.3894 123.853 88.2616 120.944C88.9718 119.841 89.7344 118.768 90.4954 117.698C90.6184 117.525 90.7413 117.352 90.8639 117.179C90.9442 117.066 93.0713 114.373 93.3116 114.349" stroke="#6D48F2" stroke-width="5" stroke-linecap="round"/>
<path d="M174.757 132.682C177.452 133.598 191.32 135.993 191.32 132.006M178.137 149.922C180.85 153.524 183.708 157.045 186.7 160.419C187.314 161.112 187.264 160.996 187.264 160.401M261.631 160.401C263.422 160.998 265.115 161.407 267.002 161.715C267.968 161.873 276.395 162.985 276.166 163.443M263.321 175.612C267.428 181.088 277.537 198.974 274.476 192.852M335.321 270.599C335.873 275.66 336.241 280.738 336.674 285.81M321.462 276.007C320.955 279.275 319.266 282.936 316.899 285.303C316.414 285.788 315.716 287.174 315.716 286.148M226.137 184.739C227.473 188.395 228.489 192.095 229.18 195.894M47.657 71.8364C51.8415 70.3454 58.6673 71.6557 61.967 74.8036C62.5377 75.3481 63.0738 76.3634 62.5303 76.9069M87.8827 91.7802C91.2257 90.858 93.1337 92.5018 96.0142 94.4281C98.1737 95.8723 101.453 97.5558 102.155 100.306C102.313 100.926 103.094 102.244 103.094 100.907" stroke="#6D48F2" stroke-width="5" stroke-linecap="round"/>
</svg>
