<svg width="604" height="700" viewBox="0 0 604 700" fill="none" xmlns="http://www.w3.org/2000/svg">
<path d="M499.076 691.62C514.646 668.467 499.076 635.623 499.076 635.623C484.761 602.055 477.569 578.378 467.399 547.858C465.411 553.338 463.674 560.175 460.957 565.626C452.904 581.779 443.24 595.24 431.965 603.317C428.392 605.876 423.583 608.368 418.543 610.316C422.507 617.616 425.322 622.528 426.596 624.316C434.649 635.623 483.506 714.773 499.076 691.62Z" fill="#AFED3A"/>
<path d="M557.839 502.629C554.893 520.414 547.864 536.135 532.363 544.089C527.3 546.687 521.224 547.385 515.119 546.935C516.654 549.294 521.528 557.678 523.773 572.088C526.457 589.317 539.342 676.544 564.039 658.237C588.331 640.23 587.125 587.164 586.105 573.679C585.161 561.211 561.159 445.707 557.543 428.35C561.5 467.139 558.974 495.777 557.839 502.629Z" fill="#AFED3A"/>
<path d="M321.903 228.566C317.608 237.181 344.452 371.789 378.276 415.941C385.792 407.865 411.026 390.635 427.133 385.789C443.239 380.943 453.977 383.635 461.493 399.788C469.01 415.941 462.567 422.941 452.366 431.556C448.171 435.099 443.431 438.642 438.407 441.923C438.407 441.923 420.153 453.093 407.113 456.329C420.706 475.371 431.673 489.427 441.629 500.461C446.199 505.527 450.556 509.955 454.856 513.936C455.818 514.827 456.777 515.696 457.736 516.544C462.868 521.088 467.968 525.05 473.305 528.757C478.541 532.395 484.004 535.787 489.948 539.243C479.211 493.346 535.584 473.554 557.839 502.629C558.927 496.06 560.682 464.815 557.088 426.171C557.088 426.171 557.248 426.934 557.543 428.35C556.474 417.878 554.933 406.665 552.765 394.942L551.154 386.919C539.287 390.038 525.601 392.305 518.94 390.635C508.202 387.942 502.297 390.635 497.465 371.789C492.633 352.944 516.256 340.56 516.256 340.56C516.256 340.56 527.715 333.344 538.805 327.95L537.195 319.561C521.015 242.027 455.051 133.801 448.608 141.339C444.622 146.003 442.568 162.827 441.111 177.466C440.949 179.098 440.794 180.703 440.644 182.26L440.519 183.564C439.897 190.06 439.366 195.607 438.784 198.683C436.797 209.182 429.712 249.026 428.959 256.026C428.206 263.026 424.448 293.717 421.764 298.024C419.08 302.331 395.457 283.486 389.014 278.102C382.571 272.717 361.096 256.026 356.801 250.642C352.506 245.257 326.198 219.951 321.903 228.566Z" fill="#AFED3A"/>
<path d="M532.363 544.089C547.864 536.135 554.893 520.414 557.839 502.629C535.584 473.554 479.211 493.346 489.948 539.243C495.877 542.696 505.535 546.23 515.119 546.935C521.224 547.385 527.3 546.687 532.363 544.089Z" fill="#6D48F1"/>
<path d="M461.493 399.788C453.977 383.635 443.239 380.943 427.133 385.789C427.133 385.789 416.395 397.634 421.764 415.941C427.133 434.248 438.407 441.923 438.407 441.923C443.431 438.642 448.171 435.099 452.366 431.556C462.567 422.941 469.01 415.941 461.493 399.788Z" fill="#6D48F1"/>
<path d="M586.051 322.792C577.998 317.946 564.039 319.561 551.69 322.792C551.69 322.792 546.858 338.407 551.69 355.098C556.523 371.789 568.871 380.943 568.871 380.943C579.071 376.097 596.789 363.713 599.474 347.56C602.158 331.407 594.105 327.638 586.051 322.792Z" fill="#6D48F1"/>
<path d="M427.133 385.789C411.026 390.635 385.792 407.865 378.276 415.941C370.759 424.018 359.485 435.325 366.464 449.863C372.135 461.674 394.073 459.565 407.113 456.329C420.153 453.093 438.407 441.923 438.407 441.923C438.407 441.923 427.133 434.248 421.764 415.941C416.395 397.634 427.133 385.789 427.133 385.789Z" fill="white"/>
<path d="M516.256 340.56C516.256 340.56 492.633 352.944 497.465 371.789C502.297 390.635 508.202 387.942 518.94 390.635C525.601 392.305 539.287 390.038 551.154 386.919C558.417 385.01 564.998 382.783 568.871 380.943C568.871 380.943 556.523 371.789 551.69 355.098C546.858 338.407 551.69 322.792 551.69 322.792C548.042 323.746 543.456 325.688 538.805 327.95C527.715 333.344 516.256 340.56 516.256 340.56Z" fill="white"/>
<path d="M378.276 415.941C344.452 371.789 317.608 237.181 321.903 228.566C326.198 219.951 352.506 245.257 356.801 250.642C361.096 256.026 382.571 272.717 389.014 278.102C395.457 283.486 419.08 302.331 421.764 298.024C424.448 293.717 428.206 263.026 428.959 256.026C429.712 249.026 436.797 209.182 438.784 198.683C439.366 195.607 439.897 190.06 440.519 183.564L440.644 182.26C360.022 88.5724 266.604 30.9603 263.919 32.037C261.235 33.1136 269.825 61.6507 271.436 72.4194C273.046 83.1881 202.714 11.038 197.345 15.3455C191.976 19.6529 215.599 54.1126 208.62 60.5738C201.64 67.035 128.087 -0.269167 121.644 4.03831C115.201 8.3458 166.206 57.3434 131.845 39.5748C97.4841 21.8062 -26 4.03831 -26 4.03831V272.179C-26 272.179 112.517 228.566 234.927 355.098C313.009 435.809 366.701 518.776 397.067 571.01C404.667 564.431 409.952 562.396 420.153 550.012C433.713 532.324 439.015 521.668 441.629 500.461C431.673 489.427 420.706 475.371 407.113 456.329C394.073 459.565 372.135 461.674 366.464 449.863C359.485 435.325 370.759 424.018 378.276 415.941Z" fill="#AFED3A"/>
<path d="M389.551 576.933C379.887 585.01 372.371 593.086 385.793 606.547C394.962 615.743 407.676 614.516 418.543 610.316C423.583 608.368 428.392 605.876 431.965 603.317C443.24 595.24 452.904 581.779 460.957 565.626C463.674 560.175 465.411 553.338 467.399 547.858C471.303 537.098 472.768 531.705 472.768 531.705L473.305 528.757C467.968 525.05 462.868 521.088 457.736 516.544C456.777 515.696 455.818 514.827 454.856 513.936C450.556 509.955 446.199 505.527 441.629 500.461C439.015 521.668 433.713 532.324 420.153 550.012C409.952 562.396 404.667 564.431 397.067 571.01C395.294 572.546 391.379 575.405 389.551 576.933Z" fill="#EF9169"/>
<path d="M378.276 415.941C344.452 371.789 317.608 237.181 321.903 228.566C326.198 219.951 352.506 245.257 356.801 250.642C361.096 256.026 382.571 272.717 389.014 278.102C395.457 283.486 419.08 302.331 421.764 298.024C424.448 293.717 428.206 263.026 428.959 256.026C429.712 249.026 436.797 209.182 438.784 198.683C439.366 195.607 439.897 190.06 440.519 183.564M378.276 415.941C385.792 407.865 411.026 390.635 427.133 385.789M378.276 415.941C370.759 424.018 359.485 435.325 366.464 449.863C372.135 461.674 394.073 459.565 407.113 456.329M489.948 539.243C479.211 493.346 535.584 473.554 557.839 502.629M489.948 539.243C495.877 542.696 505.535 546.23 515.119 546.935M489.948 539.243C484.004 535.787 478.541 532.395 473.305 528.757M557.839 502.629C554.893 520.414 547.864 536.135 532.363 544.089C527.3 546.687 521.224 547.385 515.119 546.935M557.839 502.629C558.927 496.06 560.682 464.815 557.088 426.171C557.088 426.171 557.248 426.934 557.543 428.35M557.839 502.629C558.974 495.777 561.5 467.139 557.543 428.35M427.133 385.789C443.239 380.943 453.977 383.635 461.493 399.788C469.01 415.941 462.567 422.941 452.366 431.556C448.171 435.099 443.431 438.642 438.407 441.923M427.133 385.789C427.133 385.789 416.395 397.634 421.764 415.941C427.133 434.248 438.407 441.923 438.407 441.923M551.69 322.792C564.039 319.561 577.998 317.946 586.051 322.792C594.105 327.638 602.158 331.407 599.474 347.56C596.789 363.713 579.072 376.097 568.871 380.943M551.69 322.792C551.69 322.792 546.858 338.407 551.69 355.098C556.523 371.789 568.871 380.943 568.871 380.943M551.69 322.792C548.042 323.746 543.456 325.688 538.805 327.95M568.871 380.943C564.998 382.783 558.417 385.01 551.154 386.919M438.407 441.923C438.407 441.923 420.153 453.093 407.113 456.329M440.644 182.26C360.022 88.5724 266.604 30.9603 263.919 32.037C261.235 33.1136 269.825 61.6507 271.436 72.4194C273.046 83.1881 202.714 11.038 197.345 15.3455C191.976 19.6529 215.599 54.1126 208.62 60.5738C201.64 67.035 128.087 -0.269168 121.644 4.03831C115.201 8.3458 166.206 57.3434 131.845 39.5748C97.4841 21.8062 -26 4.03831 -26 4.03831V272.179C-26 272.179 112.517 228.566 234.927 355.098C313.009 435.809 366.701 518.776 397.067 571.01M440.644 182.26C440.602 182.699 440.561 183.134 440.519 183.564M440.644 182.26L440.519 183.564M440.644 182.26C440.794 180.703 440.949 179.098 441.111 177.466M514.646 546.243C514.646 546.243 514.818 546.473 515.119 546.935M515.119 546.935C516.654 549.294 521.528 557.678 523.773 572.088C526.457 589.317 539.342 676.544 564.039 658.237C588.331 640.23 587.125 587.164 586.105 573.679C585.161 561.211 561.159 445.706 557.543 428.35M407.113 456.329C420.706 475.371 431.673 489.427 441.629 500.461M551.154 386.919C539.287 390.038 525.601 392.305 518.94 390.635C508.202 387.942 502.297 390.635 497.465 371.789C492.633 352.944 516.256 340.56 516.256 340.56C516.256 340.56 527.715 333.344 538.805 327.95M551.154 386.919L552.765 394.942C554.933 406.665 556.474 417.878 557.543 428.35M538.805 327.95L537.195 319.561C521.015 242.027 455.051 133.801 448.608 141.339C444.622 146.003 442.568 162.827 441.111 177.466M440.519 183.564C440.707 181.604 440.903 179.557 441.111 177.466M418.543 610.316C407.676 614.516 394.962 615.743 385.793 606.547C372.371 593.086 379.887 585.01 389.551 576.933C391.379 575.405 395.294 572.546 397.067 571.01M418.543 610.316C423.583 608.368 428.392 605.876 431.965 603.317C443.239 595.24 452.904 581.779 460.957 565.626C463.674 560.175 465.411 553.338 467.399 547.858M418.543 610.316C422.507 617.616 425.322 622.528 426.596 624.316C434.649 635.623 483.506 714.773 499.076 691.62C514.646 668.467 499.076 635.623 499.076 635.623C484.761 602.055 477.569 578.378 467.399 547.858M397.067 571.01C404.667 564.431 409.952 562.396 420.153 550.012C433.713 532.324 439.015 521.668 441.629 500.461M467.399 547.858C471.303 537.098 472.768 531.705 472.768 531.705L473.305 528.757M441.629 500.461C446.199 505.527 450.556 509.955 454.856 513.936C455.818 514.827 456.777 515.696 457.736 516.544M473.305 528.757C467.968 525.05 462.868 521.088 457.736 516.544M457.736 516.544C457.736 516.544 451.83 534.935 448.072 548.935C444.313 562.934 424.448 576.933 424.448 576.933M387.364 366.901C392.052 359.571 397.923 352.722 404.058 346.57C405.64 344.983 407.33 344.284 409.437 343.652C411.752 342.958 414.297 342.75 416.688 342.401C418.38 342.155 425.6 343.352 425.6 341.475M478.799 315.633C478.341 315.633 479.094 315.299 479.307 315.031C481.665 312.052 486.082 310.442 489.674 309.589C492.715 308.867 498.042 308.917 500.965 310.029C503.408 310.958 505.565 312.709 508.076 313.549C508.74 313.771 512.061 313.938 511.632 314.799M272.557 288.924C273.311 288.568 274.078 288.3 274.92 288.571C282.103 290.879 289.539 294.781 295.842 298.91C297.442 299.958 302.531 302.088 300.62 302.088M261.694 151.836C261.694 155.002 262.451 156.354 263.806 159.402C266.414 165.266 268.811 171.16 272.129 176.651C273.012 178.112 276.679 183.023 275.725 182.704M142.653 184.065C150.271 184.065 158.613 184.236 165.938 186.335C167.895 186.896 172.176 187.8 173.431 189.059M375.637 157.848C382.626 166.556 388.049 177.676 390.345 188.675C390.598 189.888 392.741 196.317 392.741 193.647M88.5794 95.9452C93.5069 91.9916 110.593 102.808 113.121 107.878" stroke="#6D48F1" stroke-width="7" stroke-linecap="round"/>
</svg>
