<svg width="13" height="8" viewBox="0 0 13 8" fill="none" xmlns="http://www.w3.org/2000/svg">
<path fill-rule="evenodd" clip-rule="evenodd" d="M6.7616 6.7616C6.5897 6.93345 6.35658 7.02998 6.11351 7.02998C5.87045 7.02998 5.63733 6.93345 5.46543 6.7616L0.279848 1.57601C0.192297 1.49145 0.122463 1.39031 0.0744213 1.27847C0.0263797 1.16663 0.00109228 1.04635 3.461e-05 0.924632C-0.00102306 0.802918 0.0221704 0.682212 0.0682612 0.569557C0.114352 0.456902 0.182417 0.354554 0.268486 0.268485C0.354554 0.182417 0.456901 0.114352 0.569556 0.0682608C0.682211 0.02217 0.802918 -0.00102305 0.924632 3.46106e-05C1.04635 0.00109228 1.16663 0.0263797 1.27847 0.0744213C1.39031 0.122463 1.49145 0.192296 1.57601 0.279847L6.11351 4.81735L10.651 0.279847C10.8239 0.112869 11.0555 0.0204742 11.2958 0.0225628C11.5361 0.0246513 11.7661 0.121056 11.936 0.291013C12.106 0.460971 12.2024 0.690883 12.2045 0.93123C12.2066 1.17158 12.1142 1.40313 11.9472 1.57601L6.7616 6.7616Z" fill="black"/>
</svg>
