<svg width="22" height="18" viewBox="0 0 22 18" fill="none" xmlns="http://www.w3.org/2000/svg">
<path d="M0 2.25C0 1.65326 0.231785 1.08097 0.644365 0.65901C1.05694 0.237053 1.61652 0 2.2 0H19.8C20.3835 0 20.9431 0.237053 21.3556 0.65901C21.7682 1.08097 22 1.65326 22 2.25V15.75C22 16.3467 21.7682 16.919 21.3556 17.341C20.9431 17.7629 20.3835 18 19.8 18H2.2C1.61652 18 1.05694 17.7629 0.644365 17.341C0.231785 16.919 0 16.3467 0 15.75V2.25ZM3.8709 2.25L11 8.62987L18.1291 2.25H3.8709ZM19.8 3.74513L11.7249 10.9721C11.5243 11.1519 11.2667 11.251 11 11.251C10.7333 11.251 10.4757 11.1519 10.2751 10.9721L2.2 3.74513V15.75H19.8V3.74513Z" fill="#B9B4C9"/>
</svg>
