<svg width="58" height="75" viewBox="0 0 58 75" fill="none" xmlns="http://www.w3.org/2000/svg">
<path d="M25.6117 69.3986C23.2672 67.0873 21.0629 64.5136 19.0547 61.9267C19.1366 61.8336 20.4542 60.2297 21.8755 58.5226C23.5322 56.5328 25.3297 54.4027 25.475 54.3618C25.6351 54.3167 26.1129 54.9129 26.2661 55.0262C26.6762 55.3294 27.0017 55.838 27.3698 56.2009C28.3236 57.1411 29.1052 58.2832 29.9549 59.3142C30.4437 59.9072 31.021 60.4308 31.4655 61.0602C31.9564 61.7551 32.4198 62.4693 32.9176 63.1592C33.4298 63.8691 33.901 64.6087 34.4087 65.3225C34.9569 66.0931 35.579 66.7324 35.9715 67.6077C36.6046 69.0197 37.67 70.9438 37.0003 72.5183C36.7672 73.0663 36.5671 73.5152 35.9519 73.7251C35.3945 73.9153 34.8692 74.0097 34.2785 74.0011C32.5724 73.9764 30.8386 73.1099 29.3623 72.3642C27.9287 71.6401 26.7402 70.5111 25.6117 69.3986Z" fill="#EF9169"/>
<path d="M21.8755 58.5226C22.4627 59.6574 23.4161 60.6813 24.1857 61.7149C24.7353 62.453 25.3002 63.2035 25.895 63.9071C26.8969 65.0923 27.7043 66.2888 28.9782 67.2097C29.5224 67.6031 30.0066 68.1817 30.6451 68.4422C30.8066 68.508 31.5628 68.8657 31.3027 68.8016M19.0547 61.9267C21.0629 64.5136 23.2672 67.0873 25.6117 69.3986C26.7402 70.5111 27.9287 71.6401 29.3623 72.3642C30.8386 73.1099 32.5724 73.9764 34.2785 74.0011C34.8692 74.0097 35.3945 73.9153 35.9519 73.7251C36.5671 73.5152 36.7672 73.0663 37.0003 72.5183C37.67 70.9438 36.6046 69.0197 35.9715 67.6077C35.579 66.7324 34.9569 66.0931 34.4087 65.3225C33.901 64.6087 33.4298 63.8691 32.9176 63.1592C32.4198 62.4693 31.9564 61.7551 31.4655 61.0602C31.021 60.4308 30.4437 59.9072 29.9549 59.3142C29.1052 58.2832 28.3236 57.1411 27.3698 56.2009C27.0017 55.838 26.6762 55.3294 26.2661 55.0262C26.1129 54.9129 25.6351 54.3167 25.475 54.3618C25.205 54.4378 19.232 61.725 19.0547 61.9267Z" stroke="#6D48F1" stroke-width="2" stroke-linecap="round"/>
<path fill-rule="evenodd" clip-rule="evenodd" d="M14.8014 66.7344L14.7485 66.7607L14.7478 66.761L14.7485 66.7607C14.7662 66.7519 14.7838 66.7432 14.8014 66.7344Z" fill="#AFED3A"/>
<path fill-rule="evenodd" clip-rule="evenodd" d="M14.8014 66.7344L14.7485 66.7607L14.7478 66.761L14.7485 66.7607C14.7662 66.7519 14.7838 66.7432 14.8014 66.7344Z" fill="#6D48F2"/>
<path d="M5.91295 40.9279C4.81042 43.6602 3.47553 46.5034 2.93549 49.4138C2.74567 50.4368 2.51073 51.4781 2.27074 52.5305C2.25474 52.6007 2.23872 52.6709 2.22268 52.7411C2.048 53.5065 1.87206 54.2775 1.71021 55.0511C3.87168 54.9884 5.84095 55.7246 7.59013 56.9609C8.4994 57.6036 9.3351 58.2852 10.0566 59.1313C10.1792 59.275 10.2973 59.4222 10.4151 59.5697C10.4229 59.5795 10.4307 59.5893 10.4385 59.5991L10.4387 59.5993C10.4492 59.6125 10.4599 59.6258 10.4704 59.639C10.6285 59.8369 10.7872 60.0341 10.9565 60.2225C11.898 61.2704 12.5412 62.4417 13.1616 63.683C13.2382 63.8361 13.3984 64.0992 13.5889 64.4119C14.0715 65.204 14.7478 66.3142 14.7478 66.761L14.7485 66.7607L14.8014 66.7344C16.172 66.0524 17.2422 65.4019 18.4927 64.6975C20.2437 63.7111 20.9868 63.4127 22.6 62.1965L22.8034 62.0433L22.8036 62.0431L22.8038 62.0429C23.9916 61.1478 24.7958 60.5417 26.0172 59.5303C27.0244 58.6963 27.818 57.8648 28.7274 56.9338C30.0683 55.561 31.6096 54.111 32.7476 52.5501C34.1024 50.6919 35.4371 49.0717 36.7119 47.1496C39.3316 43.1999 41.4917 38.8909 43.6656 34.6811C44.308 33.4372 45.2172 32.1433 45.7015 30.8302C46.0336 29.9298 46.632 28.762 47.2475 28.0204C48.8156 26.1309 49.8882 23.5917 50.9948 21.4098C52.5665 18.311 54.0645 15.1682 55.4864 11.9957C55.7639 11.3766 55.9777 10.7337 56.2499 10.1205C56.3789 9.82977 56.7217 9.47924 56.7907 9.1734C56.8082 9.09552 56.3639 9.2136 56.2881 9.22358C55.8641 9.27931 55.4408 9.40164 55.0156 9.46818C54.0532 9.61878 52.9088 9.91277 52.0445 10.3525C50.7978 10.9869 49.4095 11.1523 48.1191 11.6382C45.0331 12.8005 41.8722 13.6583 38.8368 14.9749C37.2014 15.6843 35.5281 16.3032 33.8807 16.9819C33.0487 17.3247 31.7394 17.5592 31.3359 18.4683C31.1617 18.8609 31.2723 17.644 31.2723 17.4146V15.5519C31.2723 13.7244 31.1875 11.9023 31.1578 10.0828C31.1195 7.74549 31.2723 5.42241 31.2723 3.08968C31.2723 2.71862 31.5079 1.29071 31.2468 1.00114C31.2234 0.975168 30.7026 1.40126 30.6424 1.42763C29.9936 1.71193 29.3113 2.4702 28.8229 2.95169C27.6419 4.11589 26.6279 5.66405 25.61 6.97197C23.1542 10.1274 20.5385 13.1702 18.599 16.6808C15.5879 22.131 12.1906 27.3472 9.46937 32.9564C8.18758 35.5985 7.01054 38.2078 5.91295 40.9279Z" fill="#AFED3A"/>
<path fill-rule="evenodd" clip-rule="evenodd" d="M10.4151 59.5697C10.4229 59.5795 10.4307 59.5893 10.4385 59.5991L10.4387 59.5993C10.4309 59.5895 10.4229 59.5795 10.4151 59.5697Z" fill="#AFED3A"/>
<path d="M1.06503 62.2021C1.23735 64.0518 2.00386 65.7141 3.11363 67.2134C4.60018 68.3893 6.16841 68.3893 6.41225 68.3893C6.66802 68.3893 7.12791 68.3639 7.60708 68.3366L7.7032 68.3311C8.23251 68.3009 8.77024 68.2702 9.06995 68.2702C9.96361 68.2702 10.9314 68.0174 11.8542 67.7764C12.3551 67.6456 12.8427 67.5182 13.2981 67.4366C13.8242 67.206 14.302 66.9818 14.7478 66.761C14.7478 66.3142 14.0715 65.204 13.5889 64.4119C13.3984 64.0992 13.2382 63.8361 13.1616 63.683C12.5412 62.4417 11.898 61.2704 10.9565 60.2225C10.7872 60.0341 10.6285 59.8369 10.4704 59.639L10.4387 59.5993L10.4385 59.5991L10.4151 59.5697C10.2973 59.4222 10.1792 59.275 10.0566 59.1313C9.3351 58.2852 8.4994 57.6036 7.59013 56.9609C5.84095 55.7246 3.87168 54.9884 1.71021 55.0511L1.69998 55.1C1.20602 57.4702 0.847294 59.8649 1.06503 62.2021Z" fill="#6D48F2"/>
<path d="M13.2981 67.4366C13.8242 67.206 14.302 66.9818 14.7478 66.761M13.2981 67.4366C12.8427 67.5182 12.3551 67.6456 11.8542 67.7764C10.9314 68.0174 9.96361 68.2702 9.06995 68.2702C8.77024 68.2702 8.23251 68.3009 7.7032 68.3311M13.2981 67.4366C13.8245 67.2059 14.3025 66.9816 14.7485 66.7607M1.71021 55.0511C3.87168 54.9884 5.84095 55.7246 7.59013 56.9609C8.4994 57.6036 9.3351 58.2852 10.0566 59.1313C10.1792 59.275 10.2973 59.4222 10.4151 59.5697M1.71021 55.0511C1.70679 55.0674 1.70338 55.0837 1.69998 55.1M1.71021 55.0511C1.87206 54.2775 2.048 53.5065 2.22268 52.7411M1.71021 55.0511L1.69998 55.1M14.7478 66.761C14.7478 66.3142 14.0715 65.204 13.5889 64.4119C13.3984 64.0992 13.2382 63.8361 13.1616 63.683C12.5412 62.4417 11.898 61.2704 10.9565 60.2225C10.7872 60.0341 10.6285 59.8369 10.4704 59.639M14.7478 66.761L14.7485 66.7607M14.7478 66.761L14.7485 66.7607M10.4387 59.5993V59.5993ZM10.4387 59.5993L10.4385 59.5991M10.4387 59.5993C10.4309 59.5895 10.4229 59.5795 10.4151 59.5697M10.4387 59.5993C10.4492 59.6125 10.4599 59.6258 10.4704 59.639M10.4387 59.5993L10.4704 59.639M7.7032 68.3311C7.67114 68.333 7.63903 68.3348 7.60708 68.3366M7.7032 68.3311L7.60708 68.3366M7.60708 68.3366C7.12791 68.3639 6.66802 68.3893 6.41225 68.3893C6.16841 68.3893 4.60018 68.3893 3.11363 67.2134C2.00386 65.7141 1.23735 64.0518 1.06503 62.2021C0.847294 59.8649 1.20602 57.4702 1.69998 55.1M1.69998 55.1C1.86464 54.31 2.04432 53.5227 2.22268 52.7411M14.8014 66.7344V66.7344ZM14.8014 66.7344C16.172 66.0524 17.2422 65.4019 18.4927 64.6975C20.2437 63.7111 20.9868 63.4127 22.6 62.1965L22.8034 62.0433L22.8036 62.0431L22.8038 62.0429C23.9916 61.1478 24.7958 60.5417 26.0172 59.5303C27.0244 58.6963 27.818 57.8648 28.7274 56.9337C30.0683 55.561 31.6096 54.111 32.7476 52.5501C34.1024 50.6919 35.4371 49.0717 36.7119 47.1496C39.3316 43.1999 41.4917 38.8909 43.6656 34.6811C44.308 33.4372 45.2172 32.1433 45.7015 30.8302C46.0336 29.9298 46.632 28.762 47.2475 28.0204C48.8156 26.1309 49.8882 23.5917 50.9948 21.4098C52.5665 18.311 54.0645 15.1682 55.4864 11.9957C55.7639 11.3766 55.9777 10.7337 56.2499 10.1205C56.3789 9.82977 56.7217 9.47924 56.7907 9.1734C56.8082 9.09552 56.3639 9.2136 56.2881 9.22358C55.8641 9.27931 55.4408 9.40164 55.0156 9.46818C54.0532 9.61878 52.9088 9.91277 52.0445 10.3525C50.7978 10.9869 49.4095 11.1523 48.1191 11.6382C45.0331 12.8005 41.8722 13.6583 38.8368 14.9749C37.2014 15.6843 35.5281 16.3032 33.8807 16.9819C33.0487 17.3247 31.7394 17.5592 31.3359 18.4683C31.1617 18.8609 31.2723 17.644 31.2723 17.4146V15.5519C31.2723 13.7244 31.1875 11.9023 31.1578 10.0828C31.1195 7.74549 31.2723 5.42241 31.2723 3.08968C31.2723 2.71862 31.5079 1.29071 31.2468 1.00114C31.2234 0.975168 30.7026 1.40126 30.6424 1.42763C29.9936 1.71193 29.3113 2.4702 28.8229 2.95169C27.6419 4.11589 26.6279 5.66405 25.61 6.97197C23.1542 10.1274 20.5385 13.1702 18.599 16.6808C15.5879 22.131 12.1906 27.3472 9.46937 32.9564C8.18758 35.5985 7.01054 38.2078 5.91295 40.9279C4.81042 43.6602 3.47553 46.5034 2.93549 49.4138C2.74567 50.4368 2.51073 51.4781 2.27074 52.5305C2.25474 52.6007 2.23872 52.6709 2.22268 52.7411M14.8014 66.7344L14.7485 66.7607M14.8014 66.7344C14.7838 66.7432 14.7662 66.7519 14.7485 66.7607M10.4151 59.5697C10.4229 59.5795 10.4307 59.5893 10.4385 59.5991M10.4151 59.5697L10.4385 59.5991" stroke="#6D48F1" stroke-width="2" stroke-linecap="round"/>
<path fill-rule="evenodd" clip-rule="evenodd" d="M24.2938 43.6061C23.6881 45.7604 25.899 47.771 27.5539 48.8568C28.2302 49.3005 29.4275 50.0191 30.644 50.5106C30.4702 50.4208 30.4686 50.1171 30.4673 49.8767C30.4668 49.7897 30.4664 49.7111 30.4579 49.6537C30.319 48.7159 30.4075 47.8389 30.6823 46.9318C31.0458 45.7314 31.6109 44.6503 32.294 43.604C32.5532 43.2071 32.8315 42.8214 33.1091 42.4364C33.154 42.3742 33.1988 42.3121 33.2436 42.2499C33.2729 42.2092 34.049 41.2403 34.1367 41.2317C32.9706 40.6872 31.5713 40.3969 30.4635 40.3969C30.2276 40.3969 30.0217 40.3922 29.8308 40.3878C29.0964 40.3711 28.5837 40.3594 27.4331 40.6395C27.3157 40.7012 27.1594 40.7271 26.9755 40.7576C26.2685 40.8747 25.1554 41.0591 24.2938 43.6061Z" fill="white"/>
<path d="M31.5538 50.8294C32.8031 51.1916 34.1769 51.3059 35.4758 51.1961C36.4817 51.1111 38.0377 50.7567 38.3281 49.6527C38.5378 48.8551 38.4928 47.837 38.4211 47.0242C38.2713 45.3262 36.8033 43.3631 35.6308 42.2205C35.2335 41.8333 34.7169 41.5034 34.1436 41.235C34.1413 41.2339 34.139 41.2328 34.1367 41.2317C34.049 41.2403 33.2729 42.2092 33.2436 42.2499C33.1988 42.3121 33.154 42.3742 33.1091 42.4364C32.8315 42.8214 32.5532 43.2071 32.294 43.604C31.6109 44.6503 31.0458 45.7314 30.6823 46.9318C30.4075 47.8389 30.319 48.7159 30.4579 49.6537C30.4664 49.7111 30.4668 49.7897 30.4673 49.8767C30.4686 50.1171 30.4702 50.4208 30.644 50.5106C30.9487 50.6337 31.2546 50.7426 31.5538 50.8294Z" fill="#6D48F1"/>
<path fill-rule="evenodd" clip-rule="evenodd" d="M16.6793 32.7795C14.9729 31.4351 13.4624 30.5859 10.9571 30.5859C9.6521 30.5859 8.25472 31.0356 7.20049 31.7779C5.55002 32.9401 6.47828 35.2504 7.12298 36.6682C7.92033 38.4217 9.40926 39.691 11.0346 40.6924C11.4797 40.9666 12.0078 41.239 12.5741 41.463C12.4558 41.3434 12.3949 41.0164 12.3508 40.7789C12.3396 40.7186 12.3294 40.664 12.3196 40.6201C12.1647 39.922 12.0354 39.1924 12.1721 38.4813C12.3886 37.3559 13.0003 36.2228 13.6349 35.2762C14.1073 34.5715 14.7553 33.8244 15.5202 33.4055C15.5558 33.386 15.6285 33.3415 15.7213 33.2847C16.0259 33.0982 16.5464 32.7795 16.6793 32.7795Z" fill="white"/>
<path d="M18.2481 34.0702C17.689 33.6038 17.1758 33.1707 16.6793 32.7795C16.5464 32.7795 16.0259 33.0982 15.7213 33.2847C15.6285 33.3415 15.5558 33.386 15.5202 33.4055C14.7553 33.8244 14.1073 34.5715 13.6349 35.2762C13.0003 36.2228 12.3886 37.3559 12.1721 38.4813C12.0354 39.1924 12.1647 39.922 12.3196 40.6201C12.3294 40.664 12.3396 40.7186 12.3508 40.7789C12.3949 41.0164 12.4558 41.3434 12.5741 41.463C13.8426 41.9646 15.3025 42.2234 16.4499 41.7163C18.0262 41.0197 19.5791 39.7316 19.85 37.9518C20.0187 36.8428 20.0578 36.0721 19.3392 35.1613C19.0586 34.8057 18.6995 34.4468 18.2481 34.0702Z" fill="#6D48F1"/>
<path d="M18.2481 34.0702C15.7677 32.0012 14.1915 30.5859 10.9571 30.5859M18.2481 34.0702C18.6995 34.4468 19.0586 34.8057 19.3392 35.1613C20.0578 36.0721 20.0187 36.8428 19.85 37.9518C19.5791 39.7316 18.0262 41.0197 16.4499 41.7163M18.2481 34.0702C17.689 33.6038 17.1758 33.1707 16.6793 32.7795M10.9571 30.5859C9.6521 30.5859 8.25472 31.0356 7.20049 31.7779C5.55002 32.9401 6.47828 35.2504 7.12298 36.6682C7.92033 38.4217 9.40926 39.691 11.0346 40.6924M10.9571 30.5859C13.4624 30.5859 14.9729 31.4351 16.6793 32.7795M11.0346 40.6924C12.4766 41.5808 14.7902 42.4497 16.4499 41.7163M11.0346 40.6924C11.4797 40.9666 12.0078 41.239 12.5741 41.463M16.4499 41.7163C15.3025 42.2234 13.8426 41.9646 12.5741 41.463M35.6308 42.2205C36.8033 43.3631 38.2713 45.3262 38.4211 47.0242C38.4928 47.837 38.5378 48.8551 38.3281 49.6527C38.0377 50.7567 36.4817 51.1111 35.4758 51.1961C34.1769 51.3059 32.8031 51.1916 31.5538 50.8294C31.2546 50.7426 30.9487 50.6337 30.644 50.5106M35.6308 42.2205C35.2319 41.8318 34.7127 41.5007 34.1367 41.2317M35.6308 42.2205C35.2335 41.8333 34.7169 41.5034 34.1436 41.235M12.5741 41.463C12.4558 41.3434 12.3949 41.0164 12.3508 40.7789C12.3395 40.7186 12.3294 40.664 12.3196 40.6201C12.1647 39.922 12.0354 39.1924 12.1721 38.4813C12.3886 37.3559 13.0003 36.2228 13.6349 35.2762C14.1073 34.5715 14.7553 33.8244 15.5202 33.4055C15.5558 33.386 15.6285 33.3415 15.7213 33.2847C16.0259 33.0982 16.5464 32.7795 16.6793 32.7795M30.6823 50.526C30.6687 50.5219 30.656 50.5168 30.644 50.5106M34.1436 41.235C34.1423 41.2324 34.14 41.2314 34.1367 41.2317M34.1436 41.235C34.1413 41.2339 34.139 41.2328 34.1367 41.2317M30.644 50.5106C29.4275 50.0191 28.2302 49.3005 27.5539 48.8568C25.899 47.771 23.6881 45.7604 24.2938 43.6061C25.1554 41.0591 26.2685 40.8747 26.9755 40.7576C27.1594 40.7271 27.3157 40.7012 27.4331 40.6395C28.5837 40.3594 29.0964 40.3711 29.8308 40.3878C30.0217 40.3922 30.2276 40.3969 30.4635 40.3969C31.5713 40.3969 32.9706 40.6872 34.1367 41.2317M30.644 50.5106C30.4702 50.4208 30.4686 50.1171 30.4673 49.8767C30.4668 49.7897 30.4664 49.7111 30.4579 49.6537C30.319 48.7159 30.4075 47.8389 30.6823 46.9318C31.0458 45.7314 31.6109 44.6503 32.294 43.604C32.5532 43.2071 32.8315 42.8214 33.1091 42.4364C33.154 42.3742 33.1988 42.3121 33.2436 42.2499C33.2729 42.2092 34.049 41.2403 34.1367 41.2317" stroke="#6D48F1" stroke-width="2" stroke-linecap="round"/>
<path d="M17.4766 25.9399C19.0034 25.4035 21.4941 25.8749 22.6981 27.0072C22.9063 27.2031 23.1019 27.5683 22.9036 27.7638M32.1543 33.1139C33.3741 32.7821 34.0703 33.3734 35.1214 34.0663C35.9093 34.5858 37.1058 35.1914 37.3621 36.1807C37.4198 36.4037 37.7047 36.8777 37.7047 36.3969" stroke="#6D48F1" stroke-width="2" stroke-linecap="round"/>
</svg>
