<svg width="15" height="20" viewBox="0 0 15 20" fill="none" xmlns="http://www.w3.org/2000/svg">
<path d="M2.5 0H9.375V1.25H2.5C2.16848 1.25 1.85054 1.3817 1.61612 1.61612C1.3817 1.85054 1.25 2.16848 1.25 2.5V17.5C1.25 17.8315 1.3817 18.1495 1.61612 18.3839C1.85054 18.6183 2.16848 18.75 2.5 18.75H12.5C12.8315 18.75 13.1495 18.6183 13.3839 18.3839C13.6183 18.1495 13.75 17.8315 13.75 17.5V5.625H15V17.5C15 18.163 14.7366 18.7989 14.2678 19.2678C13.7989 19.7366 13.163 20 12.5 20H2.5C1.83696 20 1.20107 19.7366 0.732233 19.2678C0.263392 18.7989 0 18.163 0 17.5V2.5C0 1.83696 0.263392 1.20107 0.732233 0.732233C1.20107 0.263392 1.83696 0 2.5 0Z" fill="#232323"/>
<path d="M9.375 3.75V0L15 5.625H11.25C10.7527 5.625 10.2758 5.42746 9.92417 5.07583C9.57254 4.72419 9.375 4.24728 9.375 3.75Z" fill="#232323"/>
<path fill-rule="evenodd" clip-rule="evenodd" d="M3.75 14.375C3.75 14.2092 3.81585 14.0503 3.93306 13.9331C4.05027 13.8158 4.20924 13.75 4.375 13.75H6.875C7.04076 13.75 7.19973 13.8158 7.31694 13.9331C7.43415 14.0503 7.5 14.2092 7.5 14.375C7.5 14.5408 7.43415 14.6997 7.31694 14.8169C7.19973 14.9342 7.04076 15 6.875 15H4.375C4.20924 15 4.05027 14.9342 3.93306 14.8169C3.81585 14.6997 3.75 14.5408 3.75 14.375ZM3.75 11.875C3.75 11.7092 3.81585 11.5503 3.93306 11.4331C4.05027 11.3158 4.20924 11.25 4.375 11.25H10.625C10.7908 11.25 10.9497 11.3158 11.0669 11.4331C11.1842 11.5503 11.25 11.7092 11.25 11.875C11.25 12.0408 11.1842 12.1997 11.0669 12.3169C10.9497 12.4342 10.7908 12.5 10.625 12.5H4.375C4.20924 12.5 4.05027 12.4342 3.93306 12.3169C3.81585 12.1997 3.75 12.0408 3.75 11.875ZM3.75 9.375C3.75 9.20924 3.81585 9.05027 3.93306 8.93306C4.05027 8.81585 4.20924 8.75 4.375 8.75H10.625C10.7908 8.75 10.9497 8.81585 11.0669 8.93306C11.1842 9.05027 11.25 9.20924 11.25 9.375C11.25 9.54076 11.1842 9.69973 11.0669 9.81694C10.9497 9.93415 10.7908 10 10.625 10H4.375C4.20924 10 4.05027 9.93415 3.93306 9.81694C3.81585 9.69973 3.75 9.54076 3.75 9.375Z" fill="#232323"/>
</svg>
