<svg width="429" height="703" viewBox="0 0 429 703" fill="none" xmlns="http://www.w3.org/2000/svg">
<path d="M113.057 210.945C113.057 210.945 125.556 227.073 140.475 230.702C141.345 230.914 142.255 231.15 143.154 231.383C144.488 231.728 145.8 232.068 146.927 232.315C154.588 233.525 165.216 234.436 177.974 230.299C185.47 227.057 189.898 223.307 192.712 219.815C195.061 216.899 196.285 214.163 197.229 212.054C197.404 211.661 197.57 211.291 197.731 210.945C199.801 206.509 203.376 188.365 201.36 177.478C200.332 171.928 198.047 164.701 194.824 157.72C191.726 151.009 187.761 144.525 183.216 139.979C158.62 133.931 126.766 132.319 125.153 142.802C126.352 160.781 112.185 176.978 104.498 185.768C101.841 188.805 99.9579 190.958 99.7508 191.994C98.9444 196.026 113.057 210.945 113.057 210.945Z" fill="#F9E4DB"/>
<path d="M363.451 54.0946C361.435 60.5461 361.435 79.972 361.435 79.972C370.674 79.1338 386.661 79.5579 395.708 80.4977C395.708 80.4977 409.417 57.7237 411.03 54.0946C411.319 53.4442 411.557 52.9492 411.758 52.5284C412.682 50.6013 412.86 50.2301 413.853 43.6113C414.395 39.9998 417.524 35.9839 420.489 32.1792C424.145 27.4886 427.55 23.1191 425.546 20.2251C421.917 14.9836 413.853 21.0315 413.853 21.0315C417.078 16.1926 421.111 6.11229 415.466 3.29016C409.821 0.468028 403.861 6.11265 403.861 6.11265C403.764 4.09747 403.062 2.91707 401.756 3.29016C398.934 4.09658 389.257 9.74155 384.418 12.564C379.58 15.3865 366.705 49.2563 366.705 49.2563C365.094 50.9574 363.909 52.6299 363.451 54.0946Z" fill="#F9E4DB"/>
<path d="M58.6236 462.464C58.6236 462.464 44.511 453.677 41.2853 454.484C38.0596 455.29 26.3665 462.548 25.9633 465.774C25.5601 468.999 25.9633 476.257 25.9633 476.257C23.6716 474.215 21.3261 472.598 19.5119 473.435C14.2701 475.854 14.2701 477.871 14.2701 484.322C14.2701 490.773 20.7215 502.869 30.3986 505.288C40.0757 507.708 66.6876 500.859 66.6876 500.859C59.7959 495.963 49.0836 478.453 49.7525 473.435C50.5093 467.757 52.6883 464.211 58.6236 462.464Z" fill="#F9E4DB"/>
<path d="M140.475 230.702C125.556 227.073 113.057 210.945 113.057 210.945C113.057 210.945 98.9444 196.026 99.7508 191.994C99.9579 190.958 101.841 188.805 104.498 185.768C112.185 176.978 126.352 160.781 125.153 142.802C126.766 132.319 158.62 133.931 183.216 139.979C173.942 130.706 164.668 125.06 148.539 123.447C132.411 121.835 113.057 129.899 104.992 135.947C96.9283 141.996 86.8478 156.511 82.8158 173.043C81.1176 180.006 81.136 190.331 81.1539 200.342C81.1785 214.099 81.202 227.265 76.7677 230.299C72.6996 233.082 64.6523 231.204 58.3611 229.736C52.8046 228.439 48.6179 227.462 49.7525 230.299C52.1718 236.347 91.2832 254.774 113.057 253.685C125.816 253.505 132.122 252.673 142.523 250.459C141.985 245.736 142.767 239.808 146.927 232.315C145.8 232.068 144.488 231.728 143.154 231.383C142.255 231.15 141.345 230.914 140.475 230.702Z" fill="#341A8F"/>
<path fill-rule="evenodd" clip-rule="evenodd" d="M146.927 232.315C154.588 233.525 165.216 234.436 177.974 230.299C185.47 227.057 189.898 223.307 192.712 219.815C196.3 222.723 197.7 226.71 198.113 230.702C198.495 234.391 198.035 238.085 197.679 240.935C197.347 243.597 197.107 245.524 197.731 246.024C198.467 246.612 202.637 243.175 208.46 238.376C218.598 230.021 233.747 217.537 244.504 214.976C251.272 213.365 263.578 214.137 276.533 214.949C295.993 216.169 316.917 217.481 322.727 210.945C327.574 205.491 329.487 182.129 331.406 158.698C333.318 135.355 335.235 111.945 340.065 106.109C347.287 97.3823 354.584 98.5374 357.598 99.0145C358.623 99.1767 359.152 99.2605 359.016 98.8513C358.915 98.55 358.571 97.8686 358.101 96.9386C356.055 92.8914 351.629 84.1362 354.58 81.5132C355.394 80.7904 357.928 80.2902 361.435 79.972C370.674 79.1338 386.661 79.5579 395.708 80.4977C398.551 80.793 400.709 81.1393 401.756 81.5132C407.401 83.5289 403.369 98.4479 401.756 102.077C401.176 103.382 403.671 105.832 407.16 109.261C413.378 115.37 422.755 124.583 423.53 135.947C424.74 153.689 408.61 236.75 389.257 258.12C376.304 272.423 341.677 279.681 318.739 284.49C307.405 286.866 304.582 285.135 297.324 290.377C290.067 295.618 300.295 329.306 305.831 365.95C311.005 400.192 316.234 434.805 315.066 442.791C313.211 455.465 304.483 468.614 299.421 476.24C297.88 478.561 296.679 480.37 296.115 481.499C295.049 483.631 296.096 486.937 297.188 490.382C298.574 494.757 300.031 499.356 297.324 502.063C295.646 503.742 285.18 507.023 271.519 510.66C245.811 517.503 218.295 524.7 197.731 526.659C177.167 528.618 118.308 523.156 98.5414 518.68C95.3581 517.96 93.3436 517.25 92.8962 516.579C89.6706 511.74 104.992 502.063 104.992 502.063V487.951V482.551C99.798 483.631 96.1221 484.322 92.8962 484.322C92.4932 488.757 75.961 500.45 70.3164 502.063C69.3553 502.338 68.1019 501.864 66.6876 500.859C59.7959 495.963 49.0836 478.453 49.7525 473.435C50.5093 467.757 52.6883 464.211 58.6236 462.464C59.0104 462.35 59.4133 462.244 59.8327 462.145C61.8988 461.659 58.1397 456.593 52.2771 448.692C38.6907 430.383 13.807 396.85 23.9471 369.809C34.2463 342.345 91.8423 303.31 124.433 281.222C137.775 272.179 146.927 265.977 146.927 264.571C146.927 263.341 146.264 261.844 145.444 259.992C144.349 257.518 142.974 254.41 142.523 250.459C141.985 245.736 142.767 239.808 146.927 232.315Z" fill="#8464F5"/>
<path d="M201.36 177.478C203.376 188.365 199.801 206.509 197.731 210.945C197.57 211.291 197.404 211.661 197.229 212.054C196.285 214.163 195.061 216.899 192.712 219.815C196.3 222.723 197.7 226.71 198.113 230.702C204.241 227.423 207.48 225.577 211.44 222.234C238.859 197.235 254.181 161.349 236.843 173.043C217.892 184.332 198.538 164.575 194.824 157.72C198.047 164.701 200.332 171.928 201.36 177.478Z" fill="#341A8F"/>
<path d="M271.519 510.66C245.811 517.503 218.295 524.7 197.731 526.659C177.167 528.618 118.308 523.156 98.5414 518.68C98.5414 518.68 -0.648689 690.766 2.577 694.798C5.8027 698.83 108.218 702.862 113.057 698.83C115.146 697.089 122.573 671.968 130.76 644.274L130.761 644.273C141.535 607.831 153.625 566.934 156.604 568.996C160.291 571.548 169.163 570.51 176.348 569.67L176.35 569.669C179.379 569.315 182.109 568.996 184.022 568.996C187.559 568.996 175.465 606.919 164.346 641.787C155.182 670.526 146.679 697.19 148.136 698.83C150.802 701.829 213.235 699.871 237.78 699.101L237.787 699.101C242.936 698.939 246.417 698.83 247.326 698.83C252.568 698.83 271.519 510.66 271.519 510.66Z" fill="#341A8F"/>
<path d="M177.974 230.299C165.216 234.436 154.588 233.525 146.927 232.315M177.974 230.299C185.47 227.057 189.898 223.307 192.712 219.815M177.974 230.299C184.598 241.109 179.99 256.507 181.603 258.12C183.216 259.733 218.698 309.731 231.601 369.809C244.504 429.888 224.343 496.418 224.343 496.418L220.714 506.396M183.216 139.979C173.942 130.706 164.668 125.06 148.539 123.447C132.411 121.835 113.057 129.899 104.992 135.947C96.9283 141.996 86.8478 156.511 82.8158 173.043C81.1176 180.006 81.136 190.331 81.1539 200.342C81.1785 214.099 81.202 227.265 76.7677 230.299C72.6996 233.082 64.6523 231.204 58.3611 229.736C52.8046 228.439 48.6179 227.462 49.7525 230.299C52.1718 236.347 91.2832 254.774 113.057 253.685C125.816 253.505 132.122 252.673 142.523 250.459M183.216 139.979C158.62 133.931 126.766 132.319 125.153 142.802C126.352 160.781 112.185 176.978 104.498 185.768C101.841 188.805 99.9579 190.958 99.7508 191.994C98.9444 196.026 113.057 210.945 113.057 210.945C113.057 210.945 125.556 227.073 140.475 230.702C141.345 230.914 142.255 231.15 143.154 231.383C144.488 231.728 145.8 232.068 146.927 232.315M183.216 139.979C187.761 144.525 191.726 151.009 194.824 157.72M146.927 232.315C142.767 239.808 141.985 245.736 142.523 250.459M194.824 157.72C198.047 164.701 200.332 171.928 201.36 177.478C203.376 188.365 199.801 206.509 197.731 210.945C197.57 211.291 197.404 211.661 197.229 212.054C196.285 214.163 195.061 216.899 192.712 219.815M194.824 157.72C198.538 164.575 217.892 184.332 236.843 173.043C254.181 161.349 238.859 197.235 211.44 222.234C207.48 225.577 204.241 227.423 198.113 230.702M59.8327 462.145C52.9785 463.758 50.5587 467.387 49.7525 473.435M59.8327 462.145C66.2844 461.338 91.6868 479.08 92.8962 484.322M59.8327 462.145C59.4133 462.244 59.0104 462.35 58.6236 462.464M59.8327 462.145C61.8988 461.659 58.1397 456.593 52.2771 448.692C38.6907 430.383 13.807 396.85 23.9471 369.809C34.2463 342.345 91.8423 303.31 124.433 281.222C137.775 272.179 146.927 265.977 146.927 264.571C146.927 263.341 146.264 261.844 145.444 259.992C144.349 257.518 142.974 254.41 142.523 250.459M49.7525 473.435C49.0836 478.453 59.7959 495.963 66.6876 500.859M49.7525 473.435C50.5093 467.757 52.6883 464.211 58.6236 462.464M92.8962 484.322C92.4932 488.757 75.961 500.45 70.3164 502.063C69.3553 502.338 68.1019 501.864 66.6876 500.859M92.8962 484.322C96.1221 484.322 99.798 483.631 104.992 482.551M152.975 335.537C152.975 335.537 116.282 366.987 113.057 373.842C109.831 380.696 150.959 431.097 140.475 454.484C129.991 477.87 114.129 480.651 104.992 482.551M192.712 219.815C196.3 222.723 197.7 226.71 198.113 230.702M359.016 98.8513C361.435 106.109 398.127 108.528 401.756 102.077M359.016 98.8513C358.915 98.55 358.571 97.8686 358.101 96.9386C356.055 92.8914 351.629 84.1362 354.58 81.5132C355.394 80.7904 357.928 80.2902 361.435 79.972M359.016 98.8513C359.152 99.2605 358.623 99.1767 357.598 99.0145C354.584 98.5374 347.287 97.3823 340.065 106.109C335.235 111.945 333.318 135.355 331.406 158.698C329.487 182.129 327.574 205.491 322.727 210.945C316.917 217.481 295.993 216.169 276.533 214.949C263.578 214.137 251.272 213.365 244.504 214.976C233.747 217.537 218.598 230.021 208.46 238.376C202.637 243.175 198.467 246.612 197.731 246.024C197.107 245.524 197.347 243.597 197.679 240.935C198.035 238.085 198.495 234.391 198.113 230.702M401.756 102.077C403.369 98.4479 407.401 83.5289 401.756 81.5132C400.709 81.1393 398.551 80.793 395.708 80.4977M401.756 102.077C401.176 103.382 403.671 105.832 407.16 109.261C413.378 115.37 422.755 124.583 423.53 135.947C424.74 153.689 408.61 236.75 389.257 258.12C376.304 272.423 341.677 279.681 318.739 284.49C307.405 286.866 304.582 285.135 297.324 290.377C290.067 295.618 300.295 329.306 305.831 365.95C311.005 400.192 316.234 434.805 315.066 442.791C313.211 455.465 304.483 468.614 299.421 476.24C297.88 478.561 296.679 480.37 296.115 481.499M296.115 481.499C271.824 493.498 246.896 502.311 220.714 506.396M296.115 481.499C295.049 483.631 296.096 486.937 297.188 490.382C298.574 494.757 300.031 499.356 297.324 502.063C295.646 503.742 285.18 507.023 271.519 510.66M104.992 502.063C104.992 502.063 89.6706 511.74 92.8962 516.579C93.3436 517.25 95.3581 517.96 98.5414 518.68M104.992 502.063V487.951V482.551M104.992 502.063C104.992 502.063 152.975 509.321 190.473 508.917C200.755 508.807 210.824 507.939 220.714 506.396M361.435 79.972C361.435 79.972 361.435 60.5461 363.451 54.0946C363.909 52.6299 365.094 50.9574 366.705 49.2563M361.435 79.972C370.674 79.1338 386.661 79.5579 395.708 80.4977M379.58 70.6263C379.58 70.6263 375.951 67.8039 376.757 62.5621C377.564 57.3203 386.031 55.7075 388.45 51.6754C390.87 47.6432 390.467 38.7726 386.031 37.9662C382.603 37.3428 372.188 43.4649 366.705 49.2563M366.705 49.2563C366.705 49.2563 379.58 15.3865 384.418 12.564C389.257 9.74155 398.934 4.09658 401.756 3.29016C403.062 2.91707 403.764 4.09747 403.861 6.11265M390.467 31.1118C390.467 31.1118 398.934 21.8379 401.756 15.3865C403.273 11.9199 403.974 8.4532 403.861 6.11265M403.861 6.11265C403.861 6.11265 409.821 0.468028 415.466 3.29016C421.111 6.11229 417.078 16.1926 413.853 21.0315M413.853 21.0315C410.627 25.8704 408.208 31.1118 398.531 42.8049M413.853 21.0315C413.853 21.0315 421.917 14.9836 425.546 20.2251C427.55 23.1191 424.145 27.4886 420.489 32.1792C417.524 35.9839 414.395 39.9998 413.853 43.6113C412.86 50.2301 412.682 50.6013 411.758 52.5284C411.557 52.9492 411.319 53.4442 411.03 54.0946C409.417 57.7237 395.708 80.4977 395.708 80.4977M66.6876 500.859C66.6876 500.859 40.0757 507.708 30.3986 505.288C20.7215 502.869 14.2701 490.773 14.2701 484.322C14.2701 477.871 14.2701 475.854 19.5119 473.435C21.3261 472.598 23.6716 474.215 25.9633 476.257M58.6236 462.464C58.6236 462.464 44.511 453.677 41.2853 454.484C38.0596 455.29 26.3665 462.548 25.9633 465.774C25.5601 468.999 25.9633 476.257 25.9633 476.257M25.9633 476.257C30.293 480.115 33.2211 485.934 34.4307 486.337C35.6404 486.741 41.2853 482.708 42.4949 479.08C43.7046 475.451 41.2853 470.612 41.2853 470.612M271.519 510.66C245.811 517.503 218.295 524.7 197.731 526.659C177.167 528.618 118.308 523.156 98.5414 518.68M271.519 510.66C271.519 510.66 252.568 698.83 247.326 698.83C246.417 698.83 242.936 698.939 237.787 699.101M98.5414 518.68C98.5414 518.68 -0.648689 690.766 2.577 694.798C5.8027 698.83 108.218 702.862 113.057 698.83C115.146 697.089 122.573 671.968 130.76 644.274L130.761 644.273C141.535 607.831 153.625 566.934 156.604 568.996C160.291 571.548 169.163 570.51 176.348 569.67L176.35 569.669C179.379 569.315 182.109 568.996 184.022 568.996C187.559 568.996 175.465 606.919 164.346 641.787C155.182 670.526 146.679 697.19 148.136 698.83C150.802 701.829 213.235 699.871 237.78 699.101M237.78 699.101L237.787 699.101M237.78 699.101C237.782 699.101 237.785 699.101 237.787 699.101" stroke="#6D48F1" stroke-width="5" stroke-linecap="round"/>
<path d="M131.474 173.421C131.474 173.421 111.717 182.695 120.587 196.404C122.92 200.01 126.955 200.826 131.474 199.895C138.413 190.435 139.555 184.173 131.474 173.421Z" fill="#6D48F1"/>
<path d="M183.617 137.965C183.617 137.965 163.86 147.24 172.731 160.949C174.924 164.339 178.621 165.263 182.811 164.588C189.541 154.156 189.76 148.401 183.617 137.965Z" fill="#6D48F1"/>
<path d="M154.054 173.824C145.183 164.147 131.474 173.421 131.474 173.421C139.555 184.173 138.413 190.435 131.474 199.895C135.683 199.027 140.312 196.643 144.377 193.584C152.536 187.443 158.418 178.585 154.054 173.824Z" fill="white"/>
<path d="M206.197 138.369C197.327 128.692 183.617 137.965 183.617 137.965C189.76 148.401 189.541 154.156 182.811 164.588C187.229 163.876 192.195 161.385 196.52 158.129C204.679 151.988 210.561 143.13 206.197 138.369Z" fill="white"/>
<path d="M183.617 137.965C183.617 137.965 163.86 147.24 172.731 160.949C174.924 164.339 178.621 165.263 182.811 164.588M183.617 137.965C183.617 137.965 197.327 128.692 206.197 138.369C210.561 143.13 204.679 151.988 196.52 158.129C192.195 161.385 187.229 163.876 182.811 164.588M183.617 137.965C189.76 148.401 189.541 154.156 182.811 164.588M131.474 173.421C131.474 173.421 111.717 182.695 120.587 196.404C122.92 200.01 126.955 200.826 131.474 199.895M131.474 173.421C131.474 173.421 145.183 164.147 154.054 173.824C158.418 178.585 152.536 187.443 144.377 193.584C140.312 196.643 135.683 199.027 131.474 199.895M131.474 173.421C139.555 184.173 138.413 190.435 131.474 199.895" stroke="#6D48F1" stroke-width="5" stroke-linecap="round"/>
<path d="M165.301 164.473C169.961 170.472 175.934 175.935 183.234 178.404C183.994 178.661 185.688 178.806 185.688 179.771C185.688 183.251 182.294 185.806 180.251 188.258" stroke="#6D48F1" stroke-width="5" stroke-linecap="round"/>
<path d="M163.531 206.062C166.722 207.831 171.039 208.942 174.691 208.584C177.18 208.34 179.776 206.928 181.97 205.821C184.466 204.56 185.866 202.064 186.365 199.402" stroke="#6D48F1" stroke-width="5" stroke-linecap="round"/>
<path d="M256.979 306.057C256.551 306.015 249.259 293.35 243.858 289.865C241.627 288.426 242.747 292.001 243.047 293.199C243.787 296.16 245.263 299.097 246.343 301.962C248.235 306.987 249.69 312.252 251.935 317.131C255.623 325.141 260.546 334.903 268.152 339.876C274.984 344.344 274.507 327.847 274.507 324.833C274.507 315.083 270.91 305.63 266.642 297.019C265.202 294.114 263.845 291.118 261.998 288.442C260.948 286.922 259.662 283.572 257.778 282.887C256.842 282.546 256.979 293.35 256.979 294.272V303.935C256.979 304.642 257.407 306.1 256.979 306.057Z" fill="#AFED3A"/>
<path d="M256.979 294.272C256.979 293.35 256.842 282.546 257.778 282.887C259.662 283.572 260.948 286.922 261.998 288.442C263.845 291.118 265.202 294.114 266.642 297.019C270.91 305.63 274.507 315.083 274.507 324.833C274.507 327.847 274.984 344.344 268.152 339.876C260.546 334.903 255.623 325.141 251.935 317.131C249.69 312.252 248.235 306.987 246.343 301.962C245.263 299.097 243.787 296.16 243.047 293.199C242.747 292.001 241.627 288.426 243.858 289.865C249.259 293.35 256.551 306.015 256.979 306.057C257.407 306.1 256.979 304.642 256.979 303.935M256.979 294.272C256.979 297.493 256.979 300.714 256.979 303.935M256.979 294.272V303.935" stroke="#6D48F1" stroke-width="5" stroke-linecap="round"/>
</svg>
