<svg width="669" height="419" viewBox="0 0 669 419" fill="none" xmlns="http://www.w3.org/2000/svg">
<path d="M380.3 62.5148L358.961 33.7244C335.171 38.7919 272.59 20.5146 269.541 24.9178C266.493 29.3211 249.879 86.5356 227.88 105.531L235.331 122.806C248.885 149.013 263.854 162.519 280.38 167.96C292.802 172.05 306.104 171.584 320.348 168.532C323.853 167.781 327.124 166.901 330.171 165.929C355.981 157.692 365.735 142.79 365.735 142.79C366.565 142.01 367.434 141.104 368.325 140.08C379.445 127.298 394.098 96.0677 380.3 62.5148Z" fill="#F9E4DB"/>
<path d="M254.299 19.8371C235.67 33.0467 222.46 48.6276 217.379 62.5148C212.299 76.402 217.379 109.935 217.379 109.935C217.379 109.935 215.347 157.693 207.218 159.725C199.089 161.757 182.492 157.354 172.331 159.725C162.169 162.096 199.089 179.709 207.218 184.451C215.347 189.193 263.783 199.016 263.783 199.016L265.047 199.355C266.978 192.479 270.357 181.328 280.38 167.96C263.854 162.519 248.885 149.013 235.331 122.806L227.88 105.531C249.879 86.5356 266.493 29.3211 269.541 24.9178C272.59 20.5146 335.171 38.7919 358.961 33.7244L380.3 62.5148C394.098 96.0677 379.445 127.298 368.325 140.08C368.325 140.08 373.526 139.741 375.219 151.596C376.383 159.743 369.618 175.967 365.115 186.145L368.107 184.451C368.107 184.451 380.639 176.661 393.849 165.483C407.058 154.306 433.478 118.064 437.542 109.935L437.848 109.324C442.384 100.261 458.297 68.4629 448.042 76.402C437.542 84.5311 421.284 92.9989 414.171 86.9021C407.058 80.8053 402.655 62.5148 393.849 49.6437C385.042 36.7727 368.107 13.4016 356.252 10.3532C344.397 7.30475 325.09 3.24021 310.186 2.56278C295.283 1.88536 272.928 6.62751 254.299 19.8371Z" fill="#341A8F"/>
<path d="M320.348 168.532C306.104 171.584 292.802 172.05 280.38 167.96C270.357 181.328 266.978 192.479 265.047 199.355C263.715 204.097 263.071 206.806 261.412 206.806C257.347 206.806 86.298 196.306 86.298 196.306C86.298 196.306 31.0879 191.564 12.7975 243.048C-5.49299 294.533 2.97512 313.5 19.5718 337.549C36.1686 361.598 53.4431 362.952 70.0399 362.952C76.2165 362.952 95.0117 361.874 117.121 360.239C154.421 357.482 201.154 353.145 212.638 349.743C230.928 344.323 229.912 335.517 229.912 335.517L229.573 333.132C222.639 333.628 215.988 332.9 213.993 328.742C209.928 320.275 227.541 274.548 235.332 271.161C237.866 270.059 242.192 270.786 246.923 272.465C256.736 275.949 268.289 283.534 269.203 287.419C269.203 287.419 283.767 282.678 290.541 283.694C293.969 284.208 304.94 290.705 316.961 298.051C319.795 263.608 309.026 213.274 316.961 209.855C324.896 206.435 329.327 183.335 330.171 165.929C327.124 166.901 323.853 167.781 320.348 168.532Z" fill="#8464F5"/>
<path d="M368.325 140.08C367.434 141.104 366.565 142.01 365.735 142.79C365.735 142.79 355.981 157.692 330.171 165.929C329.327 183.335 324.896 206.435 316.961 209.855C309.026 213.274 319.795 263.608 316.961 298.051C328.7 305.225 341.441 313.21 349.139 317.226C364.719 325.355 330.171 329.42 330.171 329.42C342.41 342.033 360.133 359.367 354.897 362.952C346.766 368.52 324.779 343.773 324.413 348.049C330.504 359.857 334.357 377.316 330.171 380.904C327.503 383.19 324.482 382.571 321.748 380.904L320.348 416.469H455.155L451.43 380.904C451.43 380.904 451.091 353.469 455.155 349.743C459.22 346.017 582.85 362.952 602.834 357.872C622.818 352.791 635.689 337.21 640.092 313.839C644.495 290.468 672.947 212.225 665.157 184.451C657.367 156.677 637.721 155.661 637.721 155.661L635.267 155.587C634.243 158.781 633.087 161.313 632.302 162.435C629.931 165.822 621.802 171.58 599.786 170.225C577.769 168.87 570.656 159.725 569.301 155.322C568.931 154.117 568.687 151.618 568.646 148.548H566.592C566.592 148.548 546.608 146.854 538.479 168.532C530.349 190.209 552.443 236.071 549.317 235.597C546.192 235.122 363.32 194.788 361.332 194.951C359.344 195.115 363.065 190.778 365.115 186.145C369.618 175.967 376.383 159.743 375.219 151.596C373.526 139.741 368.325 140.08 368.325 140.08Z" fill="#8464F5"/>
<path d="M229.912 335.517C229.912 335.517 230.928 344.323 212.638 349.743C201.154 353.145 154.421 357.482 117.121 360.239C112.401 386.205 112.203 398.698 117.121 416.469H320.348L321.748 380.904C317.19 378.126 313.429 372.436 313.429 372.436C314.82 377.767 314.81 381.605 311.542 380.904C302.058 378.872 294.606 363.969 290.541 356.856C286.477 349.743 251.251 326.436 251.251 326.436C249.633 328.511 248.219 329.854 247.187 330.097C244.256 330.787 236.762 332.617 229.573 333.132L229.912 335.517Z" fill="#8464F5"/>
<path d="M235.332 271.161C227.541 274.548 209.928 320.275 213.993 328.742C215.988 332.9 222.639 333.628 229.573 333.132C236.762 332.617 244.256 330.787 247.187 330.097C248.219 329.854 249.633 328.511 251.251 326.436C258.652 316.944 270.314 292.145 269.203 287.419C268.289 283.534 256.736 275.949 246.923 272.465C242.192 270.786 237.866 270.059 235.332 271.161Z" fill="#8464F5"/>
<path d="M599.786 170.225C621.802 171.58 629.931 165.822 632.302 162.435C633.087 161.313 634.243 158.781 635.267 155.587C637.335 149.136 638.861 139.986 635.689 134.322C634.455 132.118 630.076 130.212 624.173 128.664C611.661 125.384 592.297 123.712 581.495 124.217C577.813 124.39 575.126 124.815 574.043 125.515C569.861 128.222 568.538 140.398 568.646 148.548C568.687 151.618 568.931 154.117 569.301 155.322C570.656 159.725 577.769 168.87 599.786 170.225Z" fill="#8464F5"/>
<path d="M569.301 101.467L581.495 124.217C592.297 123.712 611.661 125.384 624.173 128.664C624.173 128.664 639.076 104.854 642.463 96.0474C645.85 87.2409 667.189 47.2728 658.383 43.8857C649.576 40.4986 631.286 77.4182 628.576 74.7085C625.866 71.9988 641.447 22.2081 630.27 22.2081C619.092 22.2081 616.382 72.6762 612.318 71.6601C608.253 70.644 608.592 22.8856 600.463 26.2727C592.334 29.6598 595.721 81.144 587.931 88.257C580.14 95.3699 570.318 57.7729 564.221 64.5471C558.124 71.3214 569.301 101.467 569.301 101.467Z" fill="#F9E4DB"/>
<path d="M269.203 287.419C270.314 292.145 258.652 316.944 251.251 326.436C251.251 326.436 286.477 349.743 290.541 356.856C294.606 363.969 302.058 378.872 311.542 380.904C314.81 381.605 314.82 377.767 313.429 372.436C313.429 372.436 317.19 378.126 321.748 380.904C324.482 382.571 327.503 383.19 330.171 380.904C334.357 377.316 330.504 359.857 324.413 348.049C324.779 343.773 346.766 368.52 354.897 362.952C360.133 359.367 342.41 342.033 330.171 329.42C330.171 329.42 364.719 325.355 349.139 317.226C341.441 313.21 328.7 305.225 316.961 298.051C304.94 290.705 293.969 284.208 290.541 283.694C283.767 282.678 269.203 287.419 269.203 287.419Z" fill="#F9E4DB"/>
<path d="M235.332 271.161C227.541 274.548 209.928 320.275 213.993 328.742C215.988 332.9 222.639 333.628 229.573 333.132C236.762 332.617 244.256 330.787 247.187 330.097C248.219 329.854 249.633 328.511 251.251 326.436C258.652 316.944 270.314 292.145 269.203 287.419C268.289 283.534 256.736 275.949 246.923 272.465C242.192 270.786 237.866 270.059 235.332 271.161Z" fill="#8464F5"/>
<path d="M269.203 287.419C270.314 292.145 258.652 316.944 251.251 326.436C251.251 326.436 286.477 349.743 290.541 356.856C294.606 363.969 302.058 378.872 311.542 380.904C314.81 381.605 314.82 377.767 313.429 372.436C313.429 372.436 317.19 378.126 321.748 380.904C324.482 382.571 327.503 383.19 330.171 380.904C334.357 377.316 330.504 359.857 324.413 348.049C324.779 343.773 346.766 368.52 354.897 362.952C360.133 359.367 342.41 342.033 330.171 329.42C330.171 329.42 364.719 325.355 349.139 317.226C341.441 313.21 328.7 305.225 316.961 298.051C304.94 290.705 293.969 284.208 290.541 283.694C283.767 282.678 269.203 287.419 269.203 287.419Z" fill="#F9E4DB"/>
<path d="M217.379 109.935L219.877 110.041L219.887 109.799L219.851 109.56L217.379 109.935ZM172.331 159.725L172.899 162.16V162.16L172.331 159.725ZM263.783 199.016L264.431 196.601L264.356 196.581L264.28 196.566L263.783 199.016ZM356.252 10.3532L355.629 12.7744V12.7744L356.252 10.3532ZM448.042 76.402L449.573 78.3788V78.3788L448.042 76.402ZM437.848 109.324L435.612 108.205L435.612 108.205L437.848 109.324ZM437.542 109.935L435.307 108.816L435.306 108.816L437.542 109.935ZM393.849 165.483L392.234 163.575V163.575L393.849 165.483ZM368.107 184.451L369.338 186.627L369.383 186.602L369.426 186.574L368.107 184.451ZM320.348 168.532L319.824 166.087V166.087L320.348 168.532ZM365.735 142.79L364.024 140.967L363.807 141.171L363.644 141.42L365.735 142.79ZM380.3 62.5148L382.612 61.564L382.494 61.2762L382.309 61.0262L380.3 62.5148ZM358.961 33.7244L360.97 32.2357L360.013 30.9443L358.44 31.2792L358.961 33.7244ZM227.88 105.531L226.246 103.639L224.858 104.838L225.584 106.522L227.88 105.531ZM235.331 122.806L233.036 123.796L233.07 123.876L233.111 123.954L235.331 122.806ZM280.38 167.96L281.162 165.585L280.38 167.96ZM86.298 196.306L86.084 198.797L86.1144 198.8L86.1448 198.801L86.298 196.306ZM212.638 349.743L211.927 347.346L212.638 349.743ZM229.912 335.517L232.396 335.23L232.392 335.198L232.387 335.165L229.912 335.517ZM247.525 271.161L245.316 269.992L245.284 270.052L245.255 270.113L247.525 271.161ZM368.325 140.08L366.439 138.439V138.439L368.325 140.08ZM375.219 151.596L372.745 151.95V151.95L375.219 151.596ZM566.592 148.548L566.381 151.039L566.486 151.048H566.592V148.548ZM451.43 380.904L448.93 380.935L448.931 381.05L448.943 381.165L451.43 380.904ZM637.721 155.661L637.85 153.164L637.823 153.163L637.796 153.162L637.721 155.661ZM247.187 330.097L247.759 332.531L247.187 330.097ZM269.203 287.419L266.769 287.992L269.203 287.419ZM235.332 271.161L236.328 273.454L235.332 271.161ZM213.993 328.742L216.247 327.66L213.993 328.742ZM632.302 162.435L630.254 161.001V161.001L632.302 162.435ZM569.301 155.322L571.691 154.587L569.301 155.322ZM574.043 125.515L575.402 127.614L574.043 125.515ZM635.689 134.322L633.508 135.543L635.689 134.322ZM635.267 155.587L632.886 154.824L635.267 155.587ZM569.301 101.467L566.957 102.336L567.017 102.497L567.098 102.648L569.301 101.467ZM624.173 128.664L623.539 131.082L624.173 128.664ZM311.542 380.904L311.018 383.349L311.542 380.904ZM305.313 345.648C304.7 344.411 303.199 343.906 301.963 344.519C300.726 345.133 300.221 346.633 300.834 347.87L303.074 346.759L305.313 345.648ZM313.429 372.436L311.01 373.067L313.429 372.436ZM330.171 380.904L328.544 379.006V379.006L330.171 380.904ZM315.271 330.778C314.338 329.761 312.756 329.693 311.739 330.627C310.722 331.56 310.654 333.142 311.588 334.159L313.429 332.468L315.271 330.778ZM354.897 362.952L356.309 365.015L354.897 362.952ZM318.535 315.284C317.462 314.415 315.888 314.58 315.019 315.653C314.149 316.725 314.314 318.3 315.387 319.169L316.961 317.226L318.535 315.284ZM290.541 283.694L290.171 286.166L290.541 283.694ZM349.139 317.226L350.295 315.01V315.01L349.139 317.226ZM330.171 329.42L328.377 331.161L330.171 329.42ZM117.121 416.469L114.712 417.136L115.219 418.969H117.121V416.469ZM455.155 416.469V418.969H457.931L457.642 416.208L455.155 416.469ZM316.961 298.051L315.657 300.185V300.185L316.961 298.051ZM254.299 19.8371L252.853 17.7978C233.992 31.172 220.349 47.1201 215.032 61.6559L217.379 62.5148L219.727 63.3737C224.571 50.1351 237.348 34.9214 255.745 21.8764L254.299 19.8371ZM217.379 62.5148L215.032 61.6559C213.63 65.4882 212.981 70.491 212.739 75.6661C212.495 80.8861 212.658 86.4779 212.979 91.589C213.3 96.7063 213.782 101.379 214.182 104.771C214.383 106.468 214.563 107.848 214.694 108.805C214.759 109.284 214.812 109.657 214.849 109.912C214.868 110.039 214.882 110.137 214.892 110.204C214.897 110.237 214.901 110.263 214.903 110.281C214.905 110.289 214.906 110.296 214.906 110.301C214.907 110.303 214.907 110.305 214.907 110.306C214.907 110.307 214.907 110.308 214.908 110.308C214.908 110.309 214.908 110.309 217.379 109.935C219.851 109.56 219.851 109.56 219.851 109.56C219.851 109.56 219.851 109.56 219.851 109.559C219.851 109.559 219.851 109.558 219.851 109.556C219.85 109.553 219.849 109.547 219.848 109.54C219.846 109.525 219.843 109.502 219.838 109.472C219.829 109.411 219.815 109.319 219.798 109.197C219.763 108.954 219.712 108.593 219.648 108.128C219.521 107.197 219.344 105.848 219.148 104.185C218.755 100.856 218.283 96.2775 217.969 91.2758C217.655 86.2678 217.501 80.8726 217.733 75.8995C217.968 70.8815 218.589 66.485 219.727 63.3737L217.379 62.5148ZM217.379 109.935C214.882 109.828 214.882 109.828 214.882 109.828C214.882 109.829 214.882 109.829 214.882 109.83C214.882 109.831 214.881 109.833 214.881 109.835C214.881 109.84 214.881 109.849 214.88 109.86C214.879 109.881 214.878 109.914 214.876 109.959C214.872 110.047 214.866 110.178 214.858 110.351C214.841 110.696 214.815 111.205 214.78 111.854C214.709 113.153 214.599 115.013 214.441 117.253C214.125 121.736 213.621 127.721 212.866 133.758C212.109 139.817 211.111 145.832 209.828 150.414C209.183 152.716 208.499 154.535 207.803 155.788C207.04 157.162 206.566 157.311 206.612 157.3L207.218 159.725L207.824 162.151C209.903 161.631 211.27 159.844 212.174 158.216C213.145 156.469 213.954 154.223 214.643 151.762C216.027 146.818 217.061 140.512 217.828 134.378C218.597 128.221 219.109 122.139 219.429 117.604C219.589 115.335 219.7 113.448 219.773 112.127C219.809 111.466 219.835 110.947 219.852 110.592C219.86 110.414 219.867 110.277 219.871 110.185C219.873 110.138 219.874 110.103 219.876 110.079C219.876 110.067 219.876 110.057 219.877 110.051C219.877 110.048 219.877 110.046 219.877 110.044C219.877 110.043 219.877 110.042 219.877 110.042C219.877 110.041 219.877 110.041 217.379 109.935ZM207.218 159.725L206.612 157.3C204.924 157.722 202.643 157.838 199.845 157.75C197.071 157.663 193.997 157.385 190.75 157.107C184.426 156.566 177.307 155.997 171.763 157.291L172.331 159.725L172.899 162.16C177.516 161.082 183.776 161.529 190.323 162.089C193.511 162.362 196.746 162.655 199.688 162.748C202.605 162.84 205.447 162.745 207.824 162.151L207.218 159.725ZM172.331 159.725L171.763 157.291C170.934 157.484 170.011 157.823 169.275 158.494C168.429 159.264 168.002 160.323 168.086 161.458C168.158 162.44 168.597 163.274 169.013 163.887C169.45 164.529 170.015 165.148 170.627 165.731C173.019 168.012 177.169 170.713 181.646 173.353C186.186 176.03 191.289 178.773 195.738 181.13C200.235 183.512 203.985 185.459 205.958 186.611L207.218 184.451L208.478 182.292C206.387 181.072 202.473 179.04 198.079 176.711C193.637 174.358 188.62 171.661 184.185 169.046C179.686 166.393 176.003 163.949 174.077 162.113C173.609 161.667 173.314 161.32 173.148 161.075C172.961 160.801 173.053 160.825 173.072 161.09C173.103 161.507 172.917 161.94 172.642 162.189C172.478 162.339 172.457 162.263 172.899 162.16L172.331 159.725ZM207.218 184.451L205.958 186.611C207.202 187.336 209.048 188.074 211.17 188.803C213.337 189.547 215.947 190.334 218.813 191.135C224.549 192.737 231.406 194.419 237.984 195.947C244.566 197.476 250.89 198.855 255.567 199.852C257.906 200.351 259.834 200.754 261.179 201.032C261.851 201.172 262.377 201.28 262.735 201.353C262.915 201.39 263.052 201.418 263.145 201.437C263.191 201.447 263.226 201.454 263.25 201.459C263.262 201.461 263.271 201.463 263.277 201.464C263.28 201.465 263.282 201.465 263.284 201.465C263.285 201.466 263.285 201.466 263.286 201.466C263.286 201.466 263.286 201.466 263.783 199.016C264.28 196.566 264.28 196.566 264.28 196.566C264.279 196.566 264.279 196.565 264.278 196.565C264.277 196.565 264.275 196.565 264.272 196.564C264.266 196.563 264.258 196.561 264.246 196.559C264.223 196.554 264.189 196.547 264.143 196.538C264.052 196.519 263.917 196.492 263.739 196.455C263.384 196.383 262.862 196.275 262.194 196.137C260.857 195.86 258.938 195.458 256.609 194.962C251.951 193.969 245.658 192.596 239.115 191.077C232.567 189.556 225.791 187.893 220.158 186.32C217.341 185.533 214.833 184.775 212.795 184.074C210.712 183.358 209.266 182.752 208.478 182.292L207.218 184.451ZM254.299 19.8371L255.745 21.8764C273.888 9.01184 295.685 4.40621 310.073 5.0602L310.186 2.56278L310.3 0.0653598C294.881 -0.6355 271.969 4.24317 252.853 17.7978L254.299 19.8371ZM310.186 2.56278L310.073 5.0602C324.717 5.72582 343.826 9.73926 355.629 12.7744L356.252 10.3532L356.874 7.93192C344.968 4.87024 325.463 0.754589 310.3 0.0653598L310.186 2.56278ZM356.252 10.3532L355.629 12.7744C358.058 13.3991 360.998 15.1527 364.291 17.8906C367.542 20.5939 370.947 24.0949 374.307 27.9562C381.026 35.6766 387.396 44.6404 391.785 51.0555L393.849 49.6437L395.912 48.232C391.495 41.776 384.993 32.6188 378.079 24.6738C374.623 20.7023 371.021 16.9846 367.487 14.0461C363.995 11.1423 360.372 8.83145 356.874 7.93192L356.252 10.3532ZM393.849 49.6437L391.785 51.0555C396.03 57.2589 399.231 64.7987 402.361 71.8299C403.905 75.2977 405.439 78.654 407.051 81.5385C408.651 84.3994 410.432 86.9895 412.544 88.8002L414.171 86.9021L415.798 85.0039C414.354 83.7662 412.917 81.7837 411.416 79.0982C409.927 76.4363 408.476 73.2724 406.929 69.7966C403.877 62.9406 400.474 54.8997 395.912 48.232L393.849 49.6437ZM414.171 86.9021L412.544 88.8002C414.935 90.8489 417.961 91.5489 421.047 91.476C424.12 91.4034 427.44 90.5666 430.721 89.325C437.29 86.8398 444.196 82.5414 449.573 78.3788L448.042 76.402L446.512 74.4252C441.389 78.3917 434.916 82.3918 428.952 84.6485C425.967 85.7779 423.233 86.4229 420.929 86.4774C418.638 86.5315 416.965 86.0036 415.798 85.0039L414.171 86.9021ZM448.042 76.402L449.573 78.3788C450.136 77.943 450.5 77.731 450.696 77.6428C450.946 77.53 450.682 77.7222 450.158 77.5981C449.424 77.4241 449.059 76.8687 448.953 76.5822C448.888 76.4052 448.94 76.4096 448.918 76.7721C448.877 77.4604 448.631 78.6029 448.133 80.1936C447.649 81.741 446.975 83.5631 446.173 85.5518C442.954 93.5312 437.89 103.654 435.612 108.205L437.848 109.324L440.084 110.443C442.342 105.93 447.502 95.6227 450.81 87.4223C451.64 85.366 452.366 83.4088 452.905 81.6865C453.43 80.0077 453.83 78.3902 453.909 77.0723C453.948 76.4317 453.929 75.6215 453.643 74.8487C453.317 73.9665 452.583 73.0342 451.311 72.7329C450.25 72.4814 449.281 72.7956 448.64 73.0849C447.944 73.3986 447.231 73.8686 446.512 74.4252L448.042 76.402ZM437.848 109.324L435.612 108.205L435.307 108.816L437.542 109.935L439.778 111.053L440.084 110.442L437.848 109.324ZM437.542 109.935L435.306 108.816C433.397 112.636 425.924 123.547 417.138 135.048C408.363 146.537 398.605 158.184 392.234 163.575L393.849 165.483L395.463 167.392C402.302 161.605 412.359 149.543 421.112 138.083C429.855 126.637 437.624 115.362 439.778 111.053L437.542 109.935ZM393.849 165.483L392.234 163.575C385.704 169.1 379.333 173.795 374.591 177.11C372.222 178.766 370.264 180.075 368.901 180.968C368.22 181.415 367.687 181.757 367.327 181.986C367.147 182.101 367.01 182.188 366.919 182.245C366.874 182.274 366.839 182.295 366.817 182.309C366.806 182.316 366.798 182.321 366.793 182.324C366.79 182.326 366.789 182.327 366.788 182.327C366.787 182.328 366.787 182.328 366.787 182.328C366.786 182.328 366.786 182.328 366.786 182.328C366.787 182.328 366.787 182.328 368.107 184.451C369.426 186.574 369.427 186.574 369.427 186.574C369.427 186.574 369.427 186.574 369.428 186.574C369.428 186.573 369.429 186.573 369.43 186.572C369.432 186.571 369.435 186.569 369.438 186.567C369.445 186.563 369.455 186.556 369.468 186.548C369.495 186.532 369.532 186.508 369.582 186.477C369.681 186.415 369.826 186.323 370.014 186.203C370.391 185.963 370.941 185.609 371.641 185.15C373.041 184.233 375.041 182.896 377.456 181.208C382.283 177.833 388.784 173.044 395.463 167.392L393.849 165.483ZM380.3 62.5148L382.309 61.0262L360.97 32.2357L358.961 33.7244L356.953 35.213L378.292 64.0034L380.3 62.5148ZM358.961 33.7244L358.44 31.2792C352.898 32.4597 344.857 32.3082 335.632 31.3796C326.471 30.4575 316.401 28.7998 306.911 27.109C297.473 25.4271 288.538 23.6986 281.83 22.6773C278.479 22.1672 275.571 21.8149 273.366 21.7413C272.275 21.7048 271.238 21.7315 270.36 21.8834C269.657 22.0049 268.3 22.3192 267.486 23.4948L269.541 24.9178L271.597 26.3409C271.164 26.9661 270.652 26.9071 271.212 26.8102C271.598 26.7436 272.241 26.7065 273.199 26.7385C275.094 26.8018 277.761 27.1154 281.077 27.6204C287.704 28.6293 296.473 30.3278 306.034 32.0314C315.545 33.7261 325.771 35.4123 335.131 36.3544C344.426 37.29 353.129 37.5228 359.482 36.1695L358.961 33.7244ZM269.541 24.9178L267.486 23.4948C267.146 23.9848 266.821 24.6627 266.526 25.3285C266.21 26.0445 265.848 26.9342 265.449 27.9584C264.65 30.0062 263.655 32.7033 262.495 35.8304C260.166 42.1073 257.133 50.2202 253.514 58.7788C249.894 67.3424 245.705 76.308 241.079 84.2868C236.435 92.2966 231.437 99.1569 226.246 103.639L227.88 105.531L229.513 107.424C235.322 102.408 240.651 94.993 245.404 86.7949C250.176 78.5659 254.456 69.3909 258.12 60.726C261.785 52.0561 264.852 43.8526 267.183 37.5697C268.353 34.4169 269.328 31.7733 270.107 29.7752C270.497 28.7764 270.827 27.9669 271.099 27.3517C271.235 27.0446 271.349 26.8027 271.442 26.6195C271.489 26.5287 271.526 26.4597 271.555 26.4094C271.585 26.3573 271.599 26.3376 271.597 26.3409L269.541 24.9178ZM227.88 105.531L225.584 106.522L233.036 123.796L235.331 122.806L237.627 121.815L230.175 104.541L227.88 105.531ZM235.331 122.806L233.111 123.954C246.843 150.507 262.237 164.618 279.598 170.335L280.38 167.96L281.162 165.585C265.471 160.419 250.927 147.52 237.552 121.657L235.331 122.806ZM280.38 167.96L279.598 170.335C292.594 174.614 306.385 174.081 320.872 170.976L320.348 168.532L319.824 166.087C305.824 169.087 293.01 169.486 281.162 165.585L280.38 167.96ZM261.412 206.806V204.306C261.412 204.306 261.407 204.306 261.395 204.306C261.383 204.306 261.368 204.306 261.348 204.305C261.307 204.304 261.254 204.302 261.188 204.3C261.056 204.295 260.881 204.288 260.664 204.279C260.23 204.259 259.641 204.23 258.906 204.192C257.435 204.115 255.394 204.003 252.862 203.859C247.799 203.572 240.787 203.162 232.484 202.67C215.878 201.686 194.117 200.373 172.482 199.061C150.847 197.748 129.34 196.436 113.241 195.451C105.191 194.959 98.4936 194.549 93.8086 194.262C91.4661 194.118 89.6267 194.006 88.373 193.929C87.7461 193.89 87.2656 193.861 86.9419 193.841C86.78 193.831 86.6573 193.823 86.5751 193.818C86.534 193.816 86.503 193.814 86.4823 193.813C86.4719 193.812 86.4641 193.812 86.4589 193.811C86.4563 193.811 86.4544 193.811 86.4531 193.811C86.4518 193.811 86.4511 193.811 86.298 196.306C86.1448 198.801 86.1454 198.801 86.1467 198.802C86.148 198.802 86.15 198.802 86.1526 198.802C86.1578 198.802 86.1656 198.803 86.176 198.803C86.1967 198.805 86.2277 198.807 86.2688 198.809C86.351 198.814 86.4738 198.822 86.6356 198.832C86.9594 198.851 87.4399 198.881 88.0669 198.919C89.3207 198.996 91.1602 199.109 93.5028 199.253C98.1879 199.54 104.886 199.95 112.935 200.442C129.035 201.426 150.544 202.739 172.179 204.052C215.358 206.671 259.279 209.306 261.412 209.306V206.806ZM86.298 196.306C86.5119 193.815 86.5105 193.815 86.5089 193.815C86.5081 193.815 86.5063 193.815 86.5047 193.815C86.5015 193.814 86.4974 193.814 86.4925 193.814C86.4827 193.813 86.4695 193.812 86.453 193.811C86.42 193.808 86.3738 193.804 86.3148 193.8C86.1967 193.792 86.0271 193.781 85.8088 193.769C85.3723 193.745 84.7408 193.719 83.937 193.703C82.33 193.673 80.0308 193.69 77.2212 193.875C71.6089 194.245 63.9215 195.289 55.6311 197.994C39.0003 203.421 19.9082 215.565 10.4417 242.211L12.7975 243.048L15.1532 243.885C23.9772 219.047 41.6354 207.821 57.1822 202.747C64.9805 200.203 72.2388 199.214 77.55 198.864C80.2021 198.689 82.3591 198.675 83.8428 198.702C84.5844 198.716 85.157 198.741 85.5381 198.762C85.7287 198.772 85.8713 198.781 85.9633 198.788C86.0092 198.791 86.0425 198.794 86.0628 198.795C86.0729 198.796 86.0797 198.797 86.0833 198.797C86.0851 198.797 86.086 198.797 86.0862 198.797C86.0862 198.797 86.0857 198.797 86.0857 198.797C86.085 198.797 86.084 198.797 86.298 196.306ZM12.7975 243.048L10.4417 242.211C1.23562 268.125 -1.35676 286.173 0.624219 300.92C2.61109 315.711 9.16307 326.868 17.5143 338.969L19.5718 337.549L21.6294 336.129C13.3839 324.181 7.40346 313.831 5.57971 300.254C3.75007 286.634 6.06885 269.456 15.1532 243.885L12.7975 243.048ZM19.5718 337.549L17.5143 338.969C26.0469 351.333 34.8867 358.039 43.8874 361.594C52.8264 365.125 61.7049 365.452 70.0399 365.452V362.952V360.452C61.7781 360.452 53.7209 360.102 45.7243 356.944C37.7893 353.809 29.6935 347.814 21.6294 336.129L19.5718 337.549ZM212.638 349.743L213.348 352.14C222.843 349.326 227.722 345.516 230.176 342.039C231.4 340.305 231.975 338.715 232.232 337.49C232.359 336.881 232.407 336.37 232.419 335.985C232.425 335.792 232.422 335.631 232.416 335.504C232.414 335.441 232.41 335.386 232.406 335.34C232.404 335.317 232.402 335.297 232.401 335.278C232.4 335.269 232.399 335.261 232.398 335.253C232.398 335.249 232.397 335.245 232.397 335.241C232.397 335.239 232.396 335.236 232.396 335.235C232.396 335.233 232.396 335.23 229.912 335.517C227.429 335.803 227.428 335.801 227.428 335.798C227.428 335.797 227.428 335.795 227.427 335.793C227.427 335.79 227.427 335.787 227.426 335.784C227.426 335.778 227.425 335.773 227.425 335.768C227.424 335.758 227.423 335.75 227.423 335.744C227.422 335.732 227.421 335.728 227.422 335.73C227.422 335.735 227.423 335.768 227.421 335.827C227.418 335.944 227.401 336.164 227.338 336.465C227.214 337.06 226.9 338.011 226.091 339.156C224.481 341.437 220.723 344.74 211.927 347.346L212.638 349.743ZM247.525 271.161C249.735 272.331 249.736 272.329 249.737 272.327C249.737 272.326 249.738 272.324 249.739 272.323C249.74 272.32 249.742 272.317 249.744 272.313C249.747 272.307 249.751 272.299 249.755 272.291C249.764 272.275 249.773 272.256 249.784 272.233C249.806 272.189 249.833 272.133 249.864 272.065C249.925 271.93 250.003 271.749 250.089 271.523C250.26 271.071 250.464 270.441 250.636 269.646C250.979 268.054 251.191 265.815 250.757 263.066C249.881 257.523 246.444 250.247 236.952 242.161L235.331 244.065L233.71 245.968C242.509 253.463 245.169 259.735 245.818 263.846C246.146 265.923 245.976 267.537 245.748 268.591C245.634 269.12 245.504 269.511 245.414 269.75C245.369 269.869 245.333 269.95 245.314 269.991C245.305 270.012 245.3 270.022 245.3 270.022C245.3 270.023 245.301 270.02 245.304 270.015C245.305 270.012 245.306 270.009 245.308 270.005C245.309 270.003 245.311 270.001 245.312 269.999C245.312 269.998 245.313 269.996 245.314 269.996C245.315 269.994 245.316 269.992 247.525 271.161ZM235.331 244.065L236.952 242.161C234.376 239.966 230.611 237.943 226.179 236.066C221.709 234.174 216.394 232.363 210.594 230.648C198.993 227.219 185.297 224.133 172.224 221.543C159.141 218.952 146.638 216.851 137.409 215.398C132.793 214.671 128.994 214.106 126.347 213.722C125.023 213.53 123.988 213.384 123.282 213.285C122.929 213.236 122.659 213.198 122.477 213.173C122.385 213.161 122.316 213.151 122.269 213.145C122.246 213.142 122.228 213.139 122.216 213.138C122.21 213.137 122.206 213.136 122.203 213.136C122.201 213.136 122.2 213.136 122.199 213.135C122.198 213.135 122.198 213.135 121.863 215.613C121.528 218.09 121.528 218.09 121.528 218.09C121.529 218.09 121.53 218.09 121.531 218.091C121.534 218.091 121.538 218.092 121.544 218.092C121.555 218.094 121.572 218.096 121.594 218.099C121.639 218.105 121.707 218.115 121.796 218.127C121.975 218.151 122.241 218.188 122.59 218.237C123.288 218.335 124.315 218.48 125.63 218.67C128.259 219.051 132.038 219.614 136.631 220.337C145.819 221.784 158.254 223.874 171.252 226.448C184.26 229.024 197.787 232.077 209.177 235.443C214.872 237.127 219.994 238.877 224.229 240.671C228.503 242.48 231.714 244.267 233.71 245.968L235.331 244.065ZM365.735 142.79L367.447 144.612C368.345 143.768 369.272 142.8 370.211 141.721L368.325 140.08L366.439 138.439C365.595 139.409 364.785 140.253 364.024 140.967L365.735 142.79ZM368.325 140.08L370.211 141.721C381.741 128.467 396.877 96.2535 382.612 61.564L380.3 62.5148L377.988 63.4656C391.318 95.8819 377.148 126.129 366.439 138.439L368.325 140.08ZM368.325 140.08C368.487 142.575 368.485 142.575 368.482 142.575C368.481 142.575 368.478 142.575 368.476 142.575C368.473 142.576 368.469 142.576 368.466 142.576C368.459 142.576 368.452 142.577 368.446 142.577C368.433 142.578 368.421 142.578 368.41 142.578C368.389 142.579 368.371 142.579 368.357 142.579C368.329 142.579 368.315 142.577 368.314 142.577C368.312 142.577 368.361 142.581 368.449 142.608C368.613 142.657 368.977 142.8 369.44 143.229C370.375 144.093 371.943 146.34 372.745 151.95L375.219 151.596L377.694 151.243C376.802 144.997 374.923 141.487 372.834 139.556C371.786 138.588 370.743 138.075 369.879 137.817C369.453 137.69 369.082 137.628 368.789 137.6C368.643 137.586 368.516 137.58 368.411 137.579C368.358 137.579 368.311 137.579 368.269 137.58C368.249 137.581 368.229 137.582 368.211 137.582C368.203 137.583 368.194 137.583 368.186 137.584C368.182 137.584 368.178 137.584 368.174 137.585C368.172 137.585 368.169 137.585 368.168 137.585C368.165 137.585 368.162 137.585 368.325 140.08ZM361.332 194.951L361.537 197.443C361.391 197.455 361.282 197.45 361.252 197.449C361.208 197.447 361.179 197.444 361.171 197.443C361.155 197.442 361.161 197.442 361.202 197.448C361.28 197.459 361.41 197.48 361.602 197.514C361.982 197.581 362.532 197.686 363.252 197.828C364.687 198.112 366.744 198.535 369.34 199.078C374.529 200.165 381.842 201.728 390.577 203.61C408.046 207.375 431.186 212.416 454.365 217.477C477.537 222.537 500.762 227.621 518.372 231.465C535.894 235.29 548.055 237.934 548.942 238.068L549.317 235.597L549.692 233.125C549.705 233.127 549.664 233.12 549.523 233.092C549.398 233.068 549.229 233.034 549.013 232.989C548.583 232.901 547.987 232.775 547.233 232.615C545.726 232.295 543.604 231.838 540.953 231.264C535.652 230.117 528.246 228.503 519.439 226.58C501.82 222.734 478.617 217.655 455.432 212.592C432.253 207.531 409.107 202.489 391.631 198.723C382.893 196.84 375.569 195.274 370.365 194.184C367.764 193.64 365.685 193.212 364.222 192.923C363.492 192.779 362.902 192.666 362.473 192.59C362.261 192.553 362.069 192.521 361.911 192.498C361.834 192.487 361.744 192.475 361.653 192.466C361.618 192.463 361.39 192.438 361.128 192.46L361.332 194.951ZM549.317 235.597L548.942 238.068C549.334 238.128 549.848 238.121 550.388 237.901C550.941 237.676 551.341 237.301 551.604 236.916C552.06 236.247 552.109 235.546 552.12 235.254C552.145 234.579 552 233.819 551.852 233.177C551.533 231.798 550.921 229.854 550.174 227.585C548.653 222.965 546.464 216.674 544.422 209.671C542.381 202.672 540.52 195.07 539.665 187.925C538.802 180.728 538.996 174.272 540.819 169.41L538.479 168.532L536.138 167.654C533.897 173.631 533.804 181.036 534.7 188.52C535.603 196.056 537.546 203.955 539.622 211.071C541.696 218.184 543.936 224.625 545.425 229.148C546.183 231.45 546.721 233.181 546.98 234.303C547.121 234.913 547.122 235.11 547.123 235.066C547.124 235.033 547.13 234.932 547.164 234.787C547.197 234.649 547.276 234.388 547.472 234.1C547.685 233.788 548.024 233.465 548.504 233.27C548.97 233.08 549.398 233.08 549.692 233.125L549.317 235.597ZM538.479 168.532L540.819 169.41C544.602 159.322 551.048 154.81 556.472 152.747C559.219 151.703 561.739 151.276 563.566 151.112C564.477 151.03 565.208 151.014 565.7 151.017C565.945 151.019 566.129 151.026 566.246 151.031C566.304 151.034 566.345 151.036 566.368 151.038C566.379 151.039 566.386 151.039 566.388 151.039C566.389 151.04 566.389 151.04 566.388 151.039C566.387 151.039 566.386 151.039 566.385 151.039C566.385 151.039 566.383 151.039 566.383 151.039C566.382 151.039 566.381 151.039 566.592 148.548C566.803 146.057 566.801 146.057 566.8 146.056C566.799 146.056 566.798 146.056 566.797 146.056C566.794 146.056 566.791 146.056 566.788 146.055C566.782 146.055 566.775 146.054 566.766 146.054C566.749 146.052 566.727 146.051 566.701 146.049C566.648 146.046 566.575 146.041 566.485 146.037C566.305 146.028 566.052 146.02 565.735 146.017C565.101 146.013 564.208 146.034 563.118 146.132C560.944 146.327 557.96 146.832 554.695 148.074C548.095 150.584 540.484 156.063 536.138 167.654L538.479 168.532ZM451.43 380.904C453.93 380.873 453.93 380.873 453.93 380.873C453.93 380.873 453.93 380.873 453.93 380.873C453.929 380.872 453.929 380.871 453.929 380.87C453.929 380.867 453.929 380.862 453.929 380.856C453.929 380.844 453.929 380.826 453.929 380.801C453.928 380.751 453.928 380.675 453.927 380.577C453.925 380.379 453.924 380.087 453.923 379.714C453.922 378.966 453.924 377.891 453.94 376.589C453.972 373.982 454.055 370.477 454.264 366.865C454.474 363.239 454.806 359.57 455.321 356.613C455.58 355.131 455.873 353.896 456.193 352.963C456.352 352.498 456.505 352.15 456.64 351.902C456.78 351.643 456.861 351.571 456.845 351.586L455.155 349.743L453.466 347.9C452.478 348.806 451.874 350.144 451.464 351.34C451.024 352.62 450.677 354.14 450.396 355.754C449.832 358.989 449.486 362.878 449.273 366.576C449.058 370.289 448.972 373.875 448.94 376.529C448.924 377.857 448.922 378.955 448.923 379.722C448.924 380.106 448.925 380.407 448.927 380.614C448.928 380.717 448.928 380.796 448.929 380.85C448.929 380.877 448.929 380.898 448.93 380.912C448.93 380.919 448.93 380.925 448.93 380.929C448.93 380.93 448.93 380.932 448.93 380.933C448.93 380.934 448.93 380.934 448.93 380.934C448.93 380.935 448.93 380.935 451.43 380.904ZM455.155 349.743L456.845 351.586C456.441 351.956 456.097 351.964 456.414 351.895C456.602 351.854 456.933 351.806 457.444 351.769C458.457 351.696 459.908 351.682 461.785 351.73C465.523 351.825 470.709 352.156 476.938 352.648C489.39 353.63 505.815 355.236 522.795 356.805C539.751 358.371 557.246 359.899 571.759 360.717C579.015 361.126 585.557 361.359 590.932 361.328C596.235 361.298 600.626 361.013 603.45 360.295L602.834 357.872L602.218 355.449C600.045 356.001 596.202 356.298 590.903 356.328C585.676 356.358 579.249 356.131 572.041 355.725C557.626 354.913 540.212 353.392 523.255 351.826C506.321 350.261 489.828 348.649 477.331 347.663C471.086 347.17 465.79 346.83 461.912 346.731C459.98 346.682 458.339 346.692 457.084 346.782C456.462 346.827 455.865 346.897 455.346 347.01C454.956 347.096 454.124 347.297 453.466 347.9L455.155 349.743ZM602.834 357.872L603.45 360.295C624.578 354.923 638.008 338.407 642.549 314.302L640.092 313.839L637.635 313.376C633.37 336.014 621.058 350.659 602.218 355.449L602.834 357.872ZM640.092 313.839L642.549 314.302C643.623 308.6 646.187 299.458 649.365 288.356C652.526 277.314 656.263 264.437 659.618 251.42C662.972 238.409 665.962 225.191 667.622 213.449C669.269 201.798 669.662 191.255 667.564 183.776L665.157 184.451L662.75 185.126C664.547 191.535 664.305 201.188 662.671 212.749C661.049 224.219 658.112 237.23 654.776 250.172C651.442 263.109 647.727 275.911 644.558 286.98C641.407 297.99 638.763 307.393 637.635 313.376L640.092 313.839ZM665.157 184.451L667.564 183.776C663.509 169.317 656.282 161.597 649.855 157.528C646.668 155.511 643.73 154.424 641.563 153.84C640.48 153.548 639.587 153.381 638.948 153.286C638.628 153.238 638.372 153.209 638.187 153.191C638.094 153.182 638.019 153.175 637.963 153.171C637.934 153.169 637.911 153.168 637.892 153.166C637.883 153.166 637.875 153.165 637.868 153.165C637.864 153.165 637.861 153.165 637.858 153.164C637.857 153.164 637.855 153.164 637.854 153.164C637.852 153.164 637.85 153.164 637.721 155.661C637.592 158.157 637.591 158.157 637.589 158.157C637.589 158.157 637.587 158.157 637.586 158.157C637.585 158.157 637.583 158.157 637.582 158.157C637.58 158.157 637.579 158.157 637.579 158.157C637.579 158.157 637.584 158.157 637.593 158.158C637.612 158.159 637.648 158.162 637.701 158.167C637.807 158.177 637.981 158.197 638.213 158.231C638.679 158.301 639.382 158.43 640.262 158.667C642.022 159.142 644.482 160.045 647.18 161.753C652.524 165.136 659.015 171.811 662.75 185.126L665.157 184.451ZM280.38 167.96L278.38 166.46C268.092 180.181 264.609 191.667 262.64 198.678L265.047 199.355L267.453 200.031C269.347 193.29 272.622 182.475 282.38 169.46L280.38 167.96ZM265.047 199.355L262.64 198.678C261.943 201.16 261.504 202.805 261.048 203.889C260.944 204.136 260.855 204.312 260.784 204.433C260.712 204.556 260.676 204.591 260.688 204.579C260.76 204.503 261.032 204.306 261.412 204.306V206.806V209.306C262.621 209.306 263.596 208.771 264.297 208.039C264.926 207.383 265.346 206.566 265.656 205.829C266.269 204.373 266.818 202.292 267.453 200.031L265.047 199.355ZM263.783 199.016L263.136 201.431L264.399 201.769L265.047 199.355L265.694 196.94L264.431 196.601L263.783 199.016ZM375.219 151.596L372.745 151.95C372.979 153.588 372.829 155.817 372.309 158.53C371.796 161.21 370.954 164.208 369.92 167.321C367.851 173.548 365.074 180.058 362.829 185.133L365.115 186.145L367.401 187.156C369.658 182.055 372.516 175.363 374.665 168.897C375.739 165.663 376.651 162.441 377.22 159.47C377.783 156.532 378.042 153.677 377.694 151.243L375.219 151.596ZM365.115 186.145L362.829 185.133C361.872 187.294 360.569 189.302 359.538 191.107C359.109 191.858 358.554 192.862 358.356 193.754C358.271 194.136 358.062 195.28 358.844 196.316C359.717 197.471 361.01 197.486 361.537 197.443L361.332 194.951L361.128 192.46C361.157 192.457 362.132 192.372 362.835 193.304C363.153 193.725 363.24 194.149 363.26 194.403C363.279 194.644 363.244 194.806 363.237 194.838C363.225 194.89 363.238 194.812 363.369 194.539C363.488 194.291 363.657 193.978 363.88 193.586C364.725 192.106 366.307 189.629 367.401 187.156L365.115 186.145ZM368.107 184.451L366.875 182.276L363.883 183.969L365.115 186.145L366.346 188.32L369.338 186.627L368.107 184.451ZM235.332 271.161L234.335 268.869C232.734 269.564 231.28 271.105 230.027 272.74C228.702 274.469 227.322 276.687 225.947 279.195C223.193 284.22 220.341 290.631 217.877 297.165C215.414 303.697 213.308 310.434 212.074 316.119C211.457 318.957 211.044 321.594 210.927 323.846C210.814 326 210.947 328.173 211.739 329.824L213.993 328.742L216.247 327.66C216.023 327.194 215.816 326.086 215.92 324.106C216.018 322.223 216.375 319.872 216.96 317.18C218.128 311.803 220.15 305.309 222.556 298.929C224.961 292.549 227.719 286.364 230.331 281.598C231.64 279.211 232.882 277.234 233.996 275.781C235.181 274.234 235.981 273.605 236.328 273.454L235.332 271.161ZM269.203 287.419L271.636 286.847C271.228 285.112 269.846 283.475 268.448 282.131C266.942 280.684 264.977 279.171 262.786 277.711C258.405 274.792 252.88 271.927 247.759 270.109L246.923 272.465L246.087 274.821C250.779 276.487 255.937 279.156 260.014 281.872C262.052 283.23 263.76 284.56 264.984 285.736C266.316 287.017 266.72 287.784 266.769 287.992L269.203 287.419ZM246.923 272.465L247.759 270.109C245.291 269.233 242.844 268.574 240.62 268.29C238.451 268.014 236.206 268.055 234.335 268.869L235.332 271.161L236.328 273.454C236.991 273.166 238.177 273.019 239.987 273.25C241.742 273.474 243.824 274.018 246.087 274.821L246.923 272.465ZM247.525 271.161L245.255 270.113L244.653 271.417L246.923 272.465L249.193 273.513L249.795 272.21L247.525 271.161ZM213.993 328.742L211.739 329.824C213.218 332.906 216.28 334.407 219.37 335.119C222.501 335.839 226.183 335.881 229.752 335.625L229.573 333.132L229.395 330.638C226.029 330.879 222.918 330.805 220.492 330.246C218.024 329.678 216.763 328.736 216.247 327.66L213.993 328.742ZM229.573 333.132L229.752 335.625C237.173 335.094 244.862 333.212 247.759 332.531L247.187 330.097L246.614 327.664C243.649 328.361 236.35 330.14 229.395 330.638L229.573 333.132ZM229.912 335.517L232.387 335.165L232.048 332.78L229.573 333.132L227.098 333.483L227.437 335.868L229.912 335.517ZM632.302 162.435L630.254 161.001C628.629 163.323 621.627 169.065 599.939 167.73L599.786 170.225L599.632 172.721C621.976 174.096 631.233 168.321 634.35 163.869L632.302 162.435ZM599.786 170.225L599.939 167.73C578.539 166.413 572.631 157.643 571.691 154.587L569.301 155.322L566.912 156.057C568.681 161.807 577 171.328 599.632 172.721L599.786 170.225ZM569.301 155.322L571.691 154.587C571.437 153.76 571.187 151.587 571.146 148.515L568.646 148.548L566.146 148.581C566.187 151.649 566.425 154.473 566.912 156.057L569.301 155.322ZM568.646 148.548L571.146 148.515C571.093 144.562 571.391 139.655 572.191 135.459C572.593 133.358 573.104 131.521 573.716 130.099C574.354 128.618 574.973 127.892 575.402 127.614L574.043 125.515L572.685 123.416C571.023 124.492 569.908 126.303 569.124 128.121C568.316 129.998 567.719 132.222 567.28 134.522C566.401 139.128 566.091 144.384 566.146 148.581L568.646 148.548ZM566.592 148.548V151.048H568.646V148.548V146.048H566.592V148.548ZM635.689 134.322L633.508 135.543C634.753 137.767 635.178 140.906 634.948 144.499C634.721 148.042 633.877 151.735 632.886 154.824L635.267 155.587L637.648 156.35C638.725 152.988 639.678 148.88 639.938 144.819C640.195 140.809 639.797 136.54 637.87 133.1L635.689 134.322ZM635.267 155.587L632.886 154.824C631.884 157.951 630.819 160.194 630.254 161.001L632.302 162.435L634.35 163.869C635.355 162.433 636.603 159.611 637.648 156.35L635.267 155.587ZM637.721 155.661L637.796 153.162L635.342 153.089L635.267 155.587L635.192 158.086L637.647 158.16L637.721 155.661ZM574.043 125.515L575.402 127.614C575.401 127.615 575.529 127.539 575.877 127.432C576.207 127.331 576.649 127.229 577.214 127.133C578.344 126.941 579.827 126.798 581.612 126.715L581.495 124.217L581.378 121.72C579.482 121.809 577.78 121.965 576.376 122.204C575.07 122.425 573.686 122.769 572.685 123.416L574.043 125.515ZM581.495 124.217L583.699 123.036L571.505 100.286L569.301 101.467L567.098 102.648L579.292 125.398L581.495 124.217ZM569.301 101.467C571.646 100.598 571.646 100.598 571.646 100.598C571.646 100.598 571.646 100.598 571.645 100.597C571.645 100.597 571.645 100.596 571.644 100.594C571.643 100.592 571.642 100.587 571.639 100.58C571.634 100.567 571.627 100.547 571.617 100.52C571.597 100.466 571.568 100.385 571.529 100.277C571.451 100.061 571.336 99.7417 571.192 99.3308C570.904 98.5089 570.497 97.3233 570.028 95.8782C569.087 92.9834 567.901 89.0681 566.904 84.9583C565.903 80.8281 565.118 76.5989 564.939 73.0478C564.85 71.2723 564.917 69.7526 565.145 68.542C565.378 67.309 565.741 66.5956 566.079 66.2196L564.221 64.5471L562.363 62.8747C561.177 64.1922 560.555 65.9027 560.232 67.615C559.905 69.3496 559.845 71.2964 559.946 73.2996C560.148 77.306 561.014 81.8834 562.045 86.1363C563.081 90.4096 564.308 94.4541 565.273 97.4232C565.756 98.9101 566.175 100.133 566.474 100.986C566.624 101.412 566.743 101.747 566.826 101.976C566.868 102.091 566.9 102.179 566.922 102.24C566.933 102.27 566.942 102.293 566.948 102.309C566.951 102.317 566.953 102.324 566.955 102.328C566.955 102.33 566.956 102.332 566.956 102.333C566.957 102.334 566.957 102.335 566.957 102.335C566.957 102.336 566.957 102.336 569.301 101.467ZM564.221 64.5471L566.079 66.2196C566.213 66.0709 566.191 66.1576 565.992 66.2057C565.78 66.2567 565.652 66.1963 565.699 66.2162C565.934 66.3154 566.517 66.7477 567.423 67.922C569.17 70.1849 571.096 73.7954 573.247 77.7288C575.307 81.4954 577.587 85.58 579.914 88.2447C581.061 89.5585 582.473 90.8334 584.151 91.3797C585.04 91.669 586.014 91.7568 587.016 91.523C588.009 91.2913 588.876 90.7794 589.616 90.1032L587.931 88.257L586.245 86.4108C586.012 86.6237 585.889 86.6517 585.879 86.6539C585.878 86.6541 585.837 86.6702 585.699 86.6254C585.325 86.5035 584.645 86.0611 583.68 84.9563C581.783 82.7837 579.765 79.2261 577.634 75.3294C575.594 71.5994 573.434 67.5254 571.381 64.8664C570.388 63.5798 569.142 62.2418 567.642 61.6093C566.822 61.2633 565.85 61.0967 564.821 61.3448C563.804 61.5897 562.991 62.1766 562.363 62.8747L564.221 64.5471ZM587.931 88.257L589.616 90.1032C591.095 88.7534 592.055 86.6395 592.754 84.4506C593.48 82.1767 594.042 79.4236 594.503 76.4278C595.425 70.438 595.993 63.1251 596.562 56.0685C597.136 48.9444 597.71 42.0941 598.633 36.8173C599.096 34.1722 599.626 32.0545 600.23 30.5479C600.531 29.7979 600.819 29.2813 601.068 28.9488C601.319 28.6149 601.453 28.5685 601.424 28.5804L600.463 26.2727L599.501 23.965C597.489 24.8037 596.329 26.8431 595.59 28.6858C594.793 30.6707 594.193 33.1865 593.708 35.9555C592.737 41.507 592.147 48.6073 591.578 55.6668C591.003 62.7938 590.449 69.8973 589.561 75.6672C589.117 78.5512 588.603 81.0137 587.991 82.9301C587.352 84.9314 586.714 85.9823 586.245 86.4108L587.931 88.257ZM600.463 26.2727L601.424 28.5804C601.436 28.5756 601.389 28.5967 601.295 28.6002C601.197 28.6039 601.101 28.5864 601.027 28.5589C600.895 28.5103 600.961 28.484 601.177 28.7579C601.643 29.3478 602.206 30.5518 602.774 32.4945C603.884 36.292 604.712 41.7872 605.434 47.6219C606.141 53.3427 606.75 59.4311 607.42 64.0245C607.756 66.327 608.127 68.398 608.57 69.9606C608.788 70.7311 609.058 71.5036 609.414 72.1511C609.701 72.6728 610.383 73.7534 611.712 74.0855L612.318 71.6601L612.924 69.2347C613.744 69.4398 613.953 70.0282 613.794 69.7403C613.705 69.5783 613.558 69.2239 613.38 68.5978C613.032 67.3674 612.698 65.567 612.368 63.3021C611.705 58.7609 611.128 52.9309 610.396 47.0084C609.678 41.2 608.812 35.3271 607.573 31.0908C606.966 29.0166 606.189 27.0372 605.102 25.6596C604.541 24.9499 603.777 24.2438 602.755 23.8672C601.664 23.465 600.535 23.5342 599.501 23.965L600.463 26.2727ZM612.318 71.6601L611.712 74.0855C613.445 74.5188 614.602 73.3665 615.035 72.8139C615.519 72.1961 615.868 71.4196 616.136 70.711C616.692 69.2416 617.207 67.1963 617.708 64.8944C618.696 60.3634 619.824 53.8712 621.075 47.8214C622.364 41.5867 623.841 35.5 625.641 31.0077C626.545 28.7519 627.467 27.0629 628.374 25.978C629.282 24.8912 629.911 24.7081 630.27 24.7081V22.2081V19.7081C627.834 19.7081 625.933 21.1023 624.538 22.7714C623.141 24.4425 621.986 26.6884 621 29.1481C619.021 34.0868 617.472 40.5537 616.178 46.8089C614.846 53.2492 613.836 59.1834 612.823 63.8294C612.325 66.1161 611.874 67.8469 611.459 68.9429C611.36 69.2065 611.273 69.405 611.2 69.5483C611.125 69.6982 611.087 69.7449 611.099 69.7305C611.1 69.7287 611.232 69.5527 611.53 69.3959C611.884 69.2093 612.386 69.1003 612.924 69.2347L612.318 71.6601ZM630.27 22.2081V24.7081C630.471 24.7081 630.542 24.7531 630.589 24.7873C630.665 24.8431 630.837 25.0056 631.037 25.4252C631.462 26.3213 631.767 27.8613 631.841 30.1117C631.985 34.5481 631.212 40.6387 630.133 47.0259C629.049 53.4487 627.739 59.7316 626.809 64.9211C626.355 67.4519 625.995 69.7127 625.839 71.4521C625.762 72.3132 625.726 73.1423 625.778 73.8542C625.804 74.2101 625.857 74.6146 625.973 75.0153C626.081 75.3864 626.303 75.9709 626.808 76.4763L628.576 74.7085L630.344 72.9407C630.68 73.2768 630.769 73.6 630.775 73.6237C630.791 73.677 630.776 73.6482 630.765 73.4905C630.742 73.1754 630.751 72.6569 630.819 71.8972C630.954 70.395 631.279 68.3214 631.73 65.8033C632.61 60.8949 633.989 54.2221 635.063 47.8585C636.144 41.4593 637.001 34.9328 636.838 29.9489C636.758 27.4891 636.426 25.118 635.553 23.2806C635.104 22.3334 634.461 21.4235 633.537 20.7487C632.583 20.0522 631.465 19.7081 630.27 19.7081V22.2081ZM628.576 74.7085L626.808 76.4763C627.305 76.973 627.954 77.2796 628.663 77.3399C629.311 77.395 629.859 77.2331 630.236 77.0736C630.949 76.7714 631.555 76.2575 632.003 75.8289C632.948 74.9236 634.029 73.5632 635.15 72.0435C637.38 69.0204 640.317 64.5949 643.232 60.4904C646.232 56.2643 649.319 52.2113 652.143 49.4373C653.561 48.0447 654.795 47.0934 655.811 46.5809C656.83 46.0668 657.303 46.1489 657.485 46.2191L658.383 43.8857L659.28 41.5524C657.261 40.7757 655.236 41.2707 653.559 42.1167C651.878 42.9644 650.217 44.3205 648.639 45.8704C645.472 48.9816 642.166 53.3541 639.155 57.5958C636.057 61.959 633.363 66.0437 631.126 69.0751C630.014 70.5826 629.152 71.6355 628.545 72.2173C628.216 72.5324 628.142 72.5306 628.285 72.4698C628.377 72.431 628.667 72.3222 629.087 72.3579C629.567 72.3987 630.016 72.6134 630.344 72.9407L628.576 74.7085ZM658.383 43.8857L657.485 46.2191C657.538 46.2393 657.57 46.2583 657.624 46.3375C657.698 46.4463 657.82 46.6929 657.904 47.1721C658.079 48.168 658.017 49.6942 657.629 51.7672C656.863 55.8701 654.995 61.2668 652.678 66.997C650.375 72.6924 647.688 78.5711 645.35 83.6054C643.046 88.5697 641.017 92.8443 640.13 95.1499L642.463 96.0474L644.797 96.9448C645.603 94.8472 647.512 90.8233 649.886 85.711C652.227 80.6686 654.959 74.6924 657.313 68.8716C659.653 63.0855 661.681 57.3047 662.544 52.6858C662.972 50.3979 663.158 48.1771 662.828 46.3045C662.49 44.3829 661.503 42.4071 659.28 41.5524L658.383 43.8857ZM581.495 124.217L581.612 126.715C592.184 126.22 611.292 127.872 623.539 131.082L624.173 128.664L624.807 126.246C612.029 122.896 592.411 121.204 581.378 121.72L581.495 124.217ZM624.173 128.664L623.539 131.082C626.414 131.836 628.818 132.653 630.608 133.504C632.506 134.408 633.291 135.157 633.508 135.543L635.689 134.322L637.87 133.1C636.852 131.283 634.831 129.977 632.756 128.989C630.572 127.95 627.835 127.04 624.807 126.246L624.173 128.664ZM642.463 96.0474L640.13 95.1499C638.525 99.3223 634.071 107.288 629.893 114.391C627.828 117.901 625.867 121.14 624.422 123.501C623.7 124.682 623.107 125.642 622.695 126.307C622.489 126.639 622.328 126.898 622.219 127.073C622.165 127.16 622.123 127.227 622.095 127.271C622.081 127.294 622.071 127.31 622.064 127.322C622.06 127.327 622.058 127.331 622.056 127.334C622.055 127.335 622.055 127.336 622.054 127.337C622.054 127.337 622.054 127.337 622.054 127.338C622.054 127.338 622.054 127.338 624.173 128.664C626.292 129.991 626.292 129.99 626.292 129.99C626.292 129.99 626.293 129.99 626.293 129.989C626.293 129.988 626.294 129.987 626.295 129.986C626.297 129.983 626.3 129.978 626.303 129.972C626.311 129.96 626.322 129.943 626.336 129.92C626.365 129.874 626.407 129.806 626.463 129.717C626.574 129.538 626.737 129.277 626.945 128.941C627.361 128.269 627.959 127.3 628.687 126.111C630.142 123.733 632.119 120.468 634.203 116.926C638.323 109.922 643.014 101.579 644.797 96.9448L642.463 96.0474ZM247.187 330.097L247.759 332.531C248.918 332.258 249.921 331.497 250.686 330.799C251.513 330.043 252.368 329.07 253.222 327.973L251.251 326.436L249.279 324.899C248.517 325.877 247.855 326.613 247.313 327.108C246.708 327.661 246.488 327.693 246.614 327.664L247.187 330.097ZM251.251 326.436L253.222 327.973C257.098 323.003 261.958 314.228 265.687 306.193C267.561 302.154 269.186 298.224 270.278 294.97C270.822 293.346 271.251 291.841 271.507 290.548C271.743 289.352 271.906 287.994 271.636 286.847L269.203 287.419L266.769 287.992C266.762 287.962 266.789 288.069 266.77 288.385C266.753 288.682 266.701 289.078 266.602 289.579C266.403 290.583 266.045 291.865 265.537 293.379C264.524 296.4 262.979 300.149 261.151 304.088C257.477 312.006 252.806 320.376 249.279 324.899L251.251 326.436ZM251.251 326.436C249.871 328.521 249.871 328.521 249.872 328.521C249.872 328.521 249.872 328.522 249.873 328.522C249.874 328.522 249.875 328.523 249.877 328.525C249.881 328.527 249.887 328.532 249.896 328.537C249.912 328.548 249.937 328.564 249.97 328.586C250.035 328.63 250.134 328.695 250.262 328.781C250.519 328.952 250.897 329.204 251.38 329.528C252.347 330.176 253.733 331.11 255.41 332.254C258.764 334.543 263.276 337.665 267.91 341.006C272.55 344.352 277.285 347.897 281.1 351.033C283.008 352.602 284.659 354.047 285.941 355.297C287.269 356.59 288.047 357.529 288.371 358.096L290.541 356.856L292.712 355.615C292.02 354.404 290.808 353.058 289.431 351.716C288.009 350.33 286.241 348.787 284.275 347.171C280.342 343.936 275.509 340.321 270.834 336.951C266.154 333.576 261.604 330.427 258.227 328.124C256.538 326.971 255.141 326.029 254.165 325.375C253.677 325.048 253.294 324.792 253.033 324.619C252.902 324.532 252.802 324.465 252.734 324.42C252.701 324.398 252.675 324.381 252.657 324.369C252.649 324.363 252.642 324.359 252.637 324.356C252.635 324.354 252.634 324.353 252.632 324.352C252.632 324.352 252.631 324.352 252.631 324.352C252.631 324.351 252.63 324.351 251.251 326.436ZM290.541 356.856L288.371 358.096C290.34 361.542 293.326 367.242 296.99 372.26C300.583 377.178 305.295 382.122 311.018 383.349L311.542 380.904L312.065 378.46C308.305 377.654 304.549 374.13 301.028 369.311C297.58 364.59 294.807 359.282 292.712 355.615L290.541 356.856ZM311.542 380.904L311.018 383.349C312.279 383.619 313.738 383.548 314.955 382.592C316.103 381.691 316.539 380.381 316.703 379.313C317.026 377.223 316.549 374.492 315.848 371.805L313.429 372.436L311.01 373.067C311.7 375.711 311.914 377.565 311.762 378.551C311.689 379.021 311.596 378.873 311.867 378.66C312.207 378.393 312.439 378.54 312.065 378.46L311.542 380.904ZM313.429 372.436L315.848 371.805C314.473 366.533 311.815 359.961 309.55 354.792C308.409 352.189 307.352 349.908 306.58 348.276C306.194 347.46 305.878 346.806 305.659 346.354C305.549 346.128 305.464 345.953 305.405 345.834C305.376 345.774 305.353 345.728 305.338 345.697C305.33 345.681 305.324 345.669 305.32 345.661C305.318 345.657 305.316 345.654 305.315 345.651C305.315 345.65 305.314 345.649 305.314 345.649C305.314 345.648 305.314 345.648 305.314 345.648C305.313 345.648 305.313 345.648 303.074 346.759C300.834 347.87 300.834 347.87 300.834 347.87C300.834 347.87 300.834 347.87 300.834 347.87C300.835 347.871 300.835 347.871 300.835 347.872C300.836 347.873 300.837 347.876 300.839 347.879C300.842 347.886 300.847 347.896 300.854 347.911C300.868 347.939 300.889 347.981 300.917 348.038C300.973 348.151 301.055 348.32 301.162 348.539C301.374 348.976 301.682 349.615 302.06 350.414C302.817 352.013 303.853 354.25 304.97 356.799C307.221 361.935 309.741 368.202 311.01 373.067L313.429 372.436ZM330.171 380.904L331.798 382.802C333.673 381.195 334.251 378.498 334.39 376.059C334.538 373.453 334.223 370.344 333.602 367.09C332.356 360.57 329.792 353.024 326.634 346.903L324.413 348.049L322.191 349.195C325.124 354.881 327.533 361.969 328.69 368.028C329.27 371.063 329.514 373.729 329.398 375.775C329.272 377.988 328.762 378.819 328.544 379.006L330.171 380.904ZM324.413 348.049L326.634 346.903C324.409 342.589 321.564 338.56 319.302 335.635C318.167 334.166 317.166 332.96 316.448 332.118C316.088 331.697 315.798 331.367 315.596 331.139C315.495 331.026 315.416 330.938 315.361 330.877C315.334 330.846 315.312 330.823 315.297 330.806C315.29 330.798 315.284 330.792 315.279 330.787C315.277 330.784 315.275 330.782 315.274 330.781C315.273 330.78 315.273 330.78 315.272 330.779C315.272 330.779 315.272 330.779 315.272 330.778C315.271 330.778 315.271 330.778 313.429 332.468C311.588 334.159 311.587 334.159 311.587 334.159C311.587 334.158 311.587 334.158 311.587 334.158C311.587 334.158 311.587 334.158 311.587 334.158C311.587 334.159 311.588 334.159 311.589 334.161C311.591 334.163 311.595 334.167 311.6 334.173C311.611 334.185 311.628 334.203 311.651 334.228C311.696 334.279 311.766 334.357 311.857 334.459C312.04 334.665 312.309 334.971 312.646 335.366C313.321 336.157 314.269 337.299 315.347 338.693C317.513 341.495 320.159 345.256 322.191 349.195L324.413 348.049ZM324.413 348.049L326.904 348.262C326.892 348.398 326.842 348.741 326.588 349.12C326.304 349.546 325.884 349.835 325.445 349.967C324.771 350.17 324.34 349.922 324.579 350.017C324.895 350.141 325.578 350.549 326.715 351.377C328.998 353.041 331.756 355.35 335.236 357.979C338.535 360.473 342.24 363.053 345.714 364.644C348.984 366.142 353.07 367.233 356.309 365.015L354.897 362.952L353.484 360.89C352.658 361.455 350.946 361.541 347.796 360.098C344.849 358.749 341.509 356.453 338.25 353.99C335.171 351.664 331.855 348.936 329.659 347.336C328.556 346.532 327.398 345.752 326.409 345.364C325.996 345.201 325.048 344.866 324.007 345.179C323.385 345.365 322.82 345.759 322.43 346.343C322.072 346.88 321.956 347.433 321.922 347.836L324.413 348.049ZM269.203 287.419C269.977 289.797 269.977 289.797 269.976 289.797C269.977 289.797 269.976 289.797 269.977 289.797C269.977 289.797 269.977 289.797 269.978 289.796C269.979 289.796 269.981 289.795 269.984 289.794C269.989 289.793 269.999 289.79 270.011 289.786C270.036 289.777 270.075 289.765 270.126 289.749C270.229 289.716 270.383 289.667 270.583 289.605C270.982 289.481 271.564 289.304 272.284 289.095C273.726 288.674 275.715 288.126 277.906 287.609C280.102 287.091 282.468 286.613 284.672 286.326C286.915 286.034 288.823 285.964 290.171 286.166L290.541 283.694L290.912 281.221C288.873 280.916 286.42 281.057 284.027 281.368C281.595 281.685 279.05 282.202 276.758 282.742C274.461 283.284 272.385 283.857 270.885 284.294C270.134 284.513 269.525 284.699 269.101 284.83C268.889 284.896 268.724 284.948 268.61 284.984C268.553 285.002 268.509 285.016 268.478 285.026C268.463 285.031 268.452 285.035 268.443 285.038C268.439 285.039 268.436 285.04 268.433 285.041C268.432 285.041 268.431 285.042 268.43 285.042C268.43 285.042 268.43 285.042 268.43 285.042C268.429 285.042 268.429 285.042 269.203 287.419ZM354.897 362.952L356.309 365.015C357.767 364.017 358.353 362.501 358.34 360.978C358.327 359.599 357.839 358.188 357.217 356.893C355.959 354.271 353.682 351.176 351.006 347.97C345.622 341.518 338.032 333.931 331.965 327.679L330.171 329.42L328.377 331.161C334.549 337.522 341.94 344.909 347.167 351.173C349.798 354.326 351.735 357.025 352.71 359.056C353.204 360.087 353.337 360.717 353.34 361.022C353.341 361.182 353.336 360.991 353.484 360.89L354.897 362.952ZM330.171 329.42L331.965 327.679C328.526 324.134 325.175 321.042 322.686 318.837C321.441 317.733 320.408 316.849 319.685 316.239C319.323 315.934 319.038 315.698 318.843 315.536C318.745 315.456 318.669 315.394 318.617 315.351C318.592 315.33 318.572 315.314 318.558 315.303C318.551 315.297 318.545 315.293 318.542 315.289C318.54 315.288 318.538 315.287 318.537 315.286C318.536 315.285 318.536 315.285 318.536 315.285C318.535 315.284 318.535 315.284 318.535 315.284C318.535 315.284 318.535 315.284 316.961 317.226C315.387 319.169 315.387 319.169 315.387 319.169C315.387 319.169 315.387 319.169 315.387 319.169C315.387 319.169 315.387 319.169 315.387 319.169C315.388 319.169 315.389 319.17 315.39 319.171C315.392 319.173 315.396 319.176 315.402 319.181C315.413 319.189 315.43 319.203 315.453 319.222C315.498 319.26 315.568 319.317 315.659 319.392C315.843 319.543 316.114 319.769 316.462 320.062C317.158 320.649 318.159 321.506 319.37 322.579C321.795 324.727 325.049 327.732 328.377 331.161L330.171 329.42ZM349.139 317.226L347.982 319.443C349.816 320.4 350.483 321.094 350.667 321.393C350.728 321.492 350.67 321.44 350.676 321.279C350.681 321.125 350.739 321.071 350.688 321.145C350.528 321.377 350.015 321.843 348.861 322.423C347.774 322.97 346.372 323.493 344.771 323.979C341.575 324.951 337.863 325.692 334.908 326.193C333.439 326.442 332.175 326.629 331.281 326.753C330.834 326.815 330.48 326.862 330.239 326.892C330.119 326.908 330.027 326.919 329.966 326.927C329.935 326.93 329.913 326.933 329.898 326.935C329.891 326.936 329.885 326.936 329.882 326.937C329.881 326.937 329.879 326.937 329.879 326.937C329.879 326.937 329.879 326.937 329.878 326.937C329.878 326.937 329.879 326.937 330.171 329.42C330.463 331.903 330.463 331.903 330.464 331.903C330.464 331.903 330.465 331.903 330.466 331.902C330.467 331.902 330.469 331.902 330.472 331.902C330.477 331.901 330.484 331.9 330.493 331.899C330.512 331.897 330.539 331.894 330.573 331.89C330.642 331.881 330.742 331.869 330.871 331.852C331.129 331.819 331.502 331.771 331.969 331.706C332.903 331.576 334.217 331.382 335.744 331.123C338.779 330.608 342.731 329.825 346.224 328.764C347.968 328.234 349.667 327.614 351.107 326.891C352.481 326.2 353.92 325.269 354.808 323.977C355.281 323.289 355.637 322.441 355.672 321.461C355.708 320.475 355.413 319.566 354.927 318.775C354.018 317.297 352.356 316.085 350.295 315.01L349.139 317.226ZM70.0399 362.952V365.452C76.3275 365.452 95.2224 364.365 117.305 362.733L117.121 360.239L116.937 357.746C94.8011 359.382 76.1054 360.452 70.0399 360.452V362.952ZM117.121 360.239L117.305 362.733C135.971 361.353 157.006 359.577 174.82 357.72C192.512 355.875 207.334 353.922 213.348 352.14L212.638 349.743L211.927 347.346C206.458 348.966 192.171 350.883 174.301 352.747C156.553 354.597 135.571 356.369 116.937 357.746L117.121 360.239ZM117.121 360.239L114.661 359.792C109.906 385.95 109.654 398.86 114.712 417.136L117.121 416.469L119.53 415.802C114.752 398.535 114.895 386.46 119.581 360.686L117.121 360.239ZM455.155 416.469L457.642 416.208L453.916 380.644L451.43 380.904L448.943 381.165L452.669 416.729L455.155 416.469ZM320.348 168.532L320.872 170.976C324.456 170.208 327.806 169.308 330.931 168.311L330.171 165.929L329.411 163.547C326.442 164.495 323.25 165.353 319.824 166.087L320.348 168.532ZM330.171 165.929L330.931 168.311C344.173 164.085 353.348 158.131 359.239 153.185C362.183 150.715 364.303 148.499 365.7 146.881C366.399 146.072 366.917 145.412 367.267 144.944C367.442 144.71 367.575 144.525 367.668 144.392C367.715 144.325 367.751 144.272 367.777 144.233C367.791 144.214 367.801 144.198 367.81 144.185C367.814 144.179 367.817 144.174 367.82 144.169C367.822 144.167 367.823 144.165 367.824 144.163C367.825 144.163 367.826 144.161 367.826 144.161C367.827 144.16 367.827 144.159 365.735 142.79C363.644 141.42 363.644 141.42 363.645 141.419C363.645 141.418 363.646 141.418 363.646 141.417C363.646 141.416 363.647 141.416 363.647 141.415C363.648 141.415 363.648 141.415 363.647 141.416C363.646 141.417 363.642 141.423 363.636 141.432C363.624 141.45 363.602 141.481 363.571 141.526C363.508 141.616 363.407 141.758 363.265 141.948C362.981 142.327 362.535 142.896 361.916 143.613C360.678 145.047 358.746 147.071 356.025 149.356C350.586 153.921 341.978 159.537 329.411 163.547L330.171 165.929ZM330.171 165.929L327.674 165.808C327.258 174.383 325.958 184.33 323.807 192.501C322.73 196.592 321.465 200.143 320.044 202.827C318.58 205.594 317.157 207.048 315.972 207.559L316.961 209.855L317.95 212.151C320.733 210.952 322.839 208.236 324.464 205.166C326.132 202.014 327.514 198.06 328.643 193.773C330.902 185.188 332.24 174.882 332.668 166.05L330.171 165.929ZM290.541 283.694L290.171 286.166C290.628 286.235 291.66 286.586 293.364 287.385C294.986 288.145 296.996 289.203 299.311 290.494C303.937 293.074 309.647 296.511 315.657 300.185L316.961 298.051L318.265 295.918C312.254 292.245 306.468 288.761 301.746 286.127C299.387 284.811 297.261 283.689 295.486 282.857C293.794 282.064 292.169 281.41 290.912 281.221L290.541 283.694ZM316.961 298.051L315.657 300.185C327.326 307.316 340.185 315.375 347.982 319.443L349.139 317.226L350.295 315.01C342.696 311.045 330.074 303.135 318.265 295.918L316.961 298.051ZM316.961 209.855L315.972 207.559C313.852 208.472 312.889 210.665 312.383 212.571C311.837 214.625 311.59 217.236 311.513 220.169C311.358 226.058 311.884 233.878 312.556 242.512C313.909 259.93 315.866 280.875 314.469 297.846L316.961 298.051L319.453 298.256C320.89 280.784 318.879 259.34 317.54 242.125C316.866 233.443 316.365 225.885 316.511 220.3C316.585 217.495 316.82 215.343 317.215 213.855C317.65 212.22 318.086 212.092 317.95 212.151L316.961 209.855ZM117.121 416.469V418.969H320.348V416.469V413.969H117.121V416.469ZM320.348 416.469V418.969H455.155V416.469V413.969H320.348V416.469ZM313.429 372.436C311.344 373.815 311.344 373.815 311.344 373.816C311.344 373.816 311.345 373.816 311.345 373.817C311.345 373.817 311.346 373.818 311.346 373.819C311.347 373.82 311.349 373.822 311.35 373.825C311.353 373.829 311.357 373.835 311.362 373.843C311.372 373.857 311.385 373.877 311.402 373.902C311.436 373.952 311.484 374.023 311.546 374.112C311.669 374.289 311.847 374.541 312.074 374.849C312.526 375.464 313.176 376.311 313.978 377.251C315.552 379.096 317.834 381.446 320.447 383.039L321.748 380.904L323.049 378.77C321.104 377.584 319.227 375.7 317.781 374.006C317.073 373.176 316.499 372.427 316.103 371.888C315.905 371.62 315.754 371.405 315.654 371.261C315.604 371.189 315.567 371.134 315.543 371.1C315.531 371.082 315.523 371.07 315.518 371.063C315.516 371.06 315.515 371.057 315.514 371.056C315.514 371.056 315.514 371.056 315.514 371.056C315.514 371.056 315.514 371.056 315.514 371.057C315.514 371.057 315.514 371.057 315.514 371.057C315.515 371.057 315.515 371.058 313.429 372.436ZM321.748 380.904L320.447 383.039C322.018 383.997 323.861 384.776 325.849 384.883C327.92 384.995 329.974 384.366 331.798 382.802L330.171 380.904L328.544 379.006C327.701 379.729 326.91 379.933 326.12 379.89C325.247 379.843 324.213 379.479 323.049 378.77L321.748 380.904ZM320.348 416.469L322.846 416.567L324.246 381.003L321.748 380.904L319.25 380.806L317.85 416.371L320.348 416.469Z" fill="#5E3AE2"/>
<path fill-rule="evenodd" clip-rule="evenodd" d="M233.641 134.32C223.818 122.465 233.641 110.948 247.528 97.3998C261.415 83.8512 282.076 82.4966 288.173 92.3193C306.125 116.029 243.463 146.175 233.641 134.32ZM247.523 120.361C244.333 114.071 246.048 106.601 249.56 100.787C251.592 98.0771 256.802 94.5301 259.203 94.4743C266.171 94.3122 272.49 98.144 275.872 104.184C276.862 105.951 276.69 109.39 276.242 111.287C275.667 113.72 274.762 116.459 273.286 118.493C271.529 120.912 269.23 123.034 266.727 124.682C264.161 126.372 261.893 126.437 258.916 126.437C254.238 126.437 249.704 124.663 247.523 120.361Z" fill="white"/>
<path fill-rule="evenodd" clip-rule="evenodd" d="M316.625 71.6576C309.512 62.2376 317.853 48.5105 338.303 38.8026C360.846 32.5319 369.464 31.6896 376.916 44.8996C385.384 71.6576 329.157 88.2547 316.625 71.6576ZM330.827 61.3519C329.084 54.6966 330.955 49.0198 334.81 43.2971C343.383 36.0928 350.545 40.4669 352.731 41.9628C356.309 44.4111 361.058 47.7661 362.041 52.3502C363.162 57.584 361.078 63.8476 357.565 67.7362C355.912 69.5666 353.1 72.0419 350.565 72.2833C347.527 72.5726 343.713 72.3207 340.773 71.5443C335.894 70.2555 332.118 66.2796 330.827 61.3519Z" fill="white"/>
<path d="M249.56 100.787C246.048 106.601 244.333 114.071 247.523 120.361C249.704 124.663 254.238 126.437 258.916 126.437C261.893 126.437 264.161 126.372 266.727 124.682C269.23 123.034 271.529 120.912 273.286 118.493C274.762 116.459 275.667 113.72 276.242 111.287C276.69 109.39 276.862 105.951 275.872 104.184C272.49 98.144 266.171 94.3122 259.203 94.4743C256.802 94.5301 251.592 98.0771 249.56 100.787Z" fill="#5E3AE1"/>
<path d="M334.81 43.2971C330.955 49.0198 329.084 54.6966 330.827 61.3519C332.118 66.2796 335.894 70.2555 340.773 71.5443C343.713 72.3207 347.527 72.5726 350.565 72.2833C353.1 72.0419 355.912 69.5666 357.565 67.7362C361.078 63.8476 363.162 57.584 362.041 52.3502C361.058 47.7661 356.309 44.4111 352.731 41.9628C350.545 40.4669 343.383 36.0928 334.81 43.2971Z" fill="#5E3AE1"/>
<path fill-rule="evenodd" clip-rule="evenodd" d="M233.641 134.32C223.818 122.465 233.641 110.948 247.528 97.3998C261.415 83.8512 282.076 82.4966 288.173 92.3193C306.125 116.029 243.463 146.175 233.641 134.32ZM247.523 120.361C244.333 114.071 246.048 106.601 249.56 100.787C251.592 98.0771 256.802 94.5301 259.203 94.4743C266.171 94.3122 272.49 98.144 275.872 104.184C276.862 105.951 276.69 109.39 276.242 111.287C275.667 113.72 274.762 116.459 273.286 118.493C271.529 120.912 269.23 123.034 266.727 124.682C264.161 126.372 261.893 126.437 258.916 126.437C254.238 126.437 249.704 124.663 247.523 120.361Z" stroke="#5E3AE1" stroke-width="5" stroke-linecap="round"/>
<path fill-rule="evenodd" clip-rule="evenodd" d="M316.625 71.6576C309.512 62.2376 317.853 48.5105 338.303 38.8026C360.846 32.5319 369.464 31.6896 376.916 44.8996C385.384 71.6576 329.157 88.2547 316.625 71.6576ZM330.827 61.3519C329.084 54.6966 330.955 49.0198 334.81 43.2971C343.383 36.0928 350.545 40.4669 352.731 41.9628C356.309 44.4111 361.058 47.7661 362.041 52.3502C363.162 57.584 361.078 63.8476 357.565 67.7362C355.912 69.5666 353.1 72.0419 350.565 72.2833C347.527 72.5726 343.713 72.3207 340.773 71.5443C335.894 70.2555 332.118 66.2796 330.827 61.3519Z" stroke="#5E3AE1" stroke-width="5" stroke-linecap="round"/>
<path d="M249.56 100.787C246.048 106.601 244.333 114.071 247.523 120.361C249.704 124.663 254.238 126.437 258.916 126.437C261.893 126.437 264.161 126.372 266.727 124.682C269.23 123.034 271.529 120.912 273.286 118.493C274.762 116.459 275.667 113.72 276.242 111.287C276.69 109.39 276.862 105.951 275.872 104.184C272.49 98.144 266.171 94.3122 259.203 94.4743C256.802 94.5301 251.592 98.0771 249.56 100.787Z" stroke="#5E3AE1" stroke-width="5" stroke-linecap="round"/>
<path d="M334.81 43.2971C330.955 49.0198 329.084 54.6966 330.827 61.3519C332.118 66.2796 335.894 70.2555 340.773 71.5443C343.713 72.3207 347.527 72.5726 350.565 72.2833C353.1 72.0419 355.912 69.5666 357.565 67.7362C361.078 63.8476 363.162 57.584 362.041 52.3502C361.058 47.7661 356.309 44.4111 352.731 41.9628C350.545 40.4669 343.383 36.0928 334.81 43.2971Z" stroke="#5E3AE1" stroke-width="5" stroke-linecap="round"/>
<path d="M313.852 78.1719C319.382 83.2413 325.277 87.7124 331.936 91.1448C335.08 92.7651 338.12 93.9868 341.637 94.3993C342.473 94.4974 347.442 94.4506 347.442 95.8598C347.442 98.1265 344.862 100.323 343.512 101.864C342.042 103.54 340.573 105.232 339.166 106.958C338.766 107.449 337.63 108.03 338.517 108.03" stroke="#5E3AE1" stroke-width="5" stroke-linecap="round"/>
<path d="M307.195 127.827C313.847 131.475 321.438 132.852 328.94 132.019C331.459 131.739 333.956 131.184 336.423 130.622C340.164 129.768 343.975 129.019 347.367 127.16C350.183 125.616 352.78 123.548 354.877 121.101C355.143 120.791 356.557 118.504 356.689 118.902" stroke="#5E3AE1" stroke-width="5" stroke-linecap="round"/>
<path d="M381.087 301.797C377.48 292.778 374.892 283.536 370.782 274.708C370.633 274.386 368.196 269.009 367.822 269.43C366.924 270.441 367.603 273.863 367.459 275.155C366.862 280.527 366.529 285.983 366.118 291.381C365.528 299.146 365.504 306.829 365.504 314.616C365.504 322.441 365.295 331.153 367.878 338.662C370.417 346.044 378.362 355.051 384.718 345.825C395.518 330.147 402.452 311.905 402.452 292.763C402.452 287.535 401.868 282.366 399.31 277.696C398.479 276.178 397.524 275.588 396.308 277.082C393.902 280.038 392.122 283.554 390.08 286.773C387.693 290.534 385.429 293.365 384.024 297.581C383.791 298.281 381.125 301.835 381.087 301.797Z" fill="#AFED3A" stroke="#6D48F1" stroke-width="5" stroke-linecap="round"/>
</svg>
