<svg width="18" height="23" viewBox="0 0 18 23" fill="none" xmlns="http://www.w3.org/2000/svg">
<path d="M7.87592 21.2183C7.16151 20.5141 6.48985 19.7298 5.87793 18.9416C5.90288 18.9132 6.30437 18.4245 6.73744 17.9043C7.24226 17.298 7.78998 16.649 7.83426 16.6365C7.88305 16.6227 8.02863 16.8044 8.07533 16.8389C8.20028 16.9313 8.29946 17.0863 8.41163 17.1969C8.70225 17.4834 8.94041 17.8314 9.19932 18.1455C9.34827 18.3262 9.52418 18.4858 9.65964 18.6775C9.80921 18.8893 9.95041 19.1069 10.1021 19.3171C10.2582 19.5334 10.4018 19.7588 10.5565 19.9763C10.7235 20.2111 10.9131 20.4059 11.0326 20.6726C11.2256 21.1029 11.5502 21.6892 11.3461 22.1689C11.2751 22.3359 11.2141 22.4727 11.0267 22.5367C10.8568 22.5946 10.6968 22.6234 10.5168 22.6208C9.99692 22.6132 9.46861 22.3492 9.01877 22.122C8.58194 21.9013 8.21979 21.5573 7.87592 21.2183Z" fill="#EF9169"/>
<path d="M6.73744 17.9043C6.91639 18.2501 7.2069 18.5621 7.44141 18.8771C7.60886 19.1019 7.78101 19.3306 7.96223 19.545C8.26753 19.9062 8.51354 20.2707 8.90171 20.5514C9.06754 20.6712 9.21508 20.8475 9.40964 20.9269C9.45884 20.947 9.68928 21.056 9.61003 21.0364M5.87793 18.9416C6.48985 19.7298 7.16151 20.5141 7.87592 21.2183C8.21979 21.5573 8.58194 21.9013 9.01877 22.122C9.46861 22.3492 9.99692 22.6132 10.5168 22.6208C10.6968 22.6234 10.8568 22.5946 11.0267 22.5367C11.2141 22.4727 11.2751 22.3359 11.3461 22.1689C11.5502 21.6892 11.2256 21.1029 11.0326 20.6726C10.9131 20.4059 10.7235 20.2111 10.5565 19.9763C10.4018 19.7588 10.2582 19.5334 10.1021 19.3171C9.95041 19.1069 9.80921 18.8893 9.65964 18.6775C9.52418 18.4858 9.34827 18.3262 9.19932 18.1455C8.94041 17.8314 8.70225 17.4834 8.41163 17.1969C8.29946 17.0863 8.20028 16.9313 8.07533 16.8389C8.02863 16.8044 7.88305 16.6227 7.83426 16.6365C7.75199 16.6597 5.93197 18.8801 5.87793 18.9416Z" stroke="#6D48F1" stroke-width="0.754583" stroke-linecap="round"/>
<path fill-rule="evenodd" clip-rule="evenodd" d="M4.58237 20.4069L4.56625 20.4149L4.56603 20.415L4.56625 20.4149C4.57164 20.4122 4.57701 20.4095 4.58237 20.4069Z" fill="#AFED3A"/>
<path fill-rule="evenodd" clip-rule="evenodd" d="M4.58237 20.4069L4.56625 20.4149L4.56603 20.415L4.56625 20.4149C4.57164 20.4122 4.57701 20.4095 4.58237 20.4069Z" fill="#6D48F2"/>
<path d="M1.87398 12.5434C1.53803 13.3759 1.13127 14.2423 0.966716 15.1291C0.908876 15.4408 0.837288 15.7581 0.764159 16.0788C0.759284 16.1002 0.754402 16.1216 0.749516 16.143C0.69629 16.3762 0.642679 16.6111 0.593361 16.8468C1.25198 16.8277 1.85204 17.0521 2.38503 17.4288C2.66209 17.6246 2.91674 17.8323 3.13659 18.0901C3.17393 18.1339 3.20992 18.1788 3.24581 18.2237C3.2482 18.2267 3.25059 18.2297 3.25297 18.2327L3.25302 18.2327C3.25623 18.2368 3.25948 18.2408 3.26268 18.2448C3.31086 18.3051 3.35922 18.3652 3.4108 18.4226C3.69768 18.7419 3.89367 19.0989 4.08271 19.4771C4.10604 19.5237 4.15488 19.6039 4.21293 19.6992C4.35995 19.9405 4.56603 20.2788 4.56603 20.415L4.56625 20.4149L4.58237 20.4069C5.00002 20.199 5.32611 20.0008 5.70715 19.7862C6.24069 19.4856 6.46713 19.3947 6.9587 19.0241L7.02066 18.9774L7.02072 18.9774L7.0208 18.9773C7.38271 18.7046 7.62776 18.5199 7.99994 18.2117C8.30683 17.9576 8.54865 17.7042 8.82578 17.4205C9.23436 17.0022 9.70399 16.5604 10.0508 16.0848C10.4636 15.5186 10.8703 15.0249 11.2587 14.4392C12.057 13.2357 12.7152 11.9227 13.3776 10.6399C13.5733 10.2609 13.8504 9.86661 13.9979 9.46651C14.0991 9.19215 14.2815 8.8363 14.469 8.61033C14.9468 8.0346 15.2737 7.26086 15.6109 6.59603C16.0898 5.65178 16.5462 4.69414 16.9795 3.72746C17.0641 3.53882 17.1292 3.34292 17.2121 3.15604C17.2514 3.06747 17.3559 2.96066 17.3769 2.86747C17.3823 2.84374 17.2469 2.87972 17.2238 2.88276C17.0946 2.89974 16.9656 2.93702 16.836 2.95729C16.5428 3.00318 16.1941 3.09276 15.9307 3.22676C15.5508 3.42006 15.1278 3.47045 14.7346 3.61853C13.7943 3.97267 12.8311 4.23405 11.9062 4.63524C11.4079 4.85139 10.898 5.03999 10.396 5.24679C10.1425 5.35124 9.74354 5.4227 9.6206 5.69972C9.56751 5.81934 9.60121 5.44854 9.60121 5.37866V4.81106C9.60121 4.25421 9.57539 3.69899 9.56632 3.14458C9.55467 2.43237 9.60121 1.72451 9.60121 1.0137C9.60121 0.900634 9.67302 0.465536 9.59346 0.377301C9.58632 0.369387 9.42763 0.499222 9.40929 0.507256C9.21158 0.593885 9.00368 0.824938 8.85485 0.971654C8.49501 1.32639 8.18604 1.79814 7.87586 2.19667C7.12756 3.15816 6.33054 4.08533 5.73953 5.15506C4.82202 6.81578 3.78684 8.4052 2.95765 10.1144C2.56708 10.9194 2.20842 11.7145 1.87398 12.5434Z" fill="#AFED3A"/>
<path fill-rule="evenodd" clip-rule="evenodd" d="M3.24581 18.2237C3.2482 18.2267 3.25059 18.2297 3.25297 18.2327L3.25302 18.2327C3.25063 18.2297 3.24821 18.2267 3.24581 18.2237Z" fill="#AFED3A"/>
<path d="M0.396769 19.0258C0.449277 19.5895 0.682839 20.096 1.021 20.5528C1.47396 20.9111 1.95182 20.9111 2.02612 20.9111C2.10406 20.9111 2.24419 20.9034 2.3902 20.8951L2.41948 20.8934C2.58077 20.8842 2.74462 20.8748 2.83594 20.8748C3.10825 20.8748 3.40313 20.7978 3.68432 20.7244C3.83695 20.6845 3.98554 20.6457 4.1243 20.6208C4.28462 20.5506 4.43021 20.4823 4.56603 20.415C4.56603 20.2788 4.35995 19.9405 4.21293 19.6992C4.15488 19.6039 4.10604 19.5237 4.08271 19.4771C3.89367 19.0989 3.69768 18.7419 3.4108 18.4226C3.35922 18.3652 3.31086 18.3051 3.26268 18.2448L3.25302 18.2327L3.25297 18.2327L3.24581 18.2237C3.20992 18.1788 3.17393 18.1339 3.13659 18.0901C2.91674 17.8323 2.66209 17.6246 2.38503 17.4288C1.85204 17.0521 1.25198 16.8277 0.593361 16.8468L0.590244 16.8618C0.439729 17.584 0.330422 18.3137 0.396769 19.0258Z" fill="#6D48F2"/>
<path d="M4.1243 20.6208C4.28462 20.5506 4.43021 20.4823 4.56603 20.415M4.1243 20.6208C3.98554 20.6457 3.83695 20.6845 3.68432 20.7244C3.40313 20.7978 3.10825 20.8748 2.83594 20.8748C2.74462 20.8748 2.58077 20.8842 2.41948 20.8934M4.1243 20.6208C4.28471 20.5505 4.43037 20.4822 4.56625 20.4149M0.593361 16.8468C1.25198 16.8277 1.85204 17.0521 2.38503 17.4288C2.66209 17.6246 2.91674 17.8323 3.13659 18.0901C3.17393 18.1339 3.20992 18.1788 3.24581 18.2237M0.593361 16.8468C0.59232 16.8518 0.591281 16.8568 0.590244 16.8618M0.593361 16.8468C0.642679 16.6111 0.69629 16.3762 0.749516 16.143M0.593361 16.8468L0.590244 16.8618M4.56603 20.415C4.56603 20.2788 4.35995 19.9405 4.21293 19.6992C4.15488 19.6039 4.10604 19.5237 4.08271 19.4771C3.89367 19.0989 3.69768 18.7419 3.4108 18.4226C3.35922 18.3652 3.31086 18.3051 3.26268 18.2448M4.56603 20.415L4.56625 20.4149M4.56603 20.415L4.56625 20.4149M3.25302 18.2327V18.2327ZM3.25302 18.2327L3.25297 18.2327M3.25302 18.2327C3.25063 18.2297 3.24821 18.2267 3.24581 18.2237M3.25302 18.2327C3.25623 18.2368 3.25948 18.2408 3.26268 18.2448M3.25302 18.2327L3.26268 18.2448M2.41948 20.8934C2.40971 20.894 2.39993 20.8945 2.3902 20.8951M2.41948 20.8934L2.3902 20.8951M2.3902 20.8951C2.24419 20.9034 2.10406 20.9111 2.02612 20.9111C1.95182 20.9111 1.47396 20.9111 1.021 20.5528C0.682839 20.096 0.449277 19.5895 0.396769 19.0258C0.330422 18.3137 0.439729 17.584 0.590244 16.8618M0.590244 16.8618C0.640416 16.621 0.695167 16.3811 0.749516 16.143M4.58237 20.4069V20.4069ZM4.58237 20.4069C5.00002 20.199 5.32611 20.0008 5.70715 19.7862C6.24069 19.4856 6.46713 19.3947 6.9587 19.0241L7.02066 18.9774L7.02072 18.9774L7.0208 18.9773C7.38271 18.7046 7.62776 18.5199 7.99994 18.2117C8.30683 17.9576 8.54865 17.7042 8.82578 17.4205C9.23436 17.0022 9.70399 16.5604 10.0508 16.0848C10.4636 15.5186 10.8703 15.0249 11.2587 14.4392C12.057 13.2357 12.7152 11.9227 13.3776 10.6399C13.5733 10.2609 13.8504 9.86661 13.9979 9.46651C14.0991 9.19215 14.2815 8.8363 14.469 8.61033C14.9468 8.0346 15.2737 7.26086 15.6109 6.59603C16.0898 5.65178 16.5462 4.69414 16.9795 3.72746C17.0641 3.53882 17.1292 3.34292 17.2121 3.15604C17.2514 3.06747 17.3559 2.96066 17.3769 2.86747C17.3823 2.84374 17.2469 2.87972 17.2238 2.88276C17.0946 2.89974 16.9656 2.93701 16.836 2.95729C16.5428 3.00318 16.1941 3.09276 15.9307 3.22676C15.5508 3.42006 15.1278 3.47045 14.7346 3.61853C13.7943 3.97267 12.8311 4.23405 11.9062 4.63524C11.4079 4.85139 10.898 5.03999 10.396 5.24679C10.1425 5.35124 9.74354 5.4227 9.6206 5.69972C9.56751 5.81934 9.60121 5.44854 9.60121 5.37866V4.81106C9.60121 4.25421 9.57539 3.69899 9.56632 3.14458C9.55467 2.43237 9.60121 1.72451 9.60121 1.0137C9.60121 0.900634 9.67302 0.465536 9.59346 0.377301C9.58632 0.369387 9.42763 0.499222 9.40929 0.507256C9.21158 0.593885 9.00368 0.824938 8.85486 0.971654C8.49501 1.32639 8.18604 1.79814 7.87586 2.19667C7.12756 3.15816 6.33054 4.08533 5.73953 5.15506C4.82202 6.81578 3.78684 8.4052 2.95765 10.1144C2.56708 10.9194 2.20842 11.7145 1.87398 12.5434C1.53803 13.3759 1.13127 14.2423 0.966716 15.1291C0.908876 15.4408 0.837288 15.7581 0.764159 16.0788C0.759284 16.1002 0.754402 16.1216 0.749516 16.143M4.58237 20.4069L4.56625 20.4149M4.58237 20.4069C4.57701 20.4095 4.57164 20.4122 4.56625 20.4149M3.24581 18.2237C3.2482 18.2267 3.25059 18.2297 3.25297 18.2327M3.24581 18.2237L3.25297 18.2327" stroke="#6D48F1" stroke-width="0.754583" stroke-linecap="round"/>
<path fill-rule="evenodd" clip-rule="evenodd" d="M7.47438 13.3599C7.28983 14.0164 7.96351 14.629 8.46776 14.9599C8.67383 15.0951 9.03866 15.314 9.40936 15.4638C9.35639 15.4365 9.3559 15.3439 9.35551 15.2707C9.35537 15.2442 9.35524 15.2202 9.35265 15.2027C9.31031 14.9169 9.33729 14.6497 9.42101 14.3733C9.53179 14.0076 9.70397 13.6781 9.91213 13.3593C9.99109 13.2384 10.0759 13.1208 10.1605 13.0035C10.1742 12.9846 10.1878 12.9656 10.2015 12.9467C10.2104 12.9343 10.4469 12.6391 10.4736 12.6365C10.1183 12.4705 9.6919 12.3821 9.35435 12.3821C9.28245 12.3821 9.21972 12.3806 9.16155 12.3793C8.93778 12.3742 8.78154 12.3706 8.43095 12.456C8.39519 12.4748 8.34754 12.4827 8.29153 12.492C8.0761 12.5277 7.73692 12.5839 7.47438 13.3599Z" fill="white"/>
<path d="M9.68658 15.5609C10.0672 15.6713 10.4859 15.7061 10.8816 15.6727C11.1881 15.6468 11.6623 15.5388 11.7508 15.2024C11.8147 14.9594 11.801 14.6491 11.7791 14.4015C11.7335 13.8841 11.2861 13.2859 10.9289 12.9378C10.8078 12.8198 10.6504 12.7192 10.4757 12.6374C10.475 12.6371 10.4743 12.6368 10.4736 12.6365C10.4469 12.6391 10.2104 12.9343 10.2015 12.9467C10.1878 12.9656 10.1742 12.9846 10.1605 13.0035C10.0759 13.1208 9.99109 13.2384 9.91213 13.3593C9.70397 13.6781 9.53179 14.0076 9.42101 14.3733C9.33729 14.6497 9.31031 14.9169 9.35265 15.2027C9.35524 15.2202 9.35537 15.2442 9.35551 15.2707C9.3559 15.3439 9.35639 15.4365 9.40936 15.4638C9.5022 15.5013 9.5954 15.5345 9.68658 15.5609Z" fill="#6D48F1"/>
<path fill-rule="evenodd" clip-rule="evenodd" d="M5.15416 10.061C4.6342 9.65132 4.17396 9.39258 3.41055 9.39258C3.01291 9.39258 2.58712 9.52959 2.26588 9.75579C1.76297 10.1099 2.04581 10.8139 2.24226 11.2459C2.48522 11.7802 2.93891 12.167 3.43417 12.4721C3.56979 12.5557 3.73072 12.6387 3.90328 12.7069C3.86721 12.6705 3.84868 12.5708 3.83522 12.4985C3.8318 12.4801 3.82871 12.4635 3.82574 12.4501C3.77853 12.2374 3.73912 12.0151 3.78079 11.7984C3.84673 11.4555 4.03315 11.1102 4.2265 10.8217C4.37044 10.607 4.56792 10.3794 4.80097 10.2517C4.81182 10.2458 4.83399 10.2322 4.86226 10.2149C4.95506 10.1581 5.11367 10.061 5.15416 10.061Z" fill="white"/>
<path d="M5.6322 10.4543C5.46183 10.3122 5.30547 10.1802 5.15416 10.061C5.11367 10.061 4.95506 10.1581 4.86226 10.2149C4.83399 10.2322 4.81182 10.2458 4.80097 10.2517C4.56792 10.3794 4.37044 10.607 4.2265 10.8217C4.03315 11.1102 3.84673 11.4555 3.78079 11.7984C3.73912 12.0151 3.77853 12.2374 3.82574 12.4501C3.82871 12.4635 3.8318 12.4801 3.83522 12.4985C3.84868 12.5708 3.86721 12.6705 3.90328 12.7069C4.28978 12.8598 4.73465 12.9386 5.08426 12.7841C5.56457 12.5718 6.03778 12.1793 6.1203 11.637C6.17172 11.2991 6.18362 11.0643 5.96466 10.7867C5.87916 10.6784 5.76974 10.569 5.6322 10.4543Z" fill="#6D48F1"/>
<path d="M5.6322 10.4543C4.87638 9.82381 4.39611 9.39258 3.41055 9.39258M5.6322 10.4543C5.76974 10.569 5.87916 10.6784 5.96466 10.7867C6.18362 11.0643 6.17172 11.2991 6.1203 11.637C6.03778 12.1793 5.56457 12.5718 5.08426 12.7841M5.6322 10.4543C5.46183 10.3122 5.30547 10.1802 5.15416 10.061M3.41055 9.39258C3.01291 9.39258 2.58712 9.52959 2.26588 9.75579C1.76297 10.1099 2.04581 10.8139 2.24226 11.2459C2.48522 11.7802 2.93891 12.167 3.43417 12.4721M3.41055 9.39258C4.17396 9.39258 4.6342 9.65132 5.15416 10.061M3.43417 12.4721C3.87355 12.7428 4.57855 13.0076 5.08426 12.7841M3.43417 12.4721C3.56979 12.5557 3.73072 12.6387 3.90328 12.7069M5.08426 12.7841C4.73465 12.9386 4.28978 12.8598 3.90328 12.7069M10.9289 12.9378C11.2861 13.2859 11.7335 13.8841 11.7791 14.4015C11.801 14.6491 11.8147 14.9594 11.7508 15.2024C11.6623 15.5388 11.1881 15.6468 10.8816 15.6727C10.4859 15.7061 10.0672 15.6713 9.68658 15.5609C9.5954 15.5345 9.5022 15.5013 9.40936 15.4638M10.9289 12.9378C10.8073 12.8193 10.6491 12.7184 10.4736 12.6365M10.9289 12.9378C10.8078 12.8198 10.6504 12.7192 10.4757 12.6374M3.90328 12.7069C3.86721 12.6705 3.84868 12.5708 3.83522 12.4985C3.8318 12.4801 3.82871 12.4635 3.82574 12.4501C3.77853 12.2374 3.73912 12.0151 3.78079 11.7984C3.84673 11.4555 4.03315 11.1102 4.2265 10.8217C4.37044 10.607 4.56792 10.3794 4.80097 10.2517C4.81182 10.2458 4.83399 10.2322 4.86226 10.2149C4.95506 10.1581 5.11367 10.061 5.15416 10.061M9.42101 15.4685C9.41687 15.4673 9.41299 15.4657 9.40936 15.4638M10.4757 12.6374C10.4753 12.6367 10.4746 12.6364 10.4736 12.6365M10.4757 12.6374C10.475 12.6371 10.4743 12.6368 10.4736 12.6365M9.40936 15.4638C9.03866 15.314 8.67383 15.0951 8.46776 14.9599C7.96351 14.629 7.28983 14.0164 7.47438 13.3599C7.73692 12.5839 8.0761 12.5277 8.29153 12.492C8.34754 12.4827 8.39519 12.4748 8.43095 12.456C8.78154 12.3706 8.93778 12.3742 9.16155 12.3793C9.21972 12.3806 9.28245 12.3821 9.35435 12.3821C9.6919 12.3821 10.1183 12.4705 10.4736 12.6365M9.40936 15.4638C9.35639 15.4365 9.3559 15.3439 9.35551 15.2707C9.35537 15.2442 9.35524 15.2202 9.35265 15.2027C9.31031 14.9169 9.33729 14.6497 9.42101 14.3733C9.53179 14.0076 9.70397 13.6781 9.91213 13.3593C9.99109 13.2384 10.0759 13.1208 10.1605 13.0035C10.1742 12.9846 10.1878 12.9656 10.2015 12.9467C10.2104 12.9343 10.4469 12.6391 10.4736 12.6365" stroke="#6D48F1" stroke-width="0.754583" stroke-linecap="round"/>
<path d="M5.39844 7.97656C5.86369 7.81313 6.62261 7.95675 6.98948 8.30178C7.05294 8.36147 7.11254 8.47275 7.05211 8.53232M9.87089 10.1625C10.2426 10.0615 10.4547 10.2416 10.775 10.4528C11.0151 10.6111 11.3797 10.7956 11.4577 11.097C11.4753 11.165 11.5621 11.3094 11.5621 11.1629" stroke="#6D48F1" stroke-width="0.754583" stroke-linecap="round"/>
</svg>
