<svg width="344" height="496" viewBox="0 0 344 496" fill="none" xmlns="http://www.w3.org/2000/svg">
<g clip-path="url(#clip0_984_17245)">
<rect width="344" height="496" fill="#B19CFA"/>
<path d="M127.352 273.111C127.352 273.111 141.751 291.69 158.936 295.871C159.939 296.114 160.986 296.386 162.022 296.654C163.559 297.053 165.07 297.444 166.368 297.728C175.193 299.122 187.436 300.172 202.132 295.406C210.766 291.672 215.868 287.352 219.109 283.329C221.815 279.97 223.225 276.819 224.312 274.389C224.514 273.937 224.705 273.51 224.891 273.111C227.275 268.002 231.393 247.101 229.071 234.561C227.887 228.167 225.254 219.842 221.542 211.801C217.973 204.07 213.406 196.602 208.17 191.365C179.837 184.398 143.144 182.54 141.287 194.617C142.667 215.327 126.348 233.985 117.493 244.11C114.433 247.609 112.264 250.089 112.025 251.282C111.096 255.926 127.352 273.111 127.352 273.111Z" fill="#F9E4DB"/>
<path d="M415.787 92.4329C413.464 99.8644 413.464 122.242 413.464 122.242C424.107 121.276 442.523 121.765 452.944 122.847C452.944 122.847 468.736 96.6133 470.594 92.4329C470.927 91.6836 471.2 91.1134 471.433 90.6287C472.497 88.4088 472.702 87.9812 473.845 80.3569C474.469 76.1968 478.074 71.5707 481.49 67.1881C485.701 61.7848 489.623 56.7516 487.315 53.4178C483.135 47.3801 473.845 54.3468 473.845 54.3468C477.561 48.7727 482.206 37.1611 475.703 33.9102C469.201 30.6593 462.336 37.1615 462.336 37.1615C462.223 34.8402 461.415 33.4804 459.911 33.9102C456.66 34.8391 445.513 41.3417 439.939 44.5929C434.366 47.8442 419.535 86.8595 419.535 86.8595C417.679 88.819 416.314 90.7456 415.787 92.4329Z" fill="#F9E4DB"/>
<path d="M64.6498 562.841C64.6498 562.841 48.3933 552.72 44.6776 553.649C40.9618 554.578 27.4923 562.938 27.0278 566.654C26.5633 570.37 27.0278 578.73 27.0278 578.73C24.3879 576.377 21.6861 574.515 19.5963 575.479C13.5582 578.265 13.5583 580.589 13.5583 588.02C13.5583 595.451 20.9897 609.385 32.1369 612.172C43.2842 614.958 73.939 607.07 73.939 607.07C66.0003 601.43 53.6606 581.26 54.4311 575.479C55.3029 568.938 57.8129 564.854 64.6498 562.841Z" fill="#F9E4DB"/>
<path d="M309.888 618.359C280.275 626.242 248.579 634.533 224.891 636.789C201.202 639.045 133.402 632.753 110.632 627.598C110.632 627.598 -3.62704 825.827 0.0887021 830.471C3.80444 835.116 121.778 839.761 127.352 835.116C129.759 833.11 138.314 804.173 147.746 772.272L147.746 772.271C160.157 730.292 174.084 683.182 177.515 685.557C181.762 688.498 191.983 687.302 200.259 686.334L200.261 686.333C203.751 685.925 206.895 685.557 209.099 685.557C213.173 685.557 199.242 729.242 186.434 769.407C175.877 802.513 166.082 833.227 167.761 835.116C170.832 838.571 242.749 836.315 271.024 835.428L271.031 835.428C276.963 835.242 280.973 835.116 282.02 835.116C288.058 835.116 309.888 618.359 309.888 618.359Z" fill="#341A8F"/>
<path d="M158.936 295.871C141.751 291.69 127.352 273.111 127.352 273.111C127.352 273.111 111.096 255.926 112.025 251.282C112.264 250.089 114.433 247.609 117.493 244.11C126.348 233.985 142.667 215.327 141.287 194.617C143.144 182.54 179.837 184.398 208.17 191.365C197.487 180.682 211.17 162.5 187.5 153.5C163.83 144.5 72.5 180.5 101 182.5C129.5 184.5 58.5 217.5 87 217C115.5 216.5 75.7059 210.795 90.603 260.898C105.5 311 158.936 295.871 158.936 295.871Z" fill="#341A8F"/>
<path d="M202.132 295.406C187.436 300.172 175.193 299.122 166.368 297.728C161.576 306.36 160.675 313.188 161.296 318.628C161.815 323.18 163.399 326.76 164.66 329.61C165.605 331.743 166.368 333.468 166.368 334.885C166.368 336.504 155.826 343.648 140.457 354.065C102.915 379.508 36.5692 424.474 24.7053 456.111C13.0247 487.259 41.6887 525.887 57.3392 546.978C64.0925 556.078 68.4226 561.914 66.0427 562.474C73.4745 561.545 102.736 581.981 104.129 588.02C107.845 588.02 112.079 587.225 118.063 585.98V592.2V608.456C118.063 608.456 173.335 616.816 216.53 616.352C228.374 616.225 239.972 615.224 251.365 613.447L255.545 601.954C255.545 601.954 278.769 525.316 263.906 456.111C249.043 386.906 208.17 329.311 206.312 327.453C205.706 326.847 205.862 324.554 206.083 321.305C206.54 314.591 207.274 303.799 202.132 295.406Z" fill="#341A8F"/>
<path fill-rule="evenodd" clip-rule="evenodd" d="M410.677 143.989C413.464 152.349 455.731 155.136 459.911 147.705C461.769 143.524 466.413 126.339 459.911 124.017C458.705 123.586 456.219 123.187 452.944 122.847C442.523 121.765 424.107 121.276 413.464 122.242C409.425 122.608 406.505 123.184 405.568 124.017C402.169 127.038 407.267 137.124 409.623 141.786C410.165 142.857 410.562 143.642 410.677 143.989ZM338.221 584.768C310.24 598.59 281.525 608.742 251.365 613.447C239.972 615.224 228.374 616.225 216.53 616.352C173.335 616.816 118.063 608.456 118.063 608.456C118.063 608.456 100.413 619.604 104.129 625.177C104.645 625.95 106.965 626.768 110.632 627.598C133.402 632.753 201.202 639.045 224.891 636.789C248.579 634.533 280.275 626.242 309.888 618.359C325.624 614.17 337.68 610.39 339.614 608.456C342.732 605.338 341.053 600.04 339.457 595.001C338.199 591.032 336.993 587.224 338.221 584.768ZM66.0427 562.474C73.4745 561.545 102.736 581.981 104.129 588.02C103.665 593.129 84.6211 606.598 78.119 608.456C77.0119 608.773 75.5681 608.227 73.939 607.07C66.0003 601.43 53.6606 581.26 54.4311 575.479C55.3029 568.938 57.8129 564.854 64.6498 562.841C65.0955 562.71 65.5595 562.587 66.0427 562.474Z" fill="#8464F5"/>
<path d="M219.109 283.329C215.868 287.352 210.766 291.672 202.132 295.406C207.274 303.799 206.54 314.591 206.083 321.305C205.862 324.554 205.706 326.847 206.312 327.453C208.17 329.311 249.043 386.906 263.906 456.111C278.769 525.316 255.545 601.954 255.545 601.954L251.365 613.447C281.525 608.742 310.24 598.59 338.221 584.768C338.871 583.468 340.254 581.383 342.029 578.71C347.86 569.925 357.914 554.78 360.051 540.18C361.397 530.98 355.373 491.109 349.413 451.665C347.46 438.738 345 426.13 342.767 414.685C337.709 388.759 333.814 368.8 339.614 364.611C345.275 360.522 348.594 360.116 354.201 359.431C356.874 359.104 360.067 358.713 364.282 357.829C390.704 352.291 430.591 343.929 445.512 327.454C467.807 302.837 486.386 207.158 484.992 186.721C484.099 173.63 473.298 163.017 466.136 155.98C462.116 152.031 459.243 149.207 459.911 147.705C455.731 155.136 413.464 152.349 410.677 143.989C410.835 144.46 410.225 144.364 409.045 144.177C405.573 143.627 397.167 142.297 388.847 152.349C383.284 159.072 381.076 186.039 378.874 212.928C376.663 239.918 374.459 266.829 368.875 273.111C362.183 280.641 338.081 279.129 315.663 277.724C300.741 276.788 286.565 275.9 278.769 277.756C266.378 280.705 248.928 295.086 237.249 304.711C230.541 310.239 225.738 314.197 224.891 313.52C224.172 312.944 224.448 310.725 224.831 307.658C225.24 304.375 225.771 300.12 225.331 295.871C224.855 291.272 223.242 286.679 219.109 283.329Z" fill="#341A8F"/>
<path d="M158.936 295.871C141.751 291.69 127.352 273.111 127.352 273.111C127.352 273.111 111.096 255.926 112.025 251.282C112.264 250.089 114.433 247.609 117.493 244.11C126.348 233.985 142.667 215.327 141.287 194.617C143.144 182.54 179.837 184.398 208.17 191.365M158.936 295.871C159.939 296.114 160.986 296.386 162.022 296.654C163.559 297.053 165.07 297.444 166.368 297.728M158.936 295.871C158.936 295.871 105.5 311 90.603 260.898C75.7059 210.795 115.5 216.5 87 217C58.5 217.5 129.5 184.5 101 182.5C72.5 180.5 163.83 144.5 187.5 153.5C211.17 162.5 197.487 180.682 208.17 191.365M202.132 295.406C187.436 300.172 175.193 299.122 166.368 297.728M202.132 295.406C210.766 291.672 215.868 287.352 219.109 283.329M202.132 295.406C207.274 303.799 206.54 314.591 206.083 321.305C205.862 324.554 205.706 326.847 206.312 327.453C208.17 329.311 249.043 386.906 263.906 456.111C278.769 525.316 255.545 601.954 255.545 601.954L251.365 613.447M208.17 191.365C213.406 196.602 217.973 204.07 221.542 211.801C225.254 219.842 227.887 228.167 229.071 234.561C231.393 247.101 227.275 268.002 224.891 273.111C224.705 273.51 224.514 273.937 224.312 274.389C223.225 276.819 221.815 279.97 219.109 283.329M166.368 297.728C161.576 306.36 160.675 313.188 161.296 318.628C161.815 323.18 163.399 326.76 164.66 329.61C165.605 331.743 166.368 333.468 166.368 334.885C166.368 336.504 155.826 343.648 140.457 354.065C102.915 379.508 36.5692 424.474 24.7053 456.111C13.0247 487.259 41.6887 525.887 57.3392 546.978C64.0925 556.078 68.4226 561.914 66.0427 562.474M66.0427 562.474C58.1471 564.332 55.3597 568.512 54.4311 575.479M66.0427 562.474C73.4745 561.545 102.736 581.981 104.129 588.02M66.0427 562.474C65.5595 562.587 65.0955 562.71 64.6498 562.841M54.4311 575.479C53.6606 581.26 66.0003 601.43 73.939 607.07M54.4311 575.479C55.3029 568.938 57.8129 564.854 64.6498 562.841M104.129 588.02C103.665 593.129 84.6211 606.598 78.119 608.456C77.0119 608.773 75.5681 608.227 73.939 607.07M104.129 588.02C107.845 588.02 112.079 587.225 118.063 585.98M173.335 416.631C173.335 416.631 131.068 452.86 127.352 460.756C123.637 468.651 171.013 526.71 158.936 553.649C146.86 580.588 128.588 583.792 118.063 585.98M219.109 283.329C223.242 286.679 224.855 291.272 225.331 295.871C225.771 300.12 225.24 304.375 224.831 307.658C224.448 310.725 224.172 312.944 224.891 313.52C225.738 314.197 230.541 310.239 237.249 304.711C248.928 295.086 266.378 280.705 278.769 277.756C286.565 275.9 300.741 276.788 315.663 277.724C338.081 279.129 362.183 280.641 368.875 273.111C374.459 266.829 376.663 239.918 378.874 212.928C381.076 186.039 383.284 159.072 388.847 152.349C397.167 142.297 405.573 143.627 409.045 144.177C410.225 144.364 410.835 144.46 410.677 143.989M410.677 143.989C413.464 152.349 455.731 155.136 459.911 147.705M410.677 143.989C410.562 143.642 410.165 142.857 409.623 141.786C407.267 137.124 402.169 127.038 405.568 124.017C406.505 123.184 409.425 122.608 413.464 122.242M459.911 147.705C461.769 143.524 466.413 126.339 459.911 124.017C458.705 123.586 456.219 123.187 452.944 122.847M459.911 147.705C459.243 149.207 462.116 152.031 466.136 155.98C473.298 163.017 484.099 173.63 484.992 186.721C486.386 207.158 467.807 302.837 445.512 327.454C430.591 343.929 390.704 352.291 364.282 357.829C360.067 358.713 356.874 359.104 354.201 359.431C348.594 360.116 345.275 360.522 339.614 364.611C333.814 368.8 337.709 388.759 342.767 414.685C345 426.13 347.46 438.738 349.413 451.665C355.373 491.109 361.397 530.98 360.051 540.18C357.914 554.78 347.86 569.925 342.029 578.71C340.254 581.383 338.871 583.468 338.221 584.768M338.221 584.768C310.24 598.59 281.525 608.742 251.365 613.447M338.221 584.768C336.993 587.224 338.199 591.032 339.457 595.001C341.053 600.04 342.732 605.338 339.614 608.456C337.68 610.39 325.624 614.17 309.888 618.359M118.063 608.456C118.063 608.456 100.413 619.604 104.129 625.177C104.645 625.95 106.965 626.768 110.632 627.598M118.063 608.456V592.2V585.98M118.063 608.456C118.063 608.456 173.335 616.816 216.53 616.352C228.374 616.225 239.972 615.224 251.365 613.447M413.464 122.242C413.464 122.242 413.464 99.8644 415.787 92.4329C416.314 90.7456 417.679 88.819 419.535 86.8595M413.464 122.242C424.107 121.276 442.523 121.765 452.944 122.847M434.366 111.476C434.366 111.476 430.185 108.225 431.114 102.187C432.043 96.1486 441.797 94.2908 444.584 89.6461C447.371 85.0013 446.906 74.7831 441.797 73.8542C437.848 73.1361 425.851 80.1882 419.535 86.8595M419.535 86.8595C419.535 86.8595 434.366 47.8442 439.939 44.5929C445.513 41.3417 456.66 34.8391 459.911 33.9102C461.415 33.4804 462.223 34.8402 462.336 37.1615M446.906 65.9584C446.906 65.9584 456.66 55.2757 459.911 47.8442C461.658 43.8509 462.466 39.8576 462.336 37.1615M462.336 37.1615C462.336 37.1615 469.201 30.6593 475.703 33.9102C482.206 37.1611 477.561 48.7727 473.845 54.3468M473.845 54.3468C470.129 59.9208 467.343 65.9584 456.195 79.428M473.845 54.3468C473.845 54.3468 483.135 47.3801 487.315 53.4178C489.623 56.7516 485.701 61.7848 481.49 67.1881C478.074 71.5707 474.469 76.1968 473.845 80.3569C472.702 87.9812 472.497 88.4088 471.433 90.6287C471.2 91.1134 470.927 91.6836 470.594 92.4329C468.736 96.6133 452.944 122.847 452.944 122.847M73.939 607.07C73.939 607.07 43.2842 614.958 32.1369 612.172C20.9897 609.385 13.5583 595.451 13.5583 588.02C13.5583 580.589 13.5582 578.265 19.5963 575.479C21.6861 574.515 24.3879 576.377 27.0278 578.73M64.6498 562.841C64.6498 562.841 48.3933 552.72 44.6776 553.649C40.9618 554.578 27.4923 562.938 27.0278 566.654C26.5633 570.37 27.0278 578.73 27.0278 578.73M27.0278 578.73C32.0153 583.174 35.3882 589.877 36.7816 590.342C38.175 590.806 44.6776 586.161 46.071 581.981C47.4644 577.801 44.6776 572.227 44.6776 572.227M309.888 618.359C280.275 626.242 248.579 634.533 224.891 636.789C201.202 639.045 133.402 632.753 110.632 627.598M309.888 618.359C309.888 618.359 288.058 835.116 282.02 835.116C280.973 835.116 276.963 835.242 271.031 835.428M110.632 627.598C110.632 627.598 -3.62704 825.827 0.0887021 830.471C3.80444 835.116 121.778 839.761 127.352 835.116C129.759 833.11 138.314 804.173 147.746 772.272L147.746 772.271C160.157 730.292 174.084 683.182 177.515 685.557C181.762 688.498 191.983 687.302 200.259 686.334L200.261 686.333C203.751 685.925 206.895 685.557 209.099 685.557C213.173 685.557 199.242 729.242 186.434 769.407C175.877 802.513 166.082 833.227 167.761 835.116C170.832 838.571 242.749 836.315 271.024 835.428M271.024 835.428L271.031 835.428M271.024 835.428C271.026 835.428 271.029 835.428 271.031 835.428" stroke="#6D48F1" stroke-width="5" stroke-linecap="round"/>
<path d="M148.567 229.887C148.567 229.887 125.809 240.57 136.027 256.362C138.715 260.515 143.362 261.456 148.567 260.383C156.561 249.486 157.877 242.272 148.567 229.887Z" fill="#6D48F1"/>
<path d="M208.632 189.045C208.632 189.045 185.874 199.728 196.092 215.52C198.619 219.425 202.878 220.49 207.703 219.712C215.457 207.696 215.709 201.067 208.632 189.045Z" fill="#6D48F1"/>
<path d="M174.578 230.352C164.359 219.204 148.567 229.887 148.567 229.887C157.877 242.272 156.561 249.486 148.567 260.383C153.416 259.384 158.749 256.637 163.43 253.114C172.829 246.04 179.605 235.835 174.578 230.352Z" fill="white"/>
<path d="M234.643 189.51C224.424 178.363 208.632 189.045 208.632 189.045C215.709 201.067 215.457 207.696 207.703 219.712C212.793 218.892 218.513 216.022 223.495 212.272C232.894 205.199 239.67 194.994 234.643 189.51Z" fill="white"/>
<path d="M208.632 189.045C208.632 189.045 185.874 199.728 196.092 215.52C198.619 219.425 202.878 220.49 207.703 219.712M208.632 189.045C208.632 189.045 224.424 178.363 234.643 189.51C239.67 194.994 232.894 205.199 223.495 212.272C218.513 216.022 212.793 218.892 207.703 219.712M208.632 189.045C215.709 201.067 215.457 207.696 207.703 219.712M148.567 229.887C148.567 229.887 125.809 240.57 136.027 256.362C138.715 260.515 143.362 261.456 148.567 260.383M148.567 229.887C148.567 229.887 164.359 219.204 174.578 230.352C179.605 235.835 172.829 246.04 163.43 253.114C158.749 256.637 153.416 259.384 148.567 260.383M148.567 229.887C157.877 242.272 156.561 249.486 148.567 260.383" stroke="#6D48F1" stroke-width="5" stroke-linecap="round"/>
<path d="M183.5 208C183.5 208 195 226 204.5 232C214 238 212.5 233.5 216.5 237C220.5 240.5 213.5 249.5 203 251.5" stroke="#6D48F1" stroke-width="5" stroke-linecap="round"/>
<path d="M185.495 267.487C189.171 269.525 194.144 270.805 198.351 270.392C201.217 270.111 204.208 268.485 206.735 267.209C209.61 265.757 211.223 262.882 211.798 259.816" stroke="#6D48F1" stroke-width="5" stroke-linecap="round"/>
<path d="M293.139 382.673C292.646 382.624 284.246 368.035 278.025 364.022C275.454 362.363 276.745 366.482 277.09 367.861C277.943 371.273 279.644 374.656 280.887 377.957C283.066 383.744 284.742 389.809 287.329 395.429C291.577 404.656 297.248 415.902 306.01 421.63C313.88 426.776 313.329 407.773 313.329 404.302C313.329 393.07 309.186 382.182 304.27 372.262C302.611 368.916 301.048 365.464 298.92 362.382C297.711 360.631 296.23 356.772 294.059 355.983C292.981 355.591 293.139 368.036 293.139 369.098V380.229C293.139 381.044 293.632 382.722 293.139 382.673Z" fill="#AFED3A"/>
<path d="M293.139 369.098C293.139 368.036 292.981 355.591 294.059 355.983C296.23 356.772 297.711 360.631 298.92 362.382C301.048 365.464 302.611 368.916 304.27 372.262C309.186 382.182 313.329 393.07 313.329 404.302C313.329 407.773 313.88 426.776 306.01 421.63C297.248 415.902 291.577 404.656 287.329 395.429C284.742 389.809 283.066 383.744 280.887 377.957C279.644 374.656 277.943 371.273 277.09 367.861C276.745 366.482 275.454 362.363 278.025 364.022C284.246 368.035 292.646 382.624 293.139 382.673C293.632 382.722 293.139 381.044 293.139 380.229M293.139 369.098C293.139 372.808 293.139 376.518 293.139 380.229M293.139 369.098V380.229" stroke="#6D48F1" stroke-width="5" stroke-linecap="round"/>
</g>
<defs>
<clipPath id="clip0_984_17245">
<rect width="344" height="496" fill="white"/>
</clipPath>
</defs>
</svg>
