<svg width="24" height="30" viewBox="0 0 24 30" fill="none" xmlns="http://www.w3.org/2000/svg">
<path d="M23.4955 20.0446C23.3918 19.915 23.29 19.7854 23.1901 19.6603C21.8162 17.9358 20.9851 16.8951 20.9851 12.0134C20.9851 9.48603 20.4024 7.4123 19.254 5.857C18.4072 4.70802 17.2626 3.83641 15.7539 3.19225C15.7344 3.18105 15.7171 3.16634 15.7027 3.14883C15.16 1.26303 13.675 0 12.0002 0C10.3253 0 8.84094 1.26303 8.29828 3.14689C8.28382 3.16378 8.26672 3.17802 8.24769 3.18901C4.72691 4.69312 3.01586 7.57885 3.01586 12.0114C3.01586 16.8951 2.18593 17.9358 0.810843 19.6583C0.710927 19.7834 0.609138 19.9104 0.505476 20.0426C0.237702 20.3777 0.0680456 20.7855 0.0165842 21.2175C-0.0348772 21.6496 0.0340108 22.0879 0.215096 22.4806C0.600396 23.323 1.42158 23.846 2.35891 23.846H21.6483C22.5812 23.846 23.3968 23.3237 23.7833 22.4851C23.9652 22.0923 24.0347 21.6536 23.9837 21.2211C23.9327 20.7885 23.7633 20.3802 23.4955 20.0446ZM12.0002 29.0323C12.9025 29.0315 13.7879 28.7773 14.5623 28.2966C15.3368 27.816 15.9714 27.1267 16.3989 26.3021C16.4191 26.2625 16.429 26.2183 16.4278 26.1736C16.4266 26.1289 16.4143 26.0853 16.392 26.047C16.3698 26.0087 16.3384 25.9771 16.3008 25.9551C16.2633 25.9331 16.221 25.9216 16.1779 25.9217H7.82368C7.78054 25.9215 7.7381 25.9329 7.70049 25.9549C7.66288 25.9768 7.63138 26.0084 7.60906 26.0467C7.58674 26.085 7.57435 26.1287 7.57311 26.1734C7.57188 26.2182 7.58182 26.2625 7.60199 26.3021C8.02946 27.1266 8.664 27.8158 9.43832 28.2965C10.2126 28.7771 11.0979 29.0314 12.0002 29.0323Z" fill="black"/>
</svg>
