<svg width="48" height="34" viewBox="0 0 48 34" fill="none" xmlns="http://www.w3.org/2000/svg">
<path d="M6.10727 3.4136C4.38273 3.90844 3.11702 5.45883 2.47724 7.11096L11.2809 6.74929L23.8454 6.23312L36.1635 5.72707L44.2935 5.39307C43.8038 4.79203 42.9136 3.52916 42.4949 3.10026C42.0762 2.67136 41.5835 2.17653 40.1037 1.94968C38.9939 1.94968 37.7661 1.70468 36.6562 1.70468H33.2097C31.4084 1.70468 29.6 1.54135 27.793 1.54135C26.2201 1.54135 24.6631 1.45118 23.0856 1.53681C22.0575 1.59262 21.0117 1.54135 19.982 1.54135C18.9077 1.54135 17.8603 1.68279 16.7925 1.70468C14.9571 1.7423 13.0884 1.86355 11.2809 2.17653C10.2421 2.35639 9.10872 2.70089 8.07817 2.91877C7.58808 3.02239 6.84636 3.20153 6.10727 3.4136Z" fill="#AFED3A"/>
<path d="M2.47724 7.11096C1.7221 9.06102 1.36503 10.7986 1.5466 12.8956C1.63961 13.9698 1.6317 15.0483 1.6238 16.1256L1.6233 16.194C4.96864 16.068 8.02984 15.9686 10.913 15.8944C10.9705 13.1352 11.0924 10.204 11.2809 6.74929L2.47724 7.11096Z" fill="#F7FEE9"/>
<path d="M24.3545 24.3178L24.1126 15.7253C19.8795 15.7186 15.635 15.7728 10.913 15.8944C10.8533 18.7577 10.863 21.4358 10.9396 24.3214C15.7488 24.4589 20.0556 24.4554 24.3545 24.3178Z" fill="#F7FEE9"/>
<path d="M25.391 32.5C28.3594 32.5 31.3323 32.4183 34.3089 32.4183C35.0888 32.4183 35.8766 32.3773 36.6562 32.3534C36.8715 29.0625 37.0105 26.2287 37.0655 23.563C32.5494 23.9329 28.4555 24.1864 24.3545 24.3178L24.5845 32.4841C24.853 32.4943 25.1218 32.5 25.391 32.5Z" fill="#F7FEE9"/>
<path d="M46.353 21.7382C46.353 19.9021 46.3136 18.0199 46.1271 16.194C42.8392 16.0815 39.8243 15.9879 36.9761 15.9146C37.0923 18.4849 37.1195 20.9428 37.0655 23.563C39.9538 23.3265 43.0148 23.0423 46.3608 22.712C46.356 22.3876 46.353 22.0631 46.353 21.7382Z" fill="#F7FEE9"/>
<path d="M36.1635 5.72707L23.8454 6.23312L24.1126 15.7253C28.2647 15.7319 32.4059 15.7971 36.9761 15.9146C36.837 12.837 36.5705 9.59834 36.1635 5.72707Z" fill="#F7FEE9"/>
<path d="M3.59763 31.03C4.17672 31.6116 5.08769 31.9212 5.85647 32.1733C6.3968 32.31 9.50744 32.4389 11.2809 32.4162C11.1193 29.4032 11.005 26.7866 10.9396 24.3214C8.20582 24.2432 5.3097 24.1195 2.16039 23.9491C2.18283 25.2256 2.18987 26.5029 2.48628 27.7362C2.69659 28.6112 2.76675 29.3521 3.17297 30.168C3.31822 30.4597 3.35753 30.7889 3.59763 31.03Z" fill="#F7FEE9"/>
<path d="M14.9641 32.0735C15.966 31.8499 16.9273 32.01 17.9368 32.01C20.1646 32.01 22.3648 32.3999 24.5845 32.4841L24.3545 24.3178C20.0556 24.4554 15.7488 24.4589 10.9396 24.3214C11.005 26.7866 11.1193 29.4032 11.2809 32.4162C11.9478 32.4076 12.4256 32.3776 12.5065 32.3185C13.0054 32.1733 13.3331 32.1733 13.5817 32.1733C14.0022 32.1733 14.5532 32.1652 14.9641 32.0735Z" fill="#F7FEE9"/>
<path d="M24.1126 15.7253L24.3545 24.3178C28.4555 24.1864 32.5494 23.9329 37.0655 23.563C37.1195 20.9428 37.0923 18.4849 36.9761 15.9146C32.4059 15.7971 28.2647 15.7319 24.1126 15.7253Z" fill="#F7FEE9"/>
<path d="M46.3937 27.7225C46.6022 27.3457 46.4409 26.4798 46.4343 26.0665C46.4167 24.9495 46.3775 23.8319 46.3608 22.712C43.0148 23.0423 39.9538 23.3265 37.0655 23.563C37.0105 26.2287 36.8715 29.0625 36.6562 32.3534C36.9763 32.3436 37.295 32.3367 37.6113 32.3367C38.7567 32.3367 40.1622 32.2776 41.2255 31.8104C42.6313 31.1927 44.352 30.485 45.2778 29.2334C45.6435 28.739 46.1112 28.2332 46.3937 27.7225Z" fill="#F7FEE9"/>
<path d="M45.4179 9.18437C45.0173 7.79862 45.246 6.56219 44.2935 5.39307L36.1635 5.72707C36.5705 9.59834 36.837 12.837 36.9761 15.9146C39.8243 15.9879 42.8392 16.0815 46.1271 16.194C45.8865 13.8381 46.0863 11.4967 45.4179 9.18437Z" fill="#F7FEE9"/>
<path d="M23.8454 6.23312L11.2809 6.74929C11.0924 10.204 10.9705 13.1352 10.913 15.8944C15.635 15.7728 19.8795 15.7186 24.1126 15.7253L23.8454 6.23312Z" fill="#F7FEE9"/>
<path d="M1.6233 16.194C1.61189 17.7598 1.605 19.323 1.91253 20.8671C2.11384 21.878 2.14219 22.9133 2.16039 23.9491C5.3097 24.1195 8.20582 24.2432 10.9396 24.3214C10.863 21.4358 10.8533 18.7577 10.913 15.8944C8.02984 15.9686 4.96864 16.068 1.6233 16.194Z" fill="#F7FEE9"/>
<path d="M2.47724 7.11096C1.7221 9.06102 1.36503 10.7986 1.5466 12.8956C1.63961 13.9698 1.6317 15.0483 1.6238 16.1256M2.47724 7.11096C3.11702 5.45883 4.38273 3.90844 6.10727 3.4136C6.84636 3.20153 7.58808 3.02239 8.07817 2.91877C9.10872 2.70089 10.2421 2.35639 11.2809 2.17653C13.0884 1.86355 14.9571 1.7423 16.7925 1.70468C17.8603 1.68279 18.9077 1.54135 19.982 1.54135C21.0117 1.54135 22.0575 1.59262 23.0856 1.53681C24.6631 1.45118 26.2201 1.54135 27.793 1.54135C29.6 1.54135 31.4084 1.70468 33.2097 1.70468M2.47724 7.11096L11.2809 6.74929M33.2097 1.70468C34.4092 1.70468 35.4606 1.70468 36.6562 1.70468M33.2097 1.70468H36.6562M36.6562 1.70468C37.7661 1.70468 38.9939 1.94968 40.1037 1.94968C41.5835 2.17653 42.0762 2.67136 42.4949 3.10026C42.9136 3.52916 43.8038 4.79203 44.2935 5.39307M44.2935 5.39307C45.246 6.56219 45.0173 7.79862 45.4179 9.18437C46.0863 11.4967 45.8865 13.8381 46.1271 16.194M44.2935 5.39307L36.1635 5.72707M46.1271 16.194C46.3136 18.0199 46.353 19.9021 46.353 21.7382C46.353 22.0631 46.356 22.3876 46.3608 22.712M46.1271 16.194C42.8392 16.0815 39.8243 15.9879 36.9761 15.9146M11.2809 32.4162C11.9478 32.4076 12.4256 32.3776 12.5065 32.3185C13.0054 32.1733 13.3331 32.1733 13.5817 32.1733C14.0022 32.1733 14.5532 32.1652 14.9641 32.0735C15.966 31.8499 16.9273 32.01 17.9368 32.01C20.1646 32.01 22.3648 32.3999 24.5845 32.4841M11.2809 32.4162C9.50744 32.4389 6.3968 32.31 5.85647 32.1733C5.08769 31.9212 4.17672 31.6116 3.59763 31.03C3.35753 30.7889 3.31822 30.4597 3.17297 30.168C2.76675 29.3521 2.69659 28.6112 2.48628 27.7362C2.18987 26.5029 2.18283 25.2256 2.16039 23.9491M11.2809 32.4162C11.1193 29.4032 11.005 26.7866 10.9396 24.3214M11.2809 6.74929L23.8454 6.23312M11.2809 6.74929C11.0924 10.204 10.9705 13.1352 10.913 15.8944M24.5845 32.4841C24.853 32.4943 25.1218 32.5 25.391 32.5C28.3594 32.5 31.3323 32.4183 34.3089 32.4183C35.0888 32.4183 35.8766 32.3773 36.6562 32.3534M24.5845 32.4841L24.3545 24.3178M23.8454 6.23312L36.1635 5.72707M23.8454 6.23312L24.1126 15.7253M36.6562 32.3534C36.9763 32.3436 37.295 32.3367 37.6113 32.3367C38.7567 32.3367 40.1622 32.2776 41.2255 31.8104C42.6313 31.1927 44.352 30.485 45.2778 29.2334C45.6435 28.739 46.1112 28.2332 46.3937 27.7225C46.6022 27.3457 46.4409 26.4798 46.4343 26.0665C46.4167 24.9495 46.3775 23.8319 46.3608 22.712M36.6562 32.3534C36.8715 29.0625 37.0105 26.2287 37.0655 23.563M36.1635 5.72707C36.5705 9.59834 36.837 12.837 36.9761 15.9146M1.6233 16.194C1.61189 17.7598 1.605 19.323 1.91253 20.8671C2.11384 21.878 2.14219 22.9133 2.16039 23.9491M1.6233 16.194L1.6238 16.1256M1.6233 16.194C4.96864 16.068 8.02984 15.9687 10.913 15.8944M1.6233 16.194C1.62347 16.1712 1.62363 16.1484 1.6238 16.1256M2.16039 23.9491C5.3097 24.1195 8.20582 24.2432 10.9396 24.3214M46.3608 22.712C43.0148 23.0423 39.9538 23.3265 37.0655 23.563M10.913 15.8944C15.635 15.7728 19.8795 15.7186 24.1126 15.7253M10.913 15.8944C10.8533 18.7577 10.863 21.4358 10.9396 24.3214M24.3545 24.3178L24.1126 15.7253M24.3545 24.3178C20.0556 24.4554 15.7488 24.4589 10.9396 24.3214M24.3545 24.3178C28.4555 24.1864 32.5494 23.9329 37.0655 23.563M24.1126 15.7253C28.2647 15.7319 32.4059 15.7971 36.9761 15.9146M37.0655 23.563C37.1195 20.9428 37.0923 18.4849 36.9761 15.9146" stroke="#AFED3A" stroke-width="3" stroke-linecap="round"/>
</svg>
